<svg width="32" height="30" viewBox="0 0 32 30" fill="none" xmlns="http://www.w3.org/2000/svg">
<path fill-rule="evenodd" clip-rule="evenodd" d="M8.78312 5.79939V1.52184C8.78312 1.3861 8.83701 1.25606 8.9327 1.16043C9.02871 1.06442 9.15874 1.01053 9.29448 1.01053H30.4781C30.6139 1.01053 30.7439 1.06442 30.8395 1.16043C30.9355 1.25606 30.9894 1.3861 30.9894 1.52184V17.6943C30.9894 17.8301 30.9355 17.9601 30.8395 18.0557C30.7439 18.1517 30.6139 18.2056 30.4781 18.2056H19.9077C19.6287 18.2056 19.4024 18.432 19.4024 18.7109C19.4024 18.9898 19.6288 19.2161 19.9077 19.2161H30.4781C30.8816 19.2161 31.2687 19.0558 31.5543 18.7705C31.8397 18.4848 32 18.0978 32 17.6943V1.52184C32 1.11832 31.8397 0.731278 31.5543 0.445635C31.2687 0.16031 30.8816 0 30.4781 0C26.6496 0 13.123 0 9.29448 0C8.89096 0 8.5036 0.160363 8.21828 0.445635C7.93295 0.731278 7.77264 1.11832 7.77264 1.52184V5.79939C7.77264 6.07827 7.999 6.30463 8.27788 6.30463C8.55676 6.30463 8.78312 6.07832 8.78312 5.79939Z" fill="#2D55A5"/>
<path fill-rule="evenodd" clip-rule="evenodd" d="M19.6493 21.3993V28.5784C19.6493 28.8573 19.876 29.0836 20.1545 29.0836C20.4335 29.0836 20.6598 28.8573 20.6598 28.5784V21.3993C20.6598 21.1203 20.4334 20.894 20.1545 20.894C19.876 20.894 19.6493 21.1204 19.6493 21.3993Z" fill="#2D55A5"/>
<path fill-rule="evenodd" clip-rule="evenodd" d="M31.4947 15.2542H25.8175C25.164 15.2542 24.6346 15.7836 24.6346 16.4371V18.7108C24.6346 18.9897 24.8609 19.216 25.1398 19.216C25.4187 19.216 25.645 18.9897 25.645 18.7108V16.4371C25.645 16.3418 25.7222 16.2647 25.8175 16.2647H31.4946C31.7735 16.2647 31.9998 16.0383 31.9998 15.7594C31.9998 15.4806 31.7736 15.2542 31.4947 15.2542Z" fill="#2D55A5"/>
<path fill-rule="evenodd" clip-rule="evenodd" d="M11.7968 4.41794H18.7735C19.0521 4.41794 19.2787 4.19159 19.2787 3.91271C19.2787 3.63378 19.0521 3.40747 18.7735 3.40747H11.7968C11.518 3.40747 11.2916 3.63383 11.2916 3.91271C11.2915 4.19159 11.5179 4.41794 11.7968 4.41794Z" fill="#2D55A5"/>
<path fill-rule="evenodd" clip-rule="evenodd" d="M11.7968 7.02878H28.5126C28.7915 7.02878 29.0178 6.80243 29.0178 6.52355C29.0178 6.24499 28.7915 6.01831 28.5126 6.01831H11.7968C11.518 6.01831 11.2916 6.24499 11.2916 6.52355C11.2915 6.80243 11.5179 7.02878 11.7968 7.02878Z" fill="#2D55A5"/>
<path fill-rule="evenodd" clip-rule="evenodd" d="M14.8547 9.64011H18.1516C18.4306 9.64011 18.6569 9.41375 18.6569 9.13488C18.6569 8.85594 18.4305 8.62964 18.1516 8.62964H14.8547C14.5761 8.62964 14.3494 8.856 14.3494 9.13488C14.3494 9.41375 14.5761 9.64011 14.8547 9.64011Z" fill="#2D55A5"/>
<path fill-rule="evenodd" clip-rule="evenodd" d="M22.9507 13.207H28.1657C28.4446 13.207 28.6709 12.9806 28.6709 12.7018C28.6709 12.4232 28.4446 12.1965 28.1657 12.1965H22.9507C22.6717 12.1965 22.4454 12.4232 22.4454 12.7018C22.4454 12.9806 22.6718 13.207 22.9507 13.207Z" fill="#2D55A5"/>
<path fill-rule="evenodd" clip-rule="evenodd" d="M24.1987 9.64011H28.4318C28.7108 9.64011 28.9371 9.41375 28.9371 9.13488C28.9371 8.85594 28.7107 8.62964 28.4318 8.62964H24.1987C23.9202 8.62964 23.6935 8.856 23.6935 9.13488C23.6934 9.41375 23.9202 9.64011 24.1987 9.64011Z" fill="#2D55A5"/>
<path fill-rule="evenodd" clip-rule="evenodd" d="M8.05956 6.88647C5.49448 6.88647 3.41214 8.96882 3.41214 11.5339C3.41214 14.099 5.49448 16.1813 8.05956 16.1813C10.6243 16.1813 12.707 14.099 12.707 11.5339C12.707 8.96882 10.6243 6.88647 8.05956 6.88647ZM8.05956 7.897C10.0668 7.897 11.6964 9.52663 11.6964 11.5339C11.6964 13.5412 10.0668 15.1708 8.05956 15.1708C6.05229 15.1708 4.42267 13.5412 4.42267 11.5339C4.42267 9.52663 6.05235 7.897 8.05956 7.897Z" fill="#2D55A5"/>
<path fill-rule="evenodd" clip-rule="evenodd" d="M16.5076 15.7643L14.6175 17.5776C14.5222 17.6689 14.3956 17.7197 14.2635 17.7197H5.51541C3.27946 17.7197 1.3699 19.3335 0.99702 21.5385C0.660864 23.5252 0.257658 25.91 0.0212079 27.3082C-0.0532409 27.7498 0.0704 28.2019 0.359371 28.5441C0.648712 28.8863 1.07379 29.0837 1.52181 29.0837H10.886C11.7268 29.0837 12.4082 28.4023 12.4082 27.5619V22.7804C12.4082 22.7346 12.4261 22.6908 12.4584 22.6585C12.4911 22.6261 12.5349 22.608 12.5807 22.608H14.8254C15.8582 22.608 16.8508 22.2088 17.5959 21.494C18.2666 20.8507 19.1545 19.9991 19.8915 19.2917C20.3594 18.843 20.6296 18.227 20.643 17.5789C20.6565 16.9375 20.417 16.3167 19.9771 15.8506C19.9727 15.8459 19.9539 15.8263 19.9492 15.8216C19.5018 15.3628 18.8915 15.0977 18.2502 15.0842C17.602 15.0711 16.9754 15.3153 16.5076 15.7643ZM15.3172 18.3065C15.7308 17.9097 16.5106 17.1615 17.2072 16.4932C17.4814 16.2301 17.8492 16.0866 18.2292 16.0947C18.6054 16.1025 18.9631 16.2578 19.2255 16.5269C19.2282 16.5299 19.2393 16.5414 19.242 16.5444C19.5 16.8175 19.6405 17.1816 19.6328 17.5576C19.625 17.9379 19.4664 18.2993 19.1918 18.5624C18.4548 19.2698 17.5669 20.1213 16.8962 20.7647C16.3394 21.2989 15.5974 21.5974 14.8253 21.5974C14.0725 21.5974 13.1795 21.5974 12.5806 21.5974C12.2667 21.5974 11.9659 21.722 11.7439 21.944C11.5222 22.1656 11.3976 22.4668 11.3976 22.7804V27.5618C11.3973 27.8441 11.1685 28.0731 10.8863 28.0731C10.886 28.0731 1.52175 28.0731 1.52175 28.0731C1.37117 28.0731 1.22834 28.0068 1.13133 27.8919C1.03401 27.7767 0.992581 27.6248 1.01747 27.4766L1.99328 21.7069C2.28399 19.9883 3.77249 18.7302 5.5153 18.7302H14.2634C14.6563 18.7302 15.0335 18.5783 15.3172 18.3065Z" fill="#2D55A5"/>
<path fill-rule="evenodd" clip-rule="evenodd" d="M4.53754 28.6625L5.4211 23.4364C5.46759 23.1616 5.28229 22.9005 5.00711 22.8541C4.73225 22.8076 4.47118 22.9932 4.42473 23.268L3.54117 28.4941C3.49468 28.769 3.67993 29.0301 3.95516 29.0765C4.23002 29.123 4.4911 28.9374 4.53754 28.6625Z" fill="#2D55A5"/>
<path fill-rule="evenodd" clip-rule="evenodd" d="M4.56047 26.0015H7.60013C7.69545 26.0015 7.77259 26.0786 7.77259 26.174V28.5783C7.77259 28.8573 7.99895 29.0836 8.27783 29.0836C8.55676 29.0836 8.78307 28.8572 8.78307 28.5783V26.174C8.78307 25.5205 8.25321 24.991 7.60008 24.991C6.52789 24.991 4.56041 24.991 4.56041 24.991C4.28153 24.991 4.05518 25.2173 4.05518 25.4962C4.05518 25.7751 4.28153 26.0015 4.56047 26.0015Z" fill="#2D55A5"/>
<path fill-rule="evenodd" clip-rule="evenodd" d="M19.2545 15.8299L21.3473 9.28875C21.4322 9.02297 21.2856 8.73871 21.0199 8.65348C20.7545 8.56862 20.4698 8.71514 20.3846 8.98091L18.2921 15.522C18.2072 15.7875 18.3538 16.0721 18.6192 16.1573C18.885 16.2422 19.1696 16.0953 19.2545 15.8299Z" fill="#2D55A5"/>
</svg>
