<svg width="40" height="40" viewBox="0 0 40 40" fill="none" xmlns="http://www.w3.org/2000/svg">
<g clip-path="url(#clip0_106_2896)">
<path d="M35.7559 22.7345V16.76" stroke="#2D55A5" stroke-width="1.17188" stroke-miterlimit="10" stroke-linecap="round" stroke-linejoin="round"/>
<path d="M4.24414 16.76V22.6317" stroke="#2D55A5" stroke-width="1.17188" stroke-miterlimit="10" stroke-linecap="round" stroke-linejoin="round"/>
<path d="M29.1139 9.5977V6.09395L20.8271 0.826758C20.322 0.505664 19.6767 0.505664 19.1716 0.826758L10.8848 6.09395V9.5977" stroke="#2D55A5" stroke-width="1.17188" stroke-miterlimit="10" stroke-linecap="round" stroke-linejoin="round"/>
<path d="M15.7288 9.59766H4.9819C4.47284 9.59766 4.03206 9.95109 3.92135 10.448L2.84284 15.2891C2.69167 15.9678 3.20807 16.6119 3.90338 16.6119H10.8851" stroke="#2D55A5" stroke-width="1.17188" stroke-miterlimit="10" stroke-linecap="round" stroke-linejoin="round"/>
<path d="M29.1153 16.6119H36.097C36.7923 16.6119 37.3088 15.9677 37.1575 15.2891L36.079 10.448C35.9683 9.95109 35.5275 9.59766 35.0184 9.59766H24.252" stroke="#2D55A5" stroke-width="1.17188" stroke-miterlimit="10" stroke-linecap="round" stroke-linejoin="round"/>
<path d="M9.35742 7.0654L10.8857 6.09399" stroke="#2D55A5" stroke-width="1.17188" stroke-miterlimit="10" stroke-linecap="round" stroke-linejoin="round"/>
<path d="M30.6435 7.0654L29.1152 6.09399" stroke="#2D55A5" stroke-width="1.17188" stroke-miterlimit="10" stroke-linecap="round" stroke-linejoin="round"/>
<path d="M10.8848 22.7345V20.4324" stroke="#2D55A5" stroke-width="1.17188" stroke-miterlimit="10" stroke-linecap="round" stroke-linejoin="round"/>
<path d="M10.8848 17.6975V13.713C10.8848 13.1079 11.1941 12.5448 11.7048 12.2202L19.1716 7.47422C19.6767 7.15312 20.322 7.15312 20.8271 7.47422L28.2939 12.2202C28.8046 12.5448 29.1139 13.1079 29.1139 13.713V22.7343" stroke="#2D55A5" stroke-width="1.17188" stroke-miterlimit="10" stroke-linecap="round" stroke-linejoin="round"/>
<path d="M25.1048 22.8126V17.0725H14.8965V22.8126" stroke="#2D55A5" stroke-width="1.17188" stroke-miterlimit="10" stroke-linecap="round" stroke-linejoin="round"/>
<path d="M20 17.0725V22.7879" stroke="#2D55A5" stroke-width="1.17188" stroke-miterlimit="10" stroke-linecap="round" stroke-linejoin="round"/>
<path d="M29.4015 39.4142H36.7493C37.3592 39.4142 37.8538 38.9197 37.8538 38.3097V36.6863H2.14648V38.3097C2.14648 38.9196 2.64094 39.4142 3.25094 39.4142H26.6669" stroke="#2D55A5" stroke-width="1.17188" stroke-miterlimit="10" stroke-linecap="round" stroke-linejoin="round"/>
<path d="M34.7384 33.3335H5.26195C3.54133 33.3335 2.14648 34.7283 2.14648 36.449V36.6864H37.8538V36.449C37.8538 34.7283 36.459 33.3335 34.7384 33.3335Z" stroke="#2D55A5" stroke-width="1.17188" stroke-miterlimit="10" stroke-linecap="round" stroke-linejoin="round"/>
<path d="M0.585938 31.7708V24.4285C0.585938 23.5655 1.28547 22.866 2.14844 22.866H37.8516C38.7145 22.866 39.4141 23.5655 39.4141 24.4285V31.7708C39.4141 32.6338 38.7145 33.3333 37.8516 33.3333H2.14844C1.28547 33.3333 0.585938 32.6337 0.585938 31.7708Z" stroke="#2D55A5" stroke-width="1.17188" stroke-miterlimit="10" stroke-linecap="round" stroke-linejoin="round"/>
<path d="M33.8281 25.9927V30.2033C33.8747 30.2113 35.3038 30.2033 35.3038 30.2033" stroke="#2D55A5" stroke-width="1.17188" stroke-miterlimit="10" stroke-linecap="round" stroke-linejoin="round"/>
<path d="M15.4004 25.9927V30.2068" stroke="#2D55A5" stroke-width="1.17188" stroke-miterlimit="10" stroke-linecap="round" stroke-linejoin="round"/>
<path d="M18.3164 25.9927V30.2068" stroke="#2D55A5" stroke-width="1.17188" stroke-miterlimit="10" stroke-linecap="round" stroke-linejoin="round"/>
<path d="M15.4004 28.0273H18.3166" stroke="#2D55A5" stroke-width="1.17188" stroke-miterlimit="10" stroke-linecap="round" stroke-linejoin="round"/>
<path d="M12.9864 26.3525C12.6501 26.1253 12.2447 25.9927 11.8083 25.9927C10.6445 25.9927 9.70117 26.936 9.70117 28.0998C9.70117 29.2635 10.6445 30.2069 11.8083 30.2069C12.2809 30.2069 12.6697 30.0513 12.9647 29.7885C13.0257 29.7342 13.0827 29.6752 13.1357 29.6121" stroke="#2D55A5" stroke-width="1.17188" stroke-miterlimit="10" stroke-linecap="round" stroke-linejoin="round"/>
<path d="M7.29258 26.4259C7.29258 26.4259 6.53641 25.7903 5.64469 26.0589C4.82586 26.3055 4.71141 27.2496 5.30375 27.6358C5.30375 27.6358 5.885 27.8951 6.52977 28.1329C8.08172 28.7054 7.4132 30.2068 6.16383 30.2068C5.5382 30.2068 5.01312 29.9328 4.69531 29.5821" stroke="#2D55A5" stroke-width="1.17188" stroke-miterlimit="10" stroke-linecap="round" stroke-linejoin="round"/>
<path d="M22.7731 30.2069C23.9369 30.2069 24.8802 29.2635 24.8802 28.0998C24.8802 26.9361 23.9369 25.9927 22.7731 25.9927C21.6094 25.9927 20.666 26.9361 20.666 28.0998C20.666 29.2635 21.6094 30.2069 22.7731 30.2069Z" stroke="#2D55A5" stroke-width="1.17188" stroke-miterlimit="10" stroke-linecap="round" stroke-linejoin="round"/>
<path d="M29.3122 30.2069C30.4759 30.2069 31.4193 29.2635 31.4193 28.0998C31.4193 26.9361 30.4759 25.9927 29.3122 25.9927C28.1485 25.9927 27.2051 26.9361 27.2051 28.0998C27.2051 29.2635 28.1485 30.2069 29.3122 30.2069Z" stroke="#2D55A5" stroke-width="1.17188" stroke-miterlimit="10" stroke-linecap="round" stroke-linejoin="round"/>
</g>
<defs>
<clipPath id="clip0_106_2896">
<rect width="40" height="40" fill="white"/>
</clipPath>
</defs>
</svg>
