<svg width="156" height="47" viewBox="0 0 156 47" fill="none" xmlns="http://www.w3.org/2000/svg">
<g id="Group">
<path id="Vector" d="M154.411 41.144C154.411 42.3298 153.946 43.467 153.12 44.3051C152.293 45.1431 151.172 45.6133 150.004 45.6121H5.7933C3.35936 45.6146 1.38403 43.6144 1.38086 41.144V5.51293C1.38403 3.04159 3.35843 1.0397 5.7933 1.03906H150.003C151.172 1.03906 152.293 1.51045 153.119 2.3495C153.946 3.18854 154.41 4.32649 154.41 5.51293L154.411 41.144Z" fill="white"/>
<path id="Vector_2" d="M150.003 46.6507H5.79281C2.79478 46.6501 0.363126 44.1862 0.357422 41.1432V5.5133C0.361857 2.46889 2.79332 0.00256999 5.79281 0H150.002C153.001 0.00385207 155.432 2.46942 155.438 5.5133V41.1432C155.44 44.181 152.998 46.6507 150.003 46.6507Z" fill="#A6A6A6"/>
<path id="Vector_3" d="M154.411 41.144C154.411 42.3298 153.946 43.467 153.12 44.3051C152.293 45.1431 151.172 45.6133 150.004 45.6121H5.7933C3.35936 45.6146 1.38403 43.6144 1.38086 41.144V5.51293C1.38403 3.04159 3.35843 1.0397 5.7933 1.03906H150.003C151.172 1.03906 152.293 1.51045 153.119 2.3495C153.946 3.18854 154.41 4.32649 154.41 5.51293L154.411 41.144Z" fill="black"/>
<path id="Vector_4" d="M34.9862 23.0791C34.9529 19.3191 38.0194 17.4899 38.1596 17.4048C36.4229 14.8348 33.7311 14.4836 32.7851 14.4556C30.5243 14.2142 28.3313 15.8287 27.1796 15.8287C26.005 15.8287 24.2315 14.479 22.3201 14.5186C19.8604 14.5571 17.5594 16.0025 16.2974 18.247C13.6929 22.8236 15.6353 29.549 18.1306 33.2482C19.3789 35.0611 20.8374 37.0828 22.7465 37.0116C24.6142 36.9346 25.3119 35.8042 27.5658 35.8042C29.7991 35.8042 30.4542 37.0116 32.4012 36.9661C34.4058 36.9346 35.6678 35.1462 36.8723 33.3182C38.3148 31.2428 38.8941 29.1966 38.917 29.0917C38.8711 29.0753 35.0253 27.5844 34.9862 23.0791ZM31.3082 12.0221C32.3127 10.7471 33.0001 9.01233 32.8093 7.25195C31.3553 7.31728 29.537 8.27272 28.4899 9.5198C27.5635 10.6187 26.736 12.4199 26.9498 14.1138C28.583 14.2375 30.26 13.2774 31.3082 12.0221Z" fill="white"/>
<path id="Vector_5" d="M150.003 0H72.7598L103.015 46.6507H150.003C153.002 46.6481 155.433 44.1832 155.439 41.1397V5.5133C155.434 2.46915 153.003 0.00321045 150.003 0Z" fill="url(#paint0_linear_4291_16113)"/>
<g id="Group_2">
<path id="Vector_6" d="M62.0382 36.7528H59.428L57.9982 32.1926H53.0283L51.6663 36.7528H49.125L54.0501 21.2279H57.0913L62.0382 36.7528ZM57.5671 30.2794L56.2741 26.2255C56.1373 25.8114 55.8799 24.8361 55.5029 23.3009H55.4569C55.3052 23.9612 55.0627 24.9364 54.7305 26.2255L53.4593 30.2794H57.5671ZM74.679 31.0179C74.679 32.9217 74.1698 34.4266 73.1503 35.5314C72.2377 36.5148 71.1033 37.006 69.7505 37.006C68.2896 37.006 67.2391 36.4775 66.6012 35.4182V41.292H64.1508V29.2377C64.1508 28.0419 64.1197 26.8158 64.06 25.5582H66.215L66.3518 27.3326H66.3978C67.215 25.9957 68.4552 25.3273 70.1194 25.3273C71.4205 25.3273 72.5067 25.8487 73.3756 26.8928C74.2434 27.9392 74.679 29.3135 74.679 31.0179ZM72.1826 31.1089C72.1826 30.0193 71.9412 29.121 71.4562 28.4129C70.9263 27.6768 70.2148 27.3081 69.3229 27.3081C68.7184 27.3081 68.169 27.5134 67.6782 27.9182C67.1862 28.3266 66.8644 28.8597 66.7139 29.52C66.6466 29.7669 66.6084 30.021 66.6001 30.2771V32.1448C66.6001 32.9579 66.846 33.645 67.338 34.2073C67.8299 34.7673 68.4689 35.0484 69.2551 35.0484C70.1781 35.0484 70.8964 34.6856 71.4102 33.9658C71.9251 33.2437 72.1826 32.2918 72.1826 31.1089ZM87.3646 31.0179C87.3646 32.9217 86.8555 34.4266 85.836 35.5314C84.9222 36.5148 83.7889 37.006 82.435 37.006C80.9741 37.006 79.9236 36.4775 79.2857 35.4182V41.292H76.8352V29.2377C76.8352 28.0419 76.8042 26.8158 76.7444 25.5582H78.8995L79.0363 27.3326H79.0823C79.8983 25.9957 81.1385 25.3273 82.8039 25.3273C84.1039 25.3273 85.19 25.8487 86.0613 26.8928C86.9279 27.9392 87.3646 29.3135 87.3646 31.0179ZM84.8671 31.1089C84.8671 30.0193 84.6245 29.121 84.1395 28.4129C83.6096 27.6768 82.9005 27.3081 82.0086 27.3081C81.404 27.3081 80.8546 27.5134 80.3615 27.9182C79.8696 28.3266 79.5489 28.8597 79.3983 29.52C79.3236 29.828 79.2834 30.0788 79.2834 30.2771V32.1448C79.2834 32.9579 79.5305 33.645 80.0201 34.2073C80.5121 34.7661 81.1511 35.0484 81.9396 35.0484C82.8637 35.0484 83.5821 34.6856 84.0947 33.9658C84.6096 33.2437 84.8671 32.2918 84.8671 31.1089ZM101.548 32.3979C101.548 33.7197 101.093 34.7941 100.188 35.6236C99.1928 36.5288 97.8032 36.9826 96.0217 36.9826C94.3758 36.9826 93.0563 36.6607 92.061 36.0155L92.6276 33.9425C93.7023 34.5888 94.8827 34.9108 96.1677 34.9108C97.0918 34.9108 97.8101 34.6985 98.3228 34.2773C98.8365 33.855 99.0963 33.2904 99.0963 32.5858C99.0963 31.9546 98.8814 31.4262 98.4595 30.9957C98.0354 30.5664 97.3343 30.1663 96.3493 29.7988C93.6712 28.785 92.3311 27.3023 92.3311 25.3518C92.3311 24.0778 92.8046 23.0349 93.7494 22.2195C94.6942 21.4052 95.947 20.998 97.5056 20.998C98.8975 20.998 100.057 21.2442 100.978 21.7353L100.363 23.7629C99.4963 23.2869 98.5182 23.0489 97.424 23.0489C96.5596 23.0489 95.8815 23.2647 95.3965 23.694C94.9884 24.0778 94.7815 24.5456 94.7815 25.1009C94.7815 25.7134 95.0172 26.222 95.4861 26.621C95.893 26.9885 96.6355 27.3886 97.709 27.8179C99.0262 28.3569 99.9939 28.9845 100.613 29.7055C101.238 30.4264 101.548 31.3259 101.548 32.3979ZM109.671 27.4248H106.97V32.8599C106.97 34.2423 107.445 34.9318 108.399 34.9318C108.837 34.9318 109.2 34.8944 109.488 34.8163L109.556 36.705C109.073 36.8881 108.437 36.9803 107.65 36.9803C106.682 36.9803 105.926 36.6805 105.38 36.0809C104.836 35.4812 104.563 34.4768 104.563 33.0629V27.4201H102.954V25.5536H104.563V23.5039L106.97 22.7666V25.5536H109.671V27.4248ZM121.833 31.0634C121.833 32.7841 121.348 34.1968 120.38 35.3016C119.368 36.439 118.021 37.006 116.341 37.006C114.721 37.006 113.432 36.4612 112.472 35.3727C111.511 34.282 111.03 32.9077 111.03 31.25C111.03 29.5153 111.527 28.0944 112.516 26.9896C113.508 25.8837 114.844 25.3308 116.523 25.3308C118.141 25.3308 119.441 25.8767 120.425 26.9663C121.365 28.0232 121.833 29.3881 121.833 31.0634ZM119.293 31.1205C119.293 30.0951 119.075 29.2155 118.637 28.4794C118.123 27.5904 117.387 27.146 116.435 27.146C115.453 27.146 114.7 27.5904 114.188 28.4794C113.749 29.2155 113.53 30.1103 113.53 31.1672C113.53 32.1938 113.749 33.0757 114.188 33.8095C114.717 34.6985 115.456 35.1429 116.414 35.1429C117.351 35.1429 118.085 34.6891 118.616 33.7874C119.067 33.0337 119.293 32.1483 119.293 31.1205ZM129.802 27.7456C129.547 27.6989 129.288 27.6759 129.029 27.6768C128.167 27.6768 127.501 28.0057 127.032 28.6684C126.625 29.2517 126.42 29.9889 126.42 30.879V36.7528H123.97V29.0837C123.972 27.9085 123.948 26.7335 123.899 25.5594H126.033L126.123 27.7013H126.19C126.45 26.9651 126.857 26.3714 127.416 25.9269C127.927 25.5385 128.548 25.3282 129.187 25.3273C129.413 25.3273 129.618 25.3436 129.799 25.3728L129.802 27.7456ZM140.761 30.6259C140.767 31.004 140.737 31.3818 140.671 31.754H133.32C133.348 32.8599 133.704 33.7069 134.387 34.2902C135.006 34.8104 135.807 35.0718 136.791 35.0718C137.88 35.0718 138.873 34.8968 139.766 34.5433L140.15 36.2687C139.106 36.7307 137.874 36.9605 136.452 36.9605C134.742 36.9605 133.399 36.4495 132.422 35.4299C131.448 34.4091 130.959 33.0372 130.959 31.3189C130.959 29.632 131.413 28.2262 132.322 27.1051C133.274 25.9082 134.56 25.3098 136.179 25.3098C137.768 25.3098 138.971 25.9082 139.789 27.1051C140.436 28.0536 140.761 29.2295 140.761 30.6259ZM138.424 29.9808C138.442 29.2423 138.281 28.6065 137.949 28.0687C137.524 27.3758 136.872 27.0305 135.997 27.0305C135.196 27.0305 134.543 27.3676 134.046 28.0442C133.638 28.582 133.396 29.2283 133.321 29.9784L138.424 29.9808Z" fill="white"/>
</g>
<g id="Group_3">
<path id="Vector_7" d="M52.3225 15.7383C51.641 15.7383 51.0513 15.7045 50.5605 15.6473V8.1415C51.247 8.03387 51.9406 7.98083 52.6352 7.98284C55.4454 7.98284 56.7396 9.38625 56.7396 11.6739C56.7396 14.3128 55.2109 15.7383 52.3225 15.7383ZM52.734 8.94528C52.3547 8.94528 52.0317 8.96861 51.7639 9.02461V14.7304C51.9088 14.7537 52.1869 14.7642 52.5777 14.7642C54.419 14.7642 55.4672 13.7003 55.4672 11.7078C55.4672 9.93104 54.519 8.94528 52.734 8.94528ZM60.7727 15.7955C59.1889 15.7955 58.1625 14.5951 58.1625 12.9653C58.1625 11.2668 59.2107 10.0559 60.8624 10.0559C62.4232 10.0559 63.4726 11.1991 63.4726 12.8755C63.4726 14.5951 62.391 15.7955 60.7727 15.7955ZM60.8187 10.9495C59.9486 10.9495 59.3912 11.7754 59.3912 12.9303C59.3912 14.0631 59.9601 14.889 60.8072 14.889C61.6543 14.889 62.2232 14.0059 62.2232 12.907C62.2232 11.7871 61.6658 10.9495 60.8187 10.9495ZM72.5044 10.169L70.809 15.6707H69.7045L69.0022 13.2815C68.8276 12.6971 68.6822 12.1041 68.5666 11.5048H68.5436C68.4551 12.1044 68.2873 12.7052 68.1092 13.2815L67.3621 15.6707H66.246L64.6507 10.169H65.8886L66.5023 12.7845C66.6472 13.4075 66.769 13.9954 66.8701 14.5507H66.8931C66.9816 14.0876 67.1265 13.509 67.3391 12.7962L68.1092 10.1702H69.0907L69.8275 12.7402C70.0056 13.3631 70.1505 13.9744 70.2631 14.5519H70.2953C70.3734 13.9861 70.4964 13.3853 70.6631 12.7402L71.3217 10.1702L72.5044 10.169ZM78.7455 15.6707H77.5409V12.5115C77.5409 11.5386 77.1731 11.051 76.4479 11.051C75.7341 11.051 75.2433 11.6739 75.2433 12.3984V15.6707H74.0388V11.7416C74.0388 11.2551 74.0273 10.7337 73.994 10.1679H75.0537L75.11 11.0171H75.1433C75.4675 10.4292 76.1249 10.0559 76.8616 10.0559C77.9995 10.0559 78.7466 10.939 78.7466 12.3762L78.7455 15.6707ZM82.0671 15.6707H80.8615V7.64453H82.0671V15.6707ZM86.4589 15.7955C84.8762 15.7955 83.8487 14.5951 83.8487 12.9653C83.8487 11.2668 84.8969 10.0559 86.5474 10.0559C88.1094 10.0559 89.1576 11.1991 89.1576 12.8755C89.1588 14.5951 88.0761 15.7955 86.4589 15.7955ZM86.5037 10.9495C85.6337 10.9495 85.0762 11.7754 85.0762 12.9303C85.0762 14.0631 85.6463 14.889 86.4911 14.889C87.3393 14.889 87.9071 14.0059 87.9071 12.907C87.9083 11.7871 87.352 10.9495 86.5037 10.9495ZM93.9068 15.6707L93.8195 15.0372H93.7873C93.4195 15.547 92.8827 15.7955 92.2023 15.7955C91.2311 15.7955 90.5415 15.1049 90.5415 14.1763C90.5415 12.8184 91.7012 12.1161 93.7092 12.1161V12.0146C93.7092 11.2901 93.331 10.9273 92.5839 10.9273C92.0495 10.9273 91.5805 11.0638 91.1679 11.3356L90.9231 10.5318C91.4242 10.2145 92.0495 10.0559 92.7839 10.0559C94.1999 10.0559 94.9148 10.8142 94.9148 12.3319V14.3582C94.9148 14.9135 94.939 15.344 94.993 15.6718L93.9068 15.6707ZM93.7413 12.9303C92.4035 12.9303 91.7322 13.2593 91.7322 14.0398C91.7322 14.6172 92.0782 14.8995 92.5586 14.8995C93.1712 14.8995 93.7413 14.4247 93.7413 13.7796V12.9303ZM100.764 15.6707L100.708 14.7876H100.674C100.328 15.4548 99.7468 15.7955 98.9342 15.7955C97.6274 15.7955 96.6596 14.6289 96.6596 12.9875C96.6596 11.2668 97.663 10.0547 99.033 10.0547C99.7583 10.0547 100.272 10.3032 100.562 10.8025H100.586V7.64453H101.792V14.1879C101.792 14.7199 101.804 15.218 101.836 15.6707H100.764ZM100.586 12.4334C100.586 11.6634 100.084 11.0066 99.3169 11.0066C98.4239 11.0066 97.8779 11.8104 97.8779 12.942C97.8779 14.0514 98.4446 14.8109 99.2928 14.8109C100.05 14.8109 100.586 14.1424 100.586 13.3503V12.4334ZM109.436 15.7955C107.853 15.7955 106.827 14.5951 106.827 12.9653C106.827 11.2668 107.875 10.0559 109.526 10.0559C111.088 10.0559 112.136 11.1991 112.136 12.8755C112.137 14.5951 111.055 15.7955 109.436 15.7955ZM109.481 10.9495C108.612 10.9495 108.054 11.7754 108.054 12.9303C108.054 14.0631 108.623 14.889 109.469 14.889C110.318 14.889 110.885 14.0059 110.885 12.907C110.888 11.7871 110.33 10.9495 109.481 10.9495ZM118.614 15.6707H117.408V12.5115C117.408 11.5386 117.04 11.051 116.315 11.051C115.601 11.051 115.112 11.6739 115.112 12.3984V15.6707H113.906V11.7416C113.906 11.2551 113.894 10.7337 113.861 10.1679H114.921L114.977 11.0171H115.01C115.333 10.4292 115.992 10.0547 116.728 10.0547C117.866 10.0547 118.614 10.9378 118.614 12.375V15.6707ZM126.718 11.086H125.393V13.7575C125.393 14.4376 125.625 14.7771 126.094 14.7771C126.307 14.7771 126.485 14.7537 126.628 14.7199L126.662 15.6485C126.428 15.7395 126.116 15.785 125.727 15.785C124.778 15.785 124.21 15.253 124.21 13.8601V11.086H123.419V10.169H124.21V9.1611L125.393 8.79829V10.1679H126.718V11.086ZM133.095 15.6707H131.891V12.5349C131.891 11.5503 131.525 11.0521 130.798 11.0521C130.174 11.0521 129.593 11.4826 129.593 12.354V15.6707H128.389V7.64453H129.593V10.9495H129.617C129.996 10.3498 130.545 10.0547 131.247 10.0547C132.394 10.0547 133.095 10.96 133.095 12.3984V15.6707ZM139.628 13.2138H136.013C136.036 14.2556 136.715 14.8435 137.721 14.8435C138.255 14.8435 138.747 14.7526 139.182 14.5834L139.369 15.4327C138.857 15.659 138.253 15.7722 137.551 15.7722C135.855 15.7722 134.852 14.6849 134.852 12.9992C134.852 11.3123 135.88 10.0442 137.415 10.0442C138.8 10.0442 139.669 11.086 139.669 12.6597C139.677 12.8454 139.663 13.0314 139.628 13.2138ZM138.523 12.3424C138.523 11.4931 138.101 10.8935 137.331 10.8935C136.639 10.8935 136.092 11.5048 136.014 12.3424H138.523Z" fill="white"/>
</g>
</g>
<defs>
<linearGradient id="paint0_linear_4291_16113" x1="114.098" y1="46.7746" x2="114.098" y2="-121.47" gradientUnits="userSpaceOnUse">
<stop stop-color="#1A1A1A" stop-opacity="0.1"/>
<stop offset="0.123" stop-color="#212121" stop-opacity="0.151"/>
<stop offset="0.308" stop-color="#353535" stop-opacity="0.227"/>
<stop offset="0.532" stop-color="#575757" stop-opacity="0.318"/>
<stop offset="0.783" stop-color="#858585" stop-opacity="0.421"/>
<stop offset="1" stop-color="#B3B3B3" stop-opacity="0.51"/>
</linearGradient>
</defs>
</svg>
