<svg xmlns="http://www.w3.org/2000/svg" width="18" height="18" viewBox="0 0 18 18" fill="none">
  <path d="M13.215 8.0627C12.8925 8.0627 12.6375 7.80019 12.6375 7.48519C12.6375 7.20769 12.36 6.6302 11.895 6.1277C11.4375 5.6402 10.935 5.3552 10.515 5.3552C10.1925 5.3552 9.9375 5.0927 9.9375 4.7777C9.9375 4.4627 10.2 4.2002 10.515 4.2002C11.265 4.2002 12.0525 4.6052 12.7425 5.3327C13.3875 6.0152 13.8 6.8627 13.8 7.4777C13.8 7.8002 13.5375 8.0627 13.215 8.0627Z" fill="white"/>
  <path d="M15.9228 8.0625C15.6003 8.0625 15.3453 7.8 15.3453 7.485C15.3453 4.8225 13.1778 2.6625 10.5228 2.6625C10.2003 2.6625 9.94531 2.4 9.94531 2.085C9.94531 1.77 10.2003 1.5 10.5153 1.5C13.8153 1.5 16.5003 4.185 16.5003 7.485C16.5003 7.8 16.2378 8.0625 15.9228 8.0625Z" fill="white"/>
  <path d="M8.2875 11.2125L6.9 12.6C6.6075 12.8925 6.1425 12.8925 5.8425 12.6075C5.76 12.525 5.6775 12.45 5.595 12.3675C4.8225 11.5875 4.125 10.77 3.5025 9.915C2.8875 9.06 2.3925 8.205 2.0325 7.3575C1.68 6.5025 1.5 5.685 1.5 4.905C1.5 4.395 1.59 3.9075 1.77 3.4575C1.95 3 2.235 2.58 2.6325 2.205C3.1125 1.7325 3.6375 1.5 4.1925 1.5C4.4025 1.5 4.6125 1.545 4.8 1.635C4.995 1.725 5.1675 1.86 5.3025 2.055L7.0425 4.5075C7.1775 4.695 7.275 4.8675 7.3425 5.0325C7.41 5.19 7.4475 5.3475 7.4475 5.49C7.4475 5.67 7.395 5.85 7.29 6.0225C7.1925 6.195 7.05 6.375 6.87 6.555L6.3 7.1475C6.2175 7.23 6.18 7.3275 6.18 7.4475C6.18 7.5075 6.1875 7.56 6.2025 7.62C6.225 7.68 6.2475 7.725 6.2625 7.77C6.3975 8.0175 6.63 8.34 6.96 8.73C7.2975 9.12 7.6575 9.5175 8.0475 9.915C8.1225 9.99 8.205 10.065 8.28 10.14C8.58 10.4325 8.5875 10.9125 8.2875 11.2125Z" fill="white"/>
  <path d="M16.4767 13.7473C16.4767 13.9573 16.4392 14.1748 16.3642 14.3848C16.3417 14.4448 16.3192 14.5048 16.2892 14.5648C16.1617 14.8348 15.9967 15.0898 15.7792 15.3298C15.4117 15.7348 15.0067 16.0273 14.5492 16.2148C14.5417 16.2148 14.5342 16.2223 14.5267 16.2223C14.0842 16.4023 13.6042 16.4998 13.0867 16.4998C12.3217 16.4998 11.5042 16.3198 10.6417 15.9523C9.77922 15.5848 8.91672 15.0898 8.06172 14.4673C7.76922 14.2498 7.47672 14.0323 7.19922 13.7998L9.65172 11.3473C9.86172 11.5048 10.0492 11.6248 10.2067 11.7073C10.2442 11.7223 10.2892 11.7448 10.3417 11.7673C10.4017 11.7898 10.4617 11.7973 10.5292 11.7973C10.6567 11.7973 10.7542 11.7523 10.8367 11.6698L11.4067 11.1073C11.5942 10.9198 11.7742 10.7773 11.9467 10.6873C12.1192 10.5823 12.2917 10.5298 12.4792 10.5298C12.6217 10.5298 12.7717 10.5598 12.9367 10.6273C13.1017 10.6948 13.2742 10.7923 13.4617 10.9198L15.9442 12.6823C16.1392 12.8173 16.2742 12.9748 16.3567 13.1623C16.4317 13.3498 16.4767 13.5373 16.4767 13.7473Z" fill="white"/>
</svg>