<svg width="18" height="18" viewBox="0 0 18 18" fill="none" xmlns="http://www.w3.org/2000/svg">
<path d="M12.5607 2.67012V1.50012C12.5607 1.19262 12.3057 0.937622 11.9982 0.937622C11.6907 0.937622 11.4357 1.19262 11.4357 1.50012V2.62512H6.56072V1.50012C6.56072 1.19262 6.30572 0.937622 5.99822 0.937622C5.69072 0.937622 5.43572 1.19262 5.43572 1.50012V2.67012C3.41072 2.85762 2.42822 4.06512 2.27822 5.85762C2.26322 6.07512 2.44322 6.25512 2.65322 6.25512H15.3432C15.5607 6.25512 15.7407 6.06762 15.7182 5.85762C15.5682 4.06512 14.5857 2.85762 12.5607 2.67012Z" fill="white"/>
<path d="M15 7.38025H3C2.5875 7.38025 2.25 7.71775 2.25 8.13025V12.7502C2.25 15.0002 3.375 16.5002 6 16.5002H12C14.625 16.5002 15.75 15.0002 15.75 12.7502V8.13025C15.75 7.71775 15.4125 7.38025 15 7.38025ZM6.9075 13.6577C6.8325 13.7252 6.75 13.7777 6.66 13.8152C6.57 13.8527 6.4725 13.8752 6.375 13.8752C6.2775 13.8752 6.18 13.8527 6.09 13.8152C6 13.7777 5.9175 13.7252 5.8425 13.6577C5.7075 13.5152 5.625 13.3202 5.625 13.1252C5.625 12.9302 5.7075 12.7352 5.8425 12.5928C5.9175 12.5252 6 12.4727 6.09 12.4352C6.27 12.3602 6.48 12.3602 6.66 12.4352C6.75 12.4727 6.8325 12.5252 6.9075 12.5928C7.0425 12.7352 7.125 12.9302 7.125 13.1252C7.125 13.3202 7.0425 13.5152 6.9075 13.6577ZM7.065 10.7852C7.0275 10.8752 6.975 10.9577 6.9075 11.0327C6.8325 11.1002 6.75 11.1527 6.66 11.1902C6.57 11.2277 6.4725 11.2502 6.375 11.2502C6.2775 11.2502 6.18 11.2277 6.09 11.1902C6 11.1527 5.9175 11.1002 5.8425 11.0327C5.775 10.9577 5.7225 10.8752 5.685 10.7852C5.6475 10.6952 5.625 10.5977 5.625 10.5002C5.625 10.4027 5.6475 10.3052 5.685 10.2152C5.7225 10.1252 5.775 10.0427 5.8425 9.96775C5.9175 9.90025 6 9.84775 6.09 9.81025C6.27 9.73525 6.48 9.73525 6.66 9.81025C6.75 9.84775 6.8325 9.90025 6.9075 9.96775C6.975 10.0427 7.0275 10.1252 7.065 10.2152C7.1025 10.3052 7.125 10.4027 7.125 10.5002C7.125 10.5977 7.1025 10.6952 7.065 10.7852ZM9.5325 11.0327C9.4575 11.1002 9.375 11.1527 9.285 11.1902C9.195 11.2277 9.0975 11.2502 9 11.2502C8.9025 11.2502 8.805 11.2277 8.715 11.1902C8.625 11.1527 8.5425 11.1002 8.4675 11.0327C8.3325 10.8902 8.25 10.6952 8.25 10.5002C8.25 10.3052 8.3325 10.1102 8.4675 9.96775C8.5425 9.90025 8.625 9.84775 8.715 9.81025C8.895 9.72775 9.105 9.72775 9.285 9.81025C9.375 9.84775 9.4575 9.90025 9.5325 9.96775C9.6675 10.1102 9.75 10.3052 9.75 10.5002C9.75 10.6952 9.6675 10.8902 9.5325 11.0327Z" fill="white"/>
</svg>
