<svg width="25" height="24" viewBox="0 0 25 24" fill="none" xmlns="http://www.w3.org/2000/svg">
<g id="Frame">
<path id="Vector" fill-rule="evenodd" clip-rule="evenodd" d="M14.435 1.63324C13.3174 0.689959 11.6826 0.689961 10.565 1.63324L9.54719 2.49231C9.07218 2.89323 8.48438 3.13672 7.865 3.1891L6.53786 3.30133C5.08061 3.42457 3.92457 4.58061 3.80133 6.03786L3.6891 7.365C3.63672 7.98438 3.39323 8.57218 2.99231 9.0472L2.13324 10.065C1.18996 11.1826 1.18996 12.8174 2.13324 13.935L2.99231 14.9528C3.39323 15.4278 3.63672 16.0156 3.6891 16.635L3.80133 17.9622C3.92457 19.4194 5.08061 20.5755 6.53786 20.6986L7.865 20.8108C8.48438 20.8633 9.07218 21.1068 9.5472 21.5077L10.565 22.3668C11.6826 23.31 13.3174 23.31 14.435 22.3668L15.4528 21.5077C15.9278 21.1068 16.5156 20.8633 17.135 20.8108L18.4622 20.6986C19.9194 20.5755 21.0755 19.4194 21.1986 17.9622L21.3108 16.635C21.3633 16.0156 21.6068 15.4278 22.0077 14.9528L22.8668 13.935C23.81 12.8174 23.81 11.1826 22.8668 10.065L22.0077 9.04719C21.6068 8.57218 21.3633 7.98438 21.3108 7.365L21.1986 6.03786C21.0755 4.58061 19.9194 3.42457 18.4622 3.30133L17.135 3.1891C16.5156 3.13672 15.9278 2.89323 15.4528 2.49231L14.435 1.63324ZM17.9552 9.95466C18.4824 9.42745 18.4824 8.57268 17.9552 8.04547C17.4281 7.51825 16.5732 7.51825 16.046 8.04547L11.0006 13.0909L8.95524 11.0455C8.42804 10.5183 7.57326 10.5183 7.04606 11.0455C6.51884 11.5727 6.51884 12.4275 7.04606 12.9547L10.0461 15.9546C10.5733 16.4818 11.428 16.4818 11.9552 15.9546L17.9552 9.95466Z" fill="#1FA8DF"/>
</g>
</svg>
