<svg width="64" height="64" viewBox="0 0 64 64" fill="none" xmlns="http://www.w3.org/2000/svg">
<path d="M2.05271 57.4158C2.05271 56.1208 2.05271 54.8931 2.05271 53.6486C2.05271 52.5723 2.35557 52.3369 3.38193 52.5723C3.58383 52.6228 3.78574 52.6564 4.05495 52.7068C4.05495 51.6305 4.05495 50.5878 4.05495 49.5451C4.05495 48.5529 4.40828 48.2838 5.33368 48.5529C9.22037 49.6796 13.0398 49.4442 16.7919 47.9474C18.2557 47.3756 19.7195 46.7365 21.2506 46.4843C24.8344 45.9125 27.8462 47.1738 30.2354 49.8815C30.3364 49.9824 30.4205 50.1001 30.6392 50.1674C30.5551 49.9824 30.4878 49.7974 30.4037 49.6124C28.4519 45.6266 23.8249 43.8271 19.6185 45.3743C17.9023 45.9966 16.203 46.6693 14.4363 47.1065C11.9125 47.7288 9.35498 47.5606 6.84798 46.8543C6.34321 46.7197 5.98988 46.4674 6.09083 45.8956C6.17496 45.4079 6.61242 45.2398 7.25179 45.4079C10.4991 46.2825 13.6791 46.0638 16.8087 44.8529C18.2725 44.2811 19.7531 43.6925 21.2843 43.4403C25.5748 42.7507 29.697 44.9539 31.6824 48.8219C31.7665 49.0069 31.8675 49.1751 32.0021 49.4274C32.1367 49.1751 32.2377 48.9901 32.3218 48.8219C34.6605 44.2811 39.9269 42.2126 44.7558 43.9111C46.5562 44.5502 48.3397 45.2398 50.1736 45.6938C52.3946 46.2488 54.6324 46.0134 56.8365 45.4079C57.4759 45.2398 57.9807 45.5593 57.947 46.1143C57.9134 46.5852 57.5769 46.7702 57.1562 46.8711C53.707 47.8129 50.3251 47.6279 46.96 46.3834C45.4289 45.8284 43.8977 45.1893 42.2993 44.9034C38.7491 44.2643 34.7615 46.6356 33.4491 49.9655C33.4154 50.0328 33.4154 50.1169 33.3818 50.3019C33.7856 49.8646 34.0716 49.4946 34.425 49.1751C37.4872 46.3665 40.9869 45.6266 44.9073 47.0056C46.6235 47.6111 48.306 48.351 50.0559 48.8051C52.8994 49.5451 55.7597 49.3769 58.5696 48.5697C59.6296 48.267 59.9493 48.5024 59.9493 49.6292C59.9493 50.6383 59.9493 51.6305 59.9493 52.7068C60.2858 52.6396 60.555 52.5723 60.841 52.5218C61.5982 52.3705 61.9515 52.6564 61.9683 53.43C61.9683 54.725 61.9683 56.0199 61.9683 57.4158C62.3385 57.4158 62.6918 57.4158 63.0452 57.4158C63.7014 57.4326 63.9706 57.6849 63.9874 58.324C64.0042 59.2321 64.0042 60.1235 63.9874 61.0316C63.9874 61.6875 63.7182 61.9398 63.062 61.9566C61.5645 61.9734 60.0839 61.9566 58.5864 61.9566C52.7311 61.9566 46.8758 61.9734 41.0206 61.9566C38.7323 61.9566 36.6291 62.478 34.6774 63.6888C34.3913 63.857 34.0212 63.9579 33.6847 63.9747C32.5573 64.0084 31.4132 64.0084 30.2859 63.9747C29.9662 63.9579 29.6129 63.8738 29.3437 63.7057C27.3919 62.4948 25.2887 61.9566 23.0005 61.9734C15.7318 61.9902 8.48005 61.9734 1.21144 61.9734C0.18508 61.9734 0 61.7884 0 60.7794C0 60.0394 0 59.3162 0 58.5762C0 57.6513 0.201905 57.4495 1.16096 57.4495C1.44699 57.4158 1.69938 57.4158 2.05271 57.4158ZM60.4877 54.2036C60.2353 54.2541 60.0166 54.2877 59.7978 54.3213C57.2067 54.8427 54.5988 54.91 51.974 54.5568C49.5343 54.2373 47.2628 53.3796 44.9746 52.5891C40.5663 51.0755 36.6291 51.9164 33.2135 55.0781C33.0621 55.2127 32.8434 55.3977 32.8434 55.5659C32.8097 56.6758 32.8266 57.8026 32.8266 58.963C32.9948 58.9126 33.0789 58.9126 33.1631 58.879C35.771 57.8194 38.4799 57.399 41.273 57.4158C47.4479 57.4326 53.6229 57.4158 59.781 57.4158C60.0166 57.4158 60.2689 57.4158 60.5045 57.4158C60.4877 56.289 60.4877 55.2631 60.4877 54.2036ZM31.2786 58.9462C31.2786 57.8363 31.2954 56.7599 31.2618 55.7004C31.2618 55.5154 31.1272 55.3136 30.9757 55.1791C28.8221 53.0768 26.2478 51.9837 23.236 51.8828C21.3179 51.8155 19.5512 52.3873 17.8014 53.06C15.1598 54.0859 12.434 54.7754 9.59054 54.7586C7.5883 54.7418 5.58607 54.5232 3.56701 54.3886C3.56701 55.2968 3.56701 56.3227 3.56701 57.4158C3.81939 57.4158 4.05494 57.4158 4.27368 57.4158C10.5832 57.4158 16.9096 57.3654 23.2192 57.4495C24.969 57.4663 26.7189 57.7858 28.4519 58.0717C29.4278 58.2399 30.3196 58.6267 31.2786 58.9462ZM62.4899 58.9294C62.1871 58.9294 61.9515 58.9294 61.6991 58.9294C54.8511 58.9294 48.02 58.9462 41.172 58.9294C38.1939 58.9126 35.3335 59.4508 32.6415 60.7457C32.204 60.9644 31.8338 60.9475 31.3964 60.7289C28.8053 59.4844 26.0627 58.9126 23.1855 58.9294C16.2198 58.9462 9.25403 58.9294 2.28827 58.9294C2.06954 58.9294 1.83398 58.9294 1.59842 58.9294C1.59842 59.4676 1.59842 59.9385 1.59842 60.443C1.88446 60.443 2.13684 60.443 2.38922 60.443C9.28768 60.443 16.203 60.443 23.1014 60.443C24.969 60.443 26.8367 60.6448 28.4687 61.553C29.9494 62.3939 31.4469 62.562 33.0453 62.4611C33.1631 62.4611 33.2977 62.478 33.4154 62.4611C33.6678 62.4107 33.9539 62.3771 34.1726 62.2425C36.2926 60.998 38.564 60.443 41.0206 60.443C47.919 60.4598 54.8343 60.443 61.7328 60.443C61.9852 60.443 62.2207 60.443 62.4899 60.443C62.4899 59.9217 62.4899 59.4676 62.4899 58.9294ZM58.4686 53.0096C58.4686 52.0341 58.4686 51.1428 58.4686 50.2346C58.3172 50.2514 58.1826 50.2683 58.0648 50.2851C55.1708 50.9578 52.2768 50.9914 49.4165 50.201C47.7003 49.7301 46.0682 49.0238 44.4025 48.4015C40.6168 46.972 36.3263 48.4351 34.2735 51.8828C34.1894 52.0173 34.1389 52.1687 33.9875 52.4714C34.2567 52.3032 34.3745 52.2528 34.4755 52.1855C36.9825 50.7223 39.6914 50.016 42.5517 50.5037C44.2679 50.8064 45.9505 51.3782 47.5993 51.95C51.1327 53.1609 54.7334 53.5814 58.4686 53.0096ZM30.0503 52.4546C29.9999 52.2528 29.9999 52.2023 29.983 52.1519C28.5192 49.2928 24.8849 47.3588 21.7049 47.9474C20.1738 48.2333 18.6931 48.8388 17.2461 49.4106C13.9652 50.6887 10.6001 51.1092 7.11719 50.5205C6.62925 50.4364 6.14131 50.3355 5.61972 50.2346C5.61972 51.1764 5.61972 52.1014 5.61972 53.1609C7.30227 53.1777 8.96799 53.2618 10.6169 53.1946C13.3763 53.0768 15.9506 52.1855 18.5081 51.2269C20.4766 50.4869 22.5125 50.2178 24.6325 50.4869C26.5506 50.7055 28.3173 51.3614 30.0503 52.4546Z" fill="#2D55A5"/>
<path d="M35.8389 38.664C35.7043 40.8167 34.6779 41.7921 32.5916 41.7921C32.07 41.7921 31.5484 41.8089 31.01 41.7921C29.4957 41.7585 28.3347 40.6485 28.2674 39.1349C28.2506 38.8154 28.1833 38.6304 27.8468 38.479C26.7868 37.9745 26.2484 37.0999 26.2315 35.9227C26.1979 34.1064 26.2484 32.2732 26.1138 30.4569C25.9623 28.3547 25.0874 26.4879 23.7582 24.8566C21.9747 22.6703 21.0998 20.1645 21.2175 17.3391C21.4194 11.9574 25.7604 7.48386 31.1951 7.0466C36.596 6.60933 41.5764 10.3597 42.6196 15.6237C43.2758 18.9199 42.5859 21.9303 40.4996 24.5707C38.6488 26.9084 37.7233 29.5151 37.8075 32.4919C37.8411 33.4841 37.7738 34.4596 37.8243 35.4518C37.9084 36.9822 37.3195 38.0922 35.8389 38.664ZM36.2595 32.1892C36.3437 31.3483 36.3773 30.541 36.5119 29.7338C36.8821 27.5306 37.7738 25.5798 39.1872 23.8475C40.9034 21.7285 41.6437 19.3067 41.2735 16.5655C40.7688 12.8487 38.0767 9.82153 34.4255 8.82928C30.8417 7.87067 26.9719 9.18245 24.7004 12.1256C21.9915 15.6237 22.0756 20.2654 24.936 23.8644C26.1811 25.4284 27.0728 27.1775 27.4766 29.1451C27.6785 30.1374 27.7458 31.1633 27.8636 32.1723C28.4693 32.1723 29.0919 32.1723 29.7144 32.1723C29.7312 32.0714 29.7312 32.0042 29.7312 31.9537C29.5966 26.9588 28.9573 22.048 27.3588 17.2886C27.2242 16.8682 27.2074 16.4982 27.5944 16.2291C27.9646 15.9768 28.3011 16.1282 28.6207 16.3805C29.5966 17.1204 30.5725 17.8268 31.5316 18.5836C31.8849 18.8527 32.1205 18.9031 32.4906 18.6004C33.4328 17.8436 34.4256 17.1373 35.4014 16.3973C35.7379 16.145 36.0913 15.96 36.4783 16.2459C36.8652 16.5318 36.7979 16.9018 36.697 17.3222C36.0576 19.9963 35.3341 22.6367 34.8798 25.3443C34.5097 27.5811 34.4592 29.8683 34.2573 32.1892C35.0313 32.1892 35.637 32.1892 36.2595 32.1892ZM29.5966 19.004C30.6735 23.3598 31.1277 27.7493 31.2287 32.1892C31.8176 32.1892 32.3055 32.1892 32.8608 32.1892C32.9449 27.7324 33.416 23.343 34.5602 19.0377C33.8871 19.4581 33.2814 19.8954 32.6925 20.3663C32.2382 20.7194 31.8512 20.7363 31.397 20.3663C30.8081 19.8786 30.2023 19.4413 29.5966 19.004ZM27.7627 33.7532C27.7627 34.5605 27.7458 35.2836 27.7627 36.0236C27.7963 36.7468 28.2842 37.2513 29.0246 37.2513C31.0436 37.2681 33.0459 37.2681 35.0649 37.2513C35.7211 37.2513 36.2427 36.814 36.2932 36.2086C36.3437 35.4014 36.31 34.5941 36.31 33.77C33.4328 33.7532 30.6398 33.7532 27.7627 33.7532ZM34.2741 38.8154C32.7766 38.8154 31.2792 38.8154 29.7985 38.8154C29.7985 39.774 30.2528 40.2617 31.1278 40.2953C31.7335 40.3121 32.3392 40.3121 32.9449 40.2953C33.8367 40.2617 34.2909 39.7571 34.2741 38.8154Z" fill="#2D55A5"/>
<path d="M22.7129 2.85907C22.8307 2.74134 22.9989 2.42181 23.2177 2.37135C23.47 2.3209 23.9075 2.40499 24.0421 2.58998C24.631 3.49814 25.1862 4.43994 25.6742 5.41537C25.7751 5.61718 25.5732 6.08808 25.3713 6.25626C25.2031 6.3908 24.631 6.37398 24.5469 6.22262C23.9075 5.23037 23.3354 4.17085 22.7465 3.14497C22.7129 3.09452 22.7297 3.04406 22.7129 2.85907Z" fill="#2D55A5"/>
<path d="M41.5259 3.04402C40.8024 4.17081 40.1462 5.24714 39.4227 6.28984C39.3386 6.40757 38.8002 6.35712 38.6487 6.22257C38.4636 6.0544 38.3122 5.60032 38.4132 5.41532C38.9011 4.43989 39.4564 3.4981 40.0452 2.58994C40.163 2.40494 40.6173 2.32085 40.8697 2.38812C41.0884 2.42176 41.2567 2.7413 41.5259 3.04402Z" fill="#2D55A5"/>
<path d="M19.9553 11.5874C19.7534 11.5538 19.6861 11.5706 19.6356 11.5369C18.6597 10.982 17.6502 10.4438 16.708 9.82153C16.5397 9.70381 16.4556 9.132 16.5902 8.96383C16.7416 8.7452 17.2464 8.54338 17.4651 8.64429C18.441 9.11519 19.3832 9.67017 20.2918 10.2756C20.4769 10.3933 20.5442 10.8474 20.4937 11.0997C20.4264 11.3015 20.1067 11.4697 19.9553 11.5874Z" fill="#2D55A5"/>
<path d="M44.1325 11.5875C43.9979 11.4866 43.6782 11.3352 43.6109 11.1166C43.5436 10.8643 43.594 10.4102 43.7623 10.2925C44.6877 9.68707 45.6468 9.11526 46.6395 8.62755C46.8245 8.52664 47.3125 8.72845 47.4639 8.93027C47.5985 9.09845 47.5649 9.65343 47.4134 9.75434C46.4376 10.3934 45.4112 10.9652 44.3848 11.537C44.3848 11.5707 44.3344 11.5538 44.1325 11.5875Z" fill="#2D55A5"/>
<path d="M17.0453 27.1944C16.9107 27.0766 16.591 26.8916 16.5405 26.6562C16.4732 26.4207 16.591 25.9667 16.7929 25.8489C17.6846 25.2603 18.61 24.7222 19.5691 24.2513C19.771 24.1504 20.2758 24.3185 20.4104 24.5035C20.545 24.7053 20.5281 25.2771 20.3767 25.378C19.4008 26.0171 18.3576 26.5721 17.3481 27.1607C17.2976 27.1944 17.2472 27.1775 17.0453 27.1944Z" fill="#2D55A5"/>
<path d="M47.0095 27.2112C46.8076 27.1776 46.7403 27.1944 46.6898 27.1608C45.6971 26.589 44.6876 26.034 43.7117 25.3949C43.5603 25.294 43.5098 24.7558 43.6276 24.5708C43.779 24.3522 44.2501 24.1336 44.4352 24.2176C45.4279 24.7054 46.387 25.2603 47.3292 25.8658C47.5143 25.9835 47.5816 26.4376 47.5143 26.6899C47.4806 26.9253 47.1609 27.0767 47.0095 27.2112Z" fill="#2D55A5"/>
<path d="M32.7909 2.30403C32.7909 2.7413 32.7909 3.17856 32.7909 3.63264C32.7909 4.15399 32.5555 4.50716 32.0173 4.50716C31.5128 4.50716 31.2773 4.1708 31.2773 3.66627C31.2773 2.72448 31.2773 1.78268 31.2773 0.840888C31.2773 0.353173 31.5128 0.0168178 32.0173 0C32.5555 0 32.7909 0.353173 32.7909 0.857706C32.7909 1.34542 32.7909 1.83314 32.7909 2.30403Z" fill="#2D55A5"/>
<path d="M16.422 18.6172C15.9677 18.6172 15.4966 18.6172 15.0423 18.6172C14.5207 18.6172 14.1673 18.3818 14.1842 17.8436C14.1842 17.3391 14.5207 17.1036 15.0254 17.1036C15.9677 17.1036 16.9099 17.1036 17.8521 17.1036C18.3401 17.1036 18.6766 17.3391 18.6934 17.8436C18.6934 18.3818 18.3401 18.6172 17.8185 18.6172C17.3474 18.6172 16.8762 18.6172 16.422 18.6172Z" fill="#2D55A5"/>
<path d="M47.6667 18.6172C47.2124 18.6172 46.7413 18.6172 46.287 18.6172C45.7654 18.6172 45.4121 18.3986 45.4121 17.8436C45.4121 17.3391 45.7486 17.1036 46.2366 17.1036C47.1788 17.1036 48.121 17.1036 49.0632 17.1036C49.5512 17.1036 49.8877 17.3391 49.9045 17.8436C49.9045 18.3818 49.5512 18.6172 49.0464 18.6172C48.5921 18.6172 48.121 18.6172 47.6667 18.6172Z" fill="#2D55A5"/>
</svg>
