<svg width="16" height="16" viewBox="0 0 16 16" fill="none" xmlns="http://www.w3.org/2000/svg">
<g id="Frame" clip-path="url(#clip0_2423_14988)">
<g id="Group">
<path id="Vector" d="M12.1436 4.8575C12.6738 4.8575 13.1036 4.42769 13.1036 3.8975C13.1036 3.36731 12.6738 2.9375 12.1436 2.9375C11.6134 2.9375 11.1836 3.36731 11.1836 3.8975C11.1836 4.42769 11.6134 4.8575 12.1436 4.8575Z" fill="white"/>
<path id="Vector_2" d="M8 12C5.794 12 4 10.206 4 8C4 5.794 5.794 4 8 4C10.206 4 12 5.794 12 8C12 10.206 10.206 12 8 12ZM8 6C6.897 6 6 6.897 6 8C6 9.103 6.897 10 8 10C9.103 10 10 9.103 10 8C10 6.897 9.103 6 8 6Z" fill="white"/>
<path id="Vector_3" d="M12 16H4C1.944 16 0 14.056 0 12V4C0 1.944 1.944 0 4 0H12C14.056 0 16 1.944 16 4V12C16 14.056 14.056 16 12 16ZM4 2C3.065 2 2 3.065 2 4V12C2 12.953 3.047 14 4 14H12C12.935 14 14 12.935 14 12V4C14 3.065 12.935 2 12 2H4Z" fill="white"/>
</g>
</g>
<defs>
<clipPath id="clip0_2423_14988">
<rect width="16" height="16" fill="white"/>
</clipPath>
</defs>
</svg>
