<svg width="41" height="40" viewBox="0 0 41 40" fill="none" xmlns="http://www.w3.org/2000/svg">
<g clip-path="url(#clip0_2101_30762)">
<path d="M36.75 0.625H4.25V19.375H36.75V0.625ZM35.5 1.875V15.625H33V13.125H26.75V15.625H5.5V1.875H35.5ZM31.75 15.625H28V14.375H31.75V15.625ZM5.5 18.125V16.875H35.5V18.125H5.5Z" fill="white"/>
<path d="M40.5 23.125H36.75C36.7495 22.6279 36.5517 22.1513 36.2002 21.7998C35.8487 21.4483 35.3721 21.2505 34.875 21.25H27.375C26.8779 21.2505 26.4013 21.4483 26.0498 21.7998C25.6983 22.1513 25.5005 22.6279 25.5 23.125H21.75V26.875H23V36.875H24.25V26.875H25.6152C25.7436 27.2395 25.9817 27.5554 26.2968 27.7792C26.6119 28.003 26.9885 28.1238 27.375 28.125H28V31.25H25.5V35H26.75V39.375H28V35H34.25V39.375H35.5V35H36.75V31.25H34.25V28.125H34.875C35.2615 28.1238 35.6381 28.003 35.9532 27.7792C36.2683 27.5554 36.5064 27.2395 36.6348 26.875H38V36.875H39.25V26.875H40.5V23.125ZM23 24.375H25.5V25.625H23V24.375ZM35.5 33.75H26.75V32.5H35.5V33.75ZM33 31.25H29.25V28.125H33V31.25ZM35.5 26.25C35.4999 26.4157 35.434 26.5746 35.3168 26.6918C35.1996 26.809 35.0407 26.8749 34.875 26.875H27.375C27.2093 26.8749 27.0504 26.809 26.9332 26.6918C26.816 26.5746 26.7501 26.4157 26.75 26.25V23.125C26.7501 22.9593 26.816 22.8004 26.9332 22.6832C27.0504 22.566 27.2093 22.5001 27.375 22.5H34.875C35.0407 22.5001 35.1996 22.566 35.3168 22.6832C35.434 22.8004 35.4999 22.9593 35.5 23.125V26.25ZM39.25 25.625H36.75V24.375H39.25V25.625Z" fill="white"/>
<path d="M13.625 21.25H6.125C5.62789 21.2505 5.15129 21.4483 4.79978 21.7998C4.44827 22.1513 4.25055 22.6279 4.25 23.125H0.5V26.875H1.75V36.875H3V26.875H4.36519C4.49359 27.2395 4.73168 27.5554 5.04677 27.7792C5.36186 28.003 5.73851 28.1238 6.125 28.125H6.75V31.25H4.25V35H5.5V39.375H6.75V35H13V39.375H14.25V35H15.5V31.25H13V28.125H13.625C14.0115 28.1238 14.3881 28.003 14.7032 27.7792C15.0183 27.5554 15.2564 27.2395 15.3848 26.875H16.75V36.875H18V26.875H19.25V23.125H15.5C15.4995 22.6279 15.3017 22.1513 14.9502 21.7998C14.5987 21.4483 14.1221 21.2505 13.625 21.25ZM1.75 24.375H4.25V25.625H1.75V24.375ZM14.25 33.75H5.5V32.5H14.25V33.75ZM11.75 31.25H8V28.125H11.75V31.25ZM14.25 26.25C14.2499 26.4157 14.184 26.5746 14.0668 26.6918C13.9496 26.809 13.7907 26.8749 13.625 26.875H6.125C5.95929 26.8749 5.8004 26.809 5.68322 26.6918C5.56604 26.5746 5.50015 26.4157 5.5 26.25V23.125C5.50015 22.9593 5.56604 22.8004 5.68322 22.6832C5.8004 22.566 5.95929 22.5001 6.125 22.5H13.625C13.7907 22.5001 13.9496 22.566 14.0668 22.6832C14.184 22.8004 14.2499 22.9593 14.25 23.125V26.25ZM18 24.375V25.625H15.5V24.375H18Z" fill="white"/>
</g>
<defs>
<clipPath id="clip0_2101_30762">
<rect width="40" height="40" fill="white" transform="translate(0.5)"/>
</clipPath>
</defs>
</svg>
