<svg width="41" height="40" viewBox="0 0 41 40" fill="none" xmlns="http://www.w3.org/2000/svg">
<g clip-path="url(#clip0_2101_30711)">
<mask id="mask0_2101_30711" style="mask-type:luminance" maskUnits="userSpaceOnUse" x="0" y="-1" width="41" height="41">
<path d="M0.501343 -0.000606537H40.5013V39.9994H0.501343V-0.000606537Z" fill="white"/>
</mask>
<g mask="url(#mask0_2101_30711)">
<path d="M21.2836 15.9797C22.1088 15.4934 22.6625 14.5955 22.6625 13.5684C22.6625 12.0236 21.4102 10.7714 19.8654 10.7714C18.3207 10.7714 17.0685 12.0236 17.0685 13.5684C17.0685 14.4856 17.51 15.2997 18.192 15.8097" stroke="white" stroke-width="1.5625" stroke-miterlimit="10" stroke-linecap="round" stroke-linejoin="round"/>
<path d="M21.843 20.4856C24.8538 19.6266 27.0581 16.855 27.0581 13.5684C27.0581 9.59622 23.8381 6.37614 19.8659 6.37614C15.8936 6.37614 12.6735 9.59622 12.6735 13.5684C12.6735 16.7958 14.7993 19.5268 17.727 20.4374" stroke="white" stroke-width="1.5625" stroke-miterlimit="10" stroke-linecap="round" stroke-linejoin="round"/>
<path d="M29.9644 5.58462C29.1101 6.43892 27.7251 6.43892 26.8708 5.58462C26.0165 4.73032 26.0165 3.34532 26.8708 2.49103C27.7251 1.63673 29.1101 1.63673 29.9644 2.49103C30.8187 3.34532 30.8187 4.73032 29.9644 5.58462Z" stroke="white" stroke-width="1.5625" stroke-miterlimit="10" stroke-linecap="round" stroke-linejoin="round"/>
<path d="M12.861 24.6463C12.0067 25.5006 10.6217 25.5006 9.76737 24.6463C8.91307 23.792 8.91307 22.407 9.76737 21.5527C10.6217 20.6984 12.0067 20.6984 12.861 21.5527C13.7153 22.407 13.7153 23.792 12.861 24.6463Z" stroke="white" stroke-width="1.5625" stroke-miterlimit="10" stroke-linecap="round" stroke-linejoin="round"/>
<path d="M21.8431 26.2031C27.966 25.2527 32.6524 19.958 32.6524 13.5687C32.6524 10.6719 31.6888 8.00023 30.0651 5.85625" stroke="white" stroke-width="1.5625" stroke-miterlimit="10" stroke-linecap="round" stroke-linejoin="round"/>
<path d="M19.1166 0.80404C12.4036 1.19185 7.07935 6.75857 7.07935 13.5688C7.07935 16.4878 8.05763 19.1783 9.70403 21.3304" stroke="white" stroke-width="1.5625" stroke-miterlimit="10" stroke-linecap="round" stroke-linejoin="round"/>
<path d="M33.9254 39.2175V29.8851C33.9254 28.773 33.0238 27.8714 31.9117 27.8714C30.7996 27.8714 29.8981 28.773 29.8981 29.8851V28.2835C29.8981 27.1714 28.9966 26.2699 27.8844 26.2699C26.7723 26.2699 25.8708 27.1714 25.8708 28.2835C25.8708 27.1714 24.9693 26.2699 23.8572 26.2699C22.7451 26.2699 21.8435 27.1714 21.8435 28.2835V17.3725C21.8435 16.2603 20.942 15.3588 19.8299 15.3588C18.7178 15.3588 17.8162 16.2603 17.8162 17.3725V26.9834V35.2976L15.3866 31.311C14.7892 30.331 13.519 30.0067 12.525 30.5806C11.5663 31.134 11.1971 32.3334 11.6785 33.3301L14.5928 39.2175" stroke="white" stroke-width="1.5625" stroke-miterlimit="10" stroke-linecap="round" stroke-linejoin="round"/>
<path d="M21.843 28.2834V32.21" stroke="white" stroke-width="1.5625" stroke-miterlimit="10" stroke-linecap="round" stroke-linejoin="round"/>
<path d="M25.8702 28.2836V32.4945" stroke="white" stroke-width="1.5625" stroke-miterlimit="10" stroke-linecap="round" stroke-linejoin="round"/>
<path d="M29.8981 29.8853V32.5474" stroke="white" stroke-width="1.5625" stroke-miterlimit="10" stroke-linecap="round" stroke-linejoin="round"/>
</g>
</g>
<defs>
<clipPath id="clip0_2101_30711">
<rect width="40" height="40" fill="white" transform="translate(0.5)"/>
</clipPath>
</defs>
</svg>
