<svg width="40" height="40" viewBox="0 0 40 40" fill="none" xmlns="http://www.w3.org/2000/svg">
<g clip-path="url(#clip0_2101_30773)">
<path d="M0.323444 25.5007C0.0270446 25.9665 -0.0702292 26.52 0.050314 27.0586L2.40625 37.597C2.62139 38.5594 3.48122 39.2159 4.43183 39.2159C4.58022 39.2159 4.7309 39.1999 4.88234 39.1663L6.11562 38.8928C6.45284 39.5997 7.17038 40.0586 7.9562 40.0582C8.1023 40.0582 8.25107 40.0426 8.39984 40.0094L10.5502 39.5329C11.0846 39.4147 11.5397 39.0958 11.8327 38.635C12.1241 38.1764 12.2198 37.6317 12.1012 37.1015L9.03956 23.4087C8.79504 22.3124 7.70138 21.6166 6.60161 21.863L5.94701 22.0084C5.83601 20.6424 5.7765 19.2107 5.7765 18.473C5.7765 10.8009 12.1683 4.55899 20.0254 4.55899C27.8828 4.55899 34.2747 10.8009 34.2747 18.473C34.2747 19.2264 34.2155 20.6404 34.103 22.0194L33.3984 21.863C32.2991 21.6181 31.205 22.3128 30.9601 23.4084L27.8989 37.1018C27.7802 37.6317 27.876 38.1764 28.1674 38.635C28.4604 39.0958 28.9155 39.4147 29.4495 39.5329L31.5998 40.0094C31.749 40.0426 31.8974 40.0582 32.0439 40.0582C32.8293 40.0582 33.5468 39.5993 33.8841 38.8928L35.1173 39.1663C35.2688 39.1999 35.4198 39.2159 35.5682 39.2159C36.5188 39.2159 37.3787 38.5594 37.5934 37.597L39.9494 27.0586C40.0699 26.52 39.973 25.9665 39.6766 25.5007C39.4325 25.1166 39.0735 24.837 38.6543 24.6802C38.9007 22.4593 39.0163 19.7825 39.0163 18.6297C39.0163 8.38967 30.497 0.0588379 20.0254 0.0588379C9.55377 0.0588379 1.03488 8.38967 1.03488 18.6297C1.03488 19.7852 1.15008 22.4482 1.39498 24.6642C0.95477 24.8164 0.577118 25.1017 0.323444 25.5007ZM6.81828 22.8392C6.89458 22.8224 6.97087 22.8144 7.04602 22.8144C7.52399 22.8144 7.9562 23.1436 8.06415 23.6266L11.1254 37.3197C11.1857 37.589 11.1369 37.8655 10.9888 38.0982C10.8393 38.3336 10.6066 38.4965 10.3335 38.5568L8.18317 39.0336C7.62356 39.158 7.06242 38.8051 6.93692 38.2462L6.92738 38.2024C6.92738 38.202 6.92738 38.2016 6.92738 38.2009C6.92738 38.2005 6.92662 38.2001 6.92662 38.1993L3.88672 24.6012C3.88672 24.6008 3.8871 24.6004 3.88672 24.6001C3.88672 24.5997 3.88634 24.5993 3.88634 24.5989L3.87604 24.5531C3.81615 24.2838 3.86497 24.0073 4.01298 23.7742C4.16214 23.5388 4.39521 23.3763 4.66796 23.3157L6.81828 22.8392ZM31.8169 39.0336L29.6662 38.5568C29.3934 38.4965 29.1604 38.3336 29.0112 38.0982C28.8632 37.8655 28.8144 37.589 28.8743 37.3197L31.9359 23.6262C32.0439 23.1436 32.4761 22.8144 32.954 22.8144C33.0292 22.8144 33.1055 22.8224 33.1814 22.8392L35.3325 23.3161C35.6048 23.3763 35.8375 23.5388 35.9871 23.7742C36.1351 24.0073 36.1839 24.2838 36.1236 24.5528L36.1133 24.5989C36.1133 24.5993 36.1133 24.5997 36.113 24.6001V24.6008L33.0731 38.1997C33.0731 38.2001 33.0727 38.2005 33.0727 38.2009V38.2024L33.0628 38.2459C32.9373 38.8051 32.3769 39.1564 31.8169 39.0336ZM38.8328 26.037C38.9858 26.2778 39.0358 26.5627 38.974 26.84L36.618 37.3788C36.4891 37.9552 35.9131 38.3176 35.3344 38.1902L34.1579 37.9292L36.98 25.3043L38.158 25.5652C38.4391 25.6277 38.6791 25.7952 38.8328 26.037ZM20.0254 1.05904C29.9458 1.05904 38.0165 8.94127 38.0165 18.6297C38.0165 19.7364 37.9078 22.2796 37.6754 24.4337L37.1444 24.3163C37.1429 23.9371 37.0392 23.5651 36.8309 23.2371C36.5379 22.7767 36.0824 22.4578 35.5488 22.3399L35.0883 22.2376C35.21 20.7888 35.2749 19.2721 35.2749 18.473C35.2749 10.2493 28.434 3.55879 20.0254 3.55879C11.6171 3.55879 4.7763 10.2493 4.7763 18.473C4.7763 19.2752 4.84038 20.7831 4.96169 22.2266L4.45167 22.3395C3.91762 22.4578 3.46215 22.7767 3.16918 23.2371C2.9609 23.5651 2.85714 23.9371 2.85561 24.3163L2.3742 24.4231C2.15219 22.3517 2.0347 19.781 2.0347 18.6297C2.0347 8.94127 10.1054 1.05904 20.0254 1.05904ZM1.16725 26.037C1.32098 25.7952 1.56054 25.6277 1.84206 25.5652L3.01964 25.3043L5.84173 37.9292L4.66567 38.1902C4.08889 38.3176 3.51097 37.9552 3.38204 37.3788L1.0261 26.84C0.963925 26.5627 1.01428 26.2778 1.16725 26.037Z" fill="white"/>
</g>
<defs>
<clipPath id="clip0_2101_30773">
<rect width="40" height="40" fill="white"/>
</clipPath>
</defs>
</svg>
