<svg width="44" height="44" viewBox="0 0 44 44" fill="none" xmlns="http://www.w3.org/2000/svg">
<g id="targeting">
<path id="Target" d="M32.6604 23.1C32.4078 25.5485 31.3229 27.8362 29.5867 29.5811C27.8506 31.3261 25.5684 32.4226 23.1212 32.6876C23.0719 32.687 23.023 32.6962 22.9774 32.7148C22.9318 32.7334 22.8903 32.7609 22.8554 32.7958C22.8206 32.8306 22.7931 32.8721 22.7745 32.9177C22.7559 32.9634 22.7466 33.0123 22.7472 33.0616V41.0652C22.7472 41.2635 22.6684 41.4538 22.5281 41.5941C22.3879 41.7344 22.1976 41.8132 21.9992 41.8132C21.8008 41.8132 21.6106 41.7344 21.4703 41.5941C21.33 41.4538 21.2512 41.2635 21.2512 41.0652V38.1612C21.2441 38.0643 21.2024 37.9733 21.1337 37.9046C21.0651 37.836 20.974 37.7943 20.8772 37.7872C17.5504 37.5179 14.3949 36.2001 11.8647 34.0234C9.33451 31.8466 7.56023 28.9232 6.79722 25.674C6.76882 25.5777 6.76008 25.4767 6.77153 25.377C6.78298 25.2773 6.81438 25.1809 6.86387 25.0935C6.91335 25.0062 6.97991 24.9297 7.05957 24.8687C7.13922 24.8076 7.23036 24.7632 7.32754 24.7381C7.42472 24.713 7.52596 24.7077 7.62523 24.7225C7.7245 24.7374 7.81977 24.772 7.90536 24.8245C7.99095 24.8769 8.06512 24.946 8.12343 25.0277C8.18175 25.1094 8.22303 25.202 8.24482 25.3C8.92315 28.2166 10.5048 30.8446 12.7645 32.8095C15.0241 34.7745 17.8463 35.976 20.8288 36.2428C20.9256 36.2912 21.018 36.2428 21.1104 36.1504C21.1593 36.1228 21.1988 36.0813 21.2238 36.0311C21.2489 35.9809 21.2585 35.9244 21.2512 35.8688V33.0616C21.2518 33.0123 21.2425 32.9634 21.224 32.9177C21.2054 32.8721 21.1778 32.8306 21.143 32.7958C21.1081 32.7609 21.0667 32.7334 21.021 32.7148C20.9754 32.6962 20.9265 32.687 20.8772 32.6876C18.4417 32.4162 16.169 31.331 14.4268 29.6076C12.685 27.857 11.5976 25.5611 11.3468 23.1044C11.3325 23.0145 11.2874 22.9323 11.2192 22.8721C11.1509 22.8119 11.0638 22.7773 10.9728 22.7744H2.96922C2.765 22.7744 2.56915 22.6932 2.42475 22.5488C2.28034 22.4044 2.19922 22.2086 2.19922 22.0044C2.19922 21.8001 2.28034 21.6043 2.42475 21.4599C2.56915 21.3155 2.765 21.2344 2.96922 21.2344H6.00962C6.10034 21.2306 6.18701 21.1957 6.2551 21.1356C6.32319 21.0756 6.36856 20.9939 6.38362 20.9044C6.58328 17.5825 7.81751 14.4065 9.91328 11.8215C12.0091 9.23649 14.8613 7.37219 18.07 6.48997C18.2643 6.45308 18.4654 6.49195 18.632 6.59859C18.7985 6.70523 18.918 6.87157 18.9658 7.06348C19.0137 7.2554 18.9863 7.45834 18.8892 7.63069C18.7922 7.80304 18.6329 7.93173 18.444 7.99037C15.5733 8.76447 13.016 10.4157 11.1291 12.7136C9.24225 15.0114 8.12006 17.8411 7.91922 20.8076C7.90681 20.8622 7.90731 20.919 7.92066 20.9734C7.93401 21.0279 7.95986 21.0784 7.99616 21.1211C8.03245 21.1638 8.07819 21.1975 8.12976 21.2194C8.18132 21.2414 8.23729 21.251 8.29322 21.2476H10.9552C11.0462 21.2446 11.1333 21.21 11.2016 21.1498C11.2698 21.0896 11.3149 21.0075 11.3292 20.9176C11.5784 18.4646 12.6629 16.1717 14.4012 14.423C16.1394 12.6744 18.4258 11.5762 20.8772 11.3124C20.9265 11.313 20.9754 11.3037 21.021 11.2851C21.0667 11.2665 21.1081 11.239 21.143 11.2041C21.1778 11.1693 21.2054 11.1278 21.224 11.0822C21.2425 11.0365 21.2518 10.9876 21.2512 10.9384V2.93477C21.2512 2.73639 21.33 2.54613 21.4703 2.40585C21.6106 2.26557 21.8008 2.18677 21.9992 2.18677C22.1976 2.18677 22.3879 2.26557 22.5281 2.40585C22.6684 2.54613 22.7472 2.73639 22.7472 2.93477V12.012C22.7522 12.1179 22.7351 12.2237 22.6968 12.3226C22.6586 12.4215 22.6001 12.5113 22.5251 12.5863C22.4501 12.6612 22.3603 12.7197 22.2614 12.758C22.1625 12.7962 22.0567 12.8134 21.9508 12.8084C13.8152 12.8084 9.74962 22.77 15.5004 28.5252C21.2512 34.2804 31.0676 30.162 31.2084 22C31.2072 21.9014 31.2258 21.8036 31.263 21.7123C31.3001 21.621 31.3552 21.5381 31.4249 21.4684C31.4946 21.3987 31.5775 21.3437 31.6688 21.3065C31.7601 21.2693 31.8579 21.2508 31.9564 21.252H41.0292C41.2334 21.252 41.4293 21.3331 41.5737 21.4775C41.7181 21.6219 41.7992 21.8177 41.7992 22.022C41.7992 22.2262 41.7181 22.422 41.5737 22.5664C41.4293 22.7108 41.2334 22.792 41.0292 22.792H38.0372C37.9444 22.7882 37.8537 22.8205 37.784 22.8819C37.7143 22.9434 37.6711 23.0294 37.6632 23.122C37.4204 26.4645 36.1277 29.6449 33.9697 32.209C31.8118 34.7732 28.8988 36.5899 25.6468 37.4C24.6656 37.6332 24.3268 36.1372 25.3168 35.904C28.221 35.1819 30.8255 33.5669 32.7634 31.2864C34.7012 29.006 35.8748 26.175 36.1188 23.1924C36.1312 23.1377 36.1307 23.0809 36.1174 23.0265C36.104 22.9721 36.0782 22.9215 36.0419 22.8788C36.0056 22.8361 35.9598 22.8025 35.9083 22.7805C35.8567 22.7586 35.8008 22.7489 35.7448 22.7524H33.0344C32.9434 22.7553 32.8563 22.7899 32.7881 22.8501C32.7198 22.9103 32.6747 22.9925 32.6604 23.0824V23.1ZM38.7192 10.6568L33.3116 16.0336C33.1795 16.177 32.996 16.2624 32.8012 16.2712H29.1976C29.0992 16.2798 29.0043 16.3114 28.9204 16.3636L22.514 22.8184C22.37 22.953 22.1793 23.0264 21.9822 23.0233C21.7851 23.0201 21.5969 22.9406 21.4572 22.8015C21.3175 22.6624 21.2372 22.4745 21.2333 22.2774C21.2293 22.0803 21.302 21.8894 21.436 21.7448L27.8424 15.2856C27.8855 15.264 27.9216 15.2306 27.9465 15.1893C27.9715 15.1481 27.9842 15.1006 27.9832 15.0524V11.44C27.9823 11.3359 28.0025 11.2327 28.0426 11.1367C28.0827 11.0406 28.1418 10.9537 28.2164 10.8812L33.5932 5.50877C33.697 5.39652 33.8323 5.31815 33.9813 5.28385C34.1303 5.24955 34.2862 5.26092 34.4286 5.31647C34.5711 5.37203 34.6935 5.46919 34.7799 5.59532C34.8663 5.72144 34.9128 5.87067 34.9132 6.02357V8.97157C34.9194 9.06872 34.9608 9.16027 35.0297 9.22911C35.0985 9.29795 35.1901 9.33935 35.2872 9.34557H38.1868C38.3415 9.34151 38.4938 9.38414 38.6239 9.4679C38.7539 9.55165 38.8558 9.67265 38.9161 9.81513C38.9764 9.9576 38.9924 10.1149 38.962 10.2666C38.9316 10.4183 38.8562 10.5573 38.7456 10.6656L38.7192 10.6568ZM32.5592 14.6168L35.692 11.484C35.7464 11.4337 35.7849 11.3685 35.8026 11.2966C35.8204 11.2246 35.8166 11.149 35.7918 11.0792C35.7669 11.0094 35.7221 10.9484 35.6629 10.9038C35.6038 10.8592 35.5328 10.833 35.4588 10.8284H34.1388C33.9345 10.8331 33.7364 10.7574 33.5874 10.6175C33.4385 10.4775 33.3504 10.2846 33.3424 10.0804V8.79997C33.3421 8.72419 33.3195 8.65019 33.2774 8.58713C33.2354 8.52407 33.1758 8.47472 33.106 8.44521C33.0362 8.4157 32.9593 8.40732 32.8848 8.4211C32.8103 8.43489 32.7414 8.47024 32.6868 8.52277L29.6068 11.6556C29.5246 11.7272 29.474 11.8284 29.466 11.9372V14.3704C29.4654 14.4196 29.4747 14.4685 29.4933 14.5142C29.5119 14.5598 29.5394 14.6013 29.5742 14.6361C29.6091 14.671 29.6506 14.6985 29.6962 14.7171C29.7418 14.7357 29.7907 14.745 29.84 14.7444H32.3172C32.414 14.7444 32.5064 14.7444 32.5504 14.6476L32.5592 14.6168ZM28.3528 22.0088C28.3546 23.2668 27.983 24.4971 27.2853 25.5439C26.5875 26.5908 25.5949 27.407 24.433 27.8895C23.2711 28.3719 21.9922 28.4988 20.7582 28.2541C19.5242 28.0095 18.3905 27.4042 17.5006 26.5149C16.6107 25.6256 16.0046 24.4924 15.7591 23.2585C15.5136 22.0246 15.6396 20.7457 16.1212 19.5835C16.6029 18.4212 17.4185 17.428 18.4648 16.7296C19.5111 16.0311 20.7412 15.6587 21.9992 15.6596C22.1883 15.6741 22.3649 15.7594 22.4937 15.8985C22.6225 16.0376 22.6941 16.2202 22.6941 16.4098C22.6941 16.5994 22.6225 16.782 22.4937 16.9211C22.3649 17.0602 22.1883 17.1455 21.9992 17.16C20.7156 17.16 19.4845 17.6699 18.5768 18.5776C17.6691 19.4852 17.1592 20.7163 17.1592 22C17.1592 23.2836 17.6691 24.5147 18.5768 25.4224C19.4845 26.33 20.7156 26.84 21.9992 26.84C24.8064 26.84 26.6764 24.7368 26.8128 22C26.8084 21.8938 26.8259 21.7879 26.8642 21.6888C26.9025 21.5897 26.9608 21.4995 27.0355 21.4239C27.1101 21.3483 27.1995 21.2889 27.2981 21.2493C27.3967 21.2097 27.5024 21.1909 27.6086 21.1939C27.7148 21.1969 27.8193 21.2218 27.9154 21.2669C28.0116 21.312 28.0975 21.3764 28.1677 21.4562C28.2379 21.5359 28.291 21.6292 28.3236 21.7304C28.3562 21.8315 28.3676 21.9382 28.3572 22.044L28.3528 22.0088Z" fill="#2D55A5"/>
</g>
</svg>
