<svg width="44" height="44" viewBox="0 0 44 44" fill="none" xmlns="http://www.w3.org/2000/svg">
<g id="mission">
<g id="launch_x2C__mission_x2C__rocket_x2C__start_x2C__startup">
<g id="XMLID_631_">
<g id="Disruptive_innovations_2_">
<path id="Vector" d="M3.47462 42.6243C3.12812 42.6243 2.83112 42.3644 2.79125 42.0124C2.76375 41.7621 2.75 41.5078 2.75 41.2493C2.75 37.4584 5.83413 34.3743 9.625 34.3743C10.6026 34.3743 11.5569 34.5791 12.4369 34.9765C12.8081 32.6885 14.7964 30.9368 17.1875 30.9368C17.567 30.9368 17.875 31.2448 17.875 31.6243C17.875 32.0038 17.567 32.3118 17.1875 32.3118C15.2928 32.3118 13.75 33.8545 13.75 35.7493C13.75 35.8029 13.7583 35.8538 13.7665 35.9033C13.7679 35.9129 13.7858 36.0573 13.7858 36.0669C13.8119 36.3323 13.6812 36.588 13.4516 36.7241C13.2234 36.8616 12.936 36.852 12.7146 36.7008C11.8003 36.0779 10.7305 35.7493 9.625 35.7493C6.59175 35.7493 4.125 38.216 4.125 41.2493C4.125 41.4555 4.136 41.6604 4.158 41.8611C4.19925 42.2379 3.927 42.5775 3.55025 42.6201C3.52413 42.6229 3.49937 42.6243 3.47462 42.6243Z" fill="#2D55A5"/>
<path id="Vector_2" d="M40.5198 42.6243C40.4923 42.6243 40.4635 42.623 40.4346 42.6188C40.0578 42.5721 39.7897 42.2297 39.8365 41.853C39.8612 41.6563 39.8736 41.4542 39.8736 41.2493C39.8736 38.5956 37.7148 36.4368 35.0611 36.4368C34.243 36.4368 33.4427 36.6568 32.6851 37.0913C32.3785 37.2646 31.9921 37.1821 31.7858 36.8961C31.2592 36.1673 30.4493 35.7493 29.5611 35.7493C29.1816 35.7493 28.8736 35.4413 28.8736 35.0618C28.8736 33.4765 27.9468 32.0121 26.5141 31.3328C26.1703 31.1706 26.0246 30.7595 26.1882 30.4171C26.3505 30.0747 26.7616 29.929 27.104 30.0912C28.8213 30.9066 29.9928 32.5648 30.2128 34.428C31.0846 34.571 31.8958 34.9945 32.516 35.6325C33.3327 35.2543 34.1866 35.0618 35.0625 35.0618C38.4738 35.0618 41.25 37.838 41.25 41.2493C41.25 41.5106 41.2335 41.7691 41.2018 42.0207C41.1592 42.3686 40.8622 42.6243 40.5198 42.6243Z" fill="#2D55A5"/>
<g id="Group">
<path id="Vector_3" d="M24.0625 32.9993C23.683 32.9993 23.375 32.6913 23.375 32.3118V28.1868C23.375 27.8073 23.683 27.4993 24.0625 27.4993C24.442 27.4993 24.75 27.8073 24.75 28.1868V32.3118C24.75 32.6913 24.442 32.9993 24.0625 32.9993Z" fill="#2D55A5"/>
</g>
<g id="Group_2">
<path id="Vector_4" d="M19.9375 37.1243C19.558 37.1243 19.25 36.8163 19.25 36.4368V28.1868C19.25 27.8073 19.558 27.4993 19.9375 27.4993C20.317 27.4993 20.625 27.8073 20.625 28.1868V36.4368C20.625 36.8163 20.317 37.1243 19.9375 37.1243Z" fill="#2D55A5"/>
</g>
<g id="Group_3">
<path id="Vector_5" d="M28.8754 42.623C28.4959 42.623 28.1879 42.315 28.1879 41.9355C28.1879 40.0408 26.6451 38.498 24.7504 38.498C23.4208 38.498 22.1984 39.2845 21.636 40.5028C21.5411 40.7077 21.3514 40.8534 21.13 40.8919C20.9073 40.9332 20.6804 40.8589 20.5223 40.6967C19.9998 40.1659 19.304 39.873 18.5629 39.873C17.2621 39.873 16.1291 40.7957 15.8693 42.0675C15.7936 42.4402 15.4265 42.678 15.058 42.6038C14.6854 42.5282 14.4461 42.1652 14.5218 41.7925C14.9123 39.884 16.6118 38.498 18.5629 38.498C19.3783 38.498 20.1565 38.7332 20.822 39.1718C21.713 37.9054 23.1774 37.123 24.7504 37.123C27.4041 37.123 29.5629 39.2818 29.5629 41.9355C29.5629 42.315 29.2549 42.623 28.8754 42.623Z" fill="#2D55A5"/>
<path id="XMLID_638_" d="M24.0625 35.7495C24.4422 35.7495 24.75 35.4417 24.75 35.062C24.75 34.6823 24.4422 34.3745 24.0625 34.3745C23.6828 34.3745 23.375 34.6823 23.375 35.062C23.375 35.4417 23.6828 35.7495 24.0625 35.7495Z" fill="#2D55A5"/>
</g>
</g>
<g id="Group_4">
<g id="Group_5">
<g id="Group_6">
<path id="Vector_6" d="M18.5625 21.3114L17.875 18.8364V24.324L15.125 25.699V21.5273C15.125 20.2416 15.6255 19.0344 16.5344 18.1241L17.4914 17.1671C17.3772 16.6061 17.2851 16.0479 17.2301 15.4841L15.5622 17.152C14.3935 18.3208 13.75 19.8745 13.75 21.5273V26.8114C13.75 27.0493 13.8738 27.2706 14.0759 27.3958C14.1859 27.4645 14.3124 27.4989 14.4375 27.4989C14.5434 27.4989 14.6479 27.4741 14.7455 27.426L18.8705 25.3635C19.0259 25.2851 19.1208 25.1463 19.1826 24.9895C18.7894 24.8589 18.5625 24.7489 18.5625 24.7489V21.3114Z" fill="#2D55A5"/>
<path id="Vector_7" d="M28.4393 17.152L26.7714 15.4841C26.7151 16.0465 26.6243 16.6061 26.5102 17.1671L27.4672 18.1241C28.3761 19.033 28.8766 20.2416 28.8766 21.5273V25.699L26.1266 24.324V18.8364L25.4391 21.3114V24.7489C25.4391 24.7489 25.2122 24.8589 24.8203 24.9895C24.8808 25.1463 24.9771 25.2851 25.1324 25.3635L29.2574 27.426C29.3537 27.4741 29.4582 27.4989 29.5641 27.4989C29.6892 27.4989 29.8157 27.4645 29.9257 27.3958C30.1278 27.2706 30.2516 27.0493 30.2516 26.8114V21.5273C30.2516 19.8745 29.6081 18.3208 28.4393 17.152Z" fill="#2D55A5"/>
</g>
<path id="Vector_8" d="M22.0031 26.1236C19.8031 26.1236 18.3209 25.3949 18.2576 25.3633C18.0253 25.2464 17.8781 25.0085 17.8781 24.7486V21.4046L17.0683 18.4883C15.3977 12.4713 17.1013 5.99088 21.5178 1.57438C21.7859 1.30626 22.2218 1.30626 22.4899 1.57438C26.905 5.98951 28.61 12.4713 26.9394 18.4883L26.1281 21.4046V24.7486C26.1281 25.0085 25.981 25.2464 25.7487 25.3633C25.6854 25.3949 24.2031 26.1236 22.0031 26.1236ZM19.2531 24.2866C19.7619 24.4695 20.7464 24.7486 22.0031 24.7486C23.2709 24.7486 24.2485 24.4709 24.7531 24.2894V21.3111C24.7531 21.2493 24.7614 21.1874 24.7779 21.1269L25.6125 18.1198C27.0893 12.8068 25.706 7.10051 22.0031 3.05526C18.3003 7.10051 16.917 12.8068 18.3938 18.1211L19.2284 21.1283C19.2449 21.1874 19.2531 21.2493 19.2531 21.3111V24.2866Z" fill="#2D55A5"/>
</g>
<path id="XMLID_639_" d="M21.3125 15.124C21.6922 15.124 22 14.8162 22 14.4365C22 14.0568 21.6922 13.749 21.3125 13.749C20.9328 13.749 20.625 14.0568 20.625 14.4365C20.625 14.8162 20.9328 15.124 21.3125 15.124Z" fill="#2D55A5"/>
<path id="XMLID_640_" d="M21.3125 12.374C21.6922 12.374 22 12.0662 22 11.6865C22 11.3068 21.6922 10.999 21.3125 10.999C20.9328 10.999 20.625 11.3068 20.625 11.6865C20.625 12.0662 20.9328 12.374 21.3125 12.374Z" fill="#2D55A5"/>
<path id="Vector_9" d="M22.0005 21.999C21.7433 21.999 21.4986 21.9893 21.2621 21.9715C20.884 21.944 20.5993 21.614 20.6268 21.2358C20.6543 20.8577 20.9788 20.5731 21.3625 20.6006C21.5673 20.6157 21.7791 20.624 22.0005 20.624C23.8787 20.624 25.119 20.0148 25.13 20.0093C25.4696 19.8402 25.8821 19.9777 26.0526 20.3173C26.2231 20.657 26.0842 21.0695 25.7446 21.24C25.6827 21.2702 24.2005 21.999 22.0005 21.999Z" fill="#2D55A5"/>
</g>
</g>
<g id="Group_7">
<path id="Vector_10" d="M33.6875 31.6248C33.308 31.6248 33 31.3168 33 30.9373V22.6873C33 22.3078 33.308 21.9998 33.6875 21.9998C34.067 21.9998 34.375 22.3078 34.375 22.6873V30.9373C34.375 31.3168 34.067 31.6248 33.6875 31.6248Z" fill="#2D55A5"/>
<path id="Vector_11" d="M36.4375 26.1248C36.058 26.1248 35.75 25.8168 35.75 25.4373V15.8123C35.75 15.4328 36.058 15.1248 36.4375 15.1248C36.817 15.1248 37.125 15.4328 37.125 15.8123V25.4373C37.125 25.8168 36.817 26.1248 36.4375 26.1248Z" fill="#2D55A5"/>
<path id="Vector_12" d="M10.3125 31.6248C9.933 31.6248 9.625 31.3168 9.625 30.9373V22.6873C9.625 22.3078 9.933 21.9998 10.3125 21.9998C10.692 21.9998 11 22.3078 11 22.6873V30.9373C11 31.3168 10.692 31.6248 10.3125 31.6248Z" fill="#2D55A5"/>
<path id="Vector_13" d="M7.5625 24.7498C7.183 24.7498 6.875 24.4418 6.875 24.0623V15.8123C6.875 15.4328 7.183 15.1248 7.5625 15.1248C7.942 15.1248 8.25 15.4328 8.25 15.8123V24.0623C8.25 24.4418 7.942 24.7498 7.5625 24.7498Z" fill="#2D55A5"/>
<path id="XMLID_1244_" d="M7.5625 27.4998C7.9422 27.4998 8.25 27.192 8.25 26.8123C8.25 26.4326 7.9422 26.1248 7.5625 26.1248C7.1828 26.1248 6.875 26.4326 6.875 26.8123C6.875 27.192 7.1828 27.4998 7.5625 27.4998Z" fill="#2D55A5"/>
</g>
</g>
</g>
</svg>
