<svg width="121" height="149" viewBox="0 0 121 149" fill="none" xmlns="http://www.w3.org/2000/svg">
<g clip-path="url(#clip0_2101_34305)">
<path d="M-1.75722e-05 88.1622C0.00556617 99.3419 3.07448 110.304 8.86978 119.845C14.6651 129.385 22.9626 137.136 32.8514 142.245C42.7402 147.354 53.8377 149.624 64.9256 148.806C76.0134 147.989 86.6628 144.114 95.7044 137.609C104.746 131.104 111.83 122.219 116.179 111.93C120.528 101.641 121.974 90.346 120.357 79.2851C118.74 68.2242 114.124 57.8252 107.015 49.2297C99.9059 40.6343 90.5791 34.1748 80.0584 30.5607C78.0538 29.859 76.2101 28.7589 74.637 27.326C73.0638 25.8931 71.7934 24.1566 70.9013 22.2199L60.5 -0.066732L50.0987 22.2199C49.2269 24.15 47.9768 25.8835 46.4234 27.3167C44.8699 28.7498 43.045 29.8531 41.0577 30.5607C29.0892 34.6476 18.6936 42.4005 11.33 52.7312C3.96642 63.0619 0.00437807 75.4519 -1.75722e-05 88.1622Z" fill="url(#paint0_linear_2101_34305)"/>
<g filter="url(#filter0_d_2101_34305)">
<path d="M19 87.5C19 110.42 37.5802 129 60.5 129C83.4198 129 102 110.42 102 87.5C102 64.5802 83.4198 46 60.5 46C37.5802 46 19 64.5802 19 87.5Z" fill="white"/>
</g>
<g clip-path="url(#clip1_2101_34305)">
<path d="M79.4141 75.8984V92.8398C79.4141 93.7117 78.707 94.4187 77.8359 94.4187H42.1641C41.293 94.4187 40.5859 93.7117 40.5859 92.8398V69.1641C40.5859 68.293 41.293 67.5859 42.1641 67.5859H77.8359C78.707 67.5859 79.4141 68.293 79.4141 69.1641V73.1563" stroke="#2D55A5" stroke-width="1.17188" stroke-miterlimit="10" stroke-linecap="round" stroke-linejoin="round"/>
<path d="M43.1133 87.1251V91.104C43.1133 91.5399 43.4664 91.8931 43.9023 91.8931H76.1008C76.5367 91.8931 76.8898 91.5399 76.8898 91.104V70.9009C76.8898 70.4649 76.5367 70.1118 76.1008 70.1118H43.9023C43.4664 70.1118 43.1133 70.4649 43.1133 70.9009V84.3829" stroke="#2D55A5" stroke-width="1.17188" stroke-miterlimit="10" stroke-linecap="round" stroke-linejoin="round"/>
<path d="M75.7824 94.4185V95.3655C75.7824 96.2372 75.0758 96.9438 74.2041 96.9438H45.7932C44.9215 96.9438 44.2148 96.2372 44.2148 95.3655V94.4185" stroke="#2D55A5" stroke-width="1.17188" stroke-miterlimit="10" stroke-linecap="round" stroke-linejoin="round"/>
<path d="M50.5312 106.414V103.827" stroke="#2D55A5" stroke-width="1.17188" stroke-miterlimit="10" stroke-linecap="round" stroke-linejoin="round"/>
<path d="M47.3711 106.414V96.9438H50.5281V101.084" stroke="#2D55A5" stroke-width="1.17188" stroke-miterlimit="10" stroke-linecap="round" stroke-linejoin="round"/>
<path d="M72.6255 106.414V96.9438H69.4688V106.414" stroke="#2D55A5" stroke-width="1.17188" stroke-miterlimit="10" stroke-linecap="round" stroke-linejoin="round"/>
<path d="M46.9922 87.1385C55.7059 84.4426 64.3783 84.3393 73.0045 87.1385" stroke="#2D55A5" stroke-width="1.17188" stroke-miterlimit="10" stroke-linecap="round" stroke-linejoin="round"/>
<path d="M49.2773 82.6001L51.648 76.3755C51.6965 76.2571 51.8641 76.2569 51.9128 76.3753L54.262 82.6001" stroke="#2D55A5" stroke-width="1.17188" stroke-miterlimit="10" stroke-linecap="round" stroke-linejoin="round"/>
<path d="M50.0156 81.0498H53.5335" stroke="#2D55A5" stroke-width="1.17188" stroke-miterlimit="10" stroke-linecap="round" stroke-linejoin="round"/>
<path d="M61.357 76.9513C61.357 77.7536 60.7066 78.404 59.9042 78.404C59.5063 78.404 58.0703 78.4104 58.0703 78.4104C58.0703 78.4104 58.0703 77.3556 58.0703 76.9513C58.0703 76.6191 58.0703 75.4985 58.0703 75.4985C58.0703 75.4985 59.4341 75.4985 59.9042 75.4985C60.7066 75.4985 61.357 76.1489 61.357 76.9513Z" stroke="#2D55A5" stroke-width="1.17188" stroke-miterlimit="10" stroke-linecap="round" stroke-linejoin="round"/>
<path d="M61.9239 80.1051C61.9239 81.0437 61.163 81.8045 60.2245 81.8045C59.7591 81.8045 58.0703 81.812 58.0703 81.812C58.0703 81.812 58.0703 80.5782 58.0703 80.1051C58.0703 79.7166 58.0703 78.4058 58.0703 78.4058C58.0703 78.4058 59.6745 78.4058 60.2245 78.4058C61.163 78.4058 61.9239 79.1666 61.9239 80.1051Z" stroke="#2D55A5" stroke-width="1.17188" stroke-miterlimit="10" stroke-linecap="round" stroke-linejoin="round"/>
<path d="M70.1132 76.8258C69.6094 76.4854 69.002 76.2866 68.3482 76.2866C66.6048 76.2866 65.1914 77.7 65.1914 79.4434C65.1914 81.1869 66.6048 82.6002 68.3482 82.6002C69.0563 82.6002 69.6387 82.3671 70.0807 81.9734C70.1722 81.8919 70.2576 81.8037 70.337 81.709" stroke="#2D55A5" stroke-width="1.17188" stroke-miterlimit="10" stroke-linecap="round" stroke-linejoin="round"/>
</g>
</g>
<defs>
<filter id="filter0_d_2101_34305" x="14.38" y="42.92" width="101.48" height="101.48" filterUnits="userSpaceOnUse" color-interpolation-filters="sRGB">
<feFlood flood-opacity="0" result="BackgroundImageFix"/>
<feColorMatrix in="SourceAlpha" type="matrix" values="0 0 0 0 0 0 0 0 0 0 0 0 0 0 0 0 0 0 127 0" result="hardAlpha"/>
<feOffset dx="4.62" dy="6.16"/>
<feGaussianBlur stdDeviation="4.62"/>
<feColorMatrix type="matrix" values="0 0 0 0 0 0 0 0 0 0 0 0 0 0 0 0 0 0 0.25 0"/>
<feBlend mode="normal" in2="BackgroundImageFix" result="effect1_dropShadow_2101_34305"/>
<feBlend mode="normal" in="SourceGraphic" in2="effect1_dropShadow_2101_34305" result="shape"/>
</filter>
<linearGradient id="paint0_linear_2101_34305" x1="6.23239" y1="74.4513" x2="120.98" y2="72.928" gradientUnits="userSpaceOnUse">
<stop stop-color="#2B54A5" stop-opacity="0.87"/>
<stop offset="1" stop-color="#22AAE1"/>
</linearGradient>
<clipPath id="clip0_2101_34305">
<rect width="121" height="149" fill="white" transform="translate(121 149) rotate(-180)"/>
</clipPath>
<clipPath id="clip1_2101_34305">
<rect width="40" height="40" fill="white" transform="translate(40 67)"/>
</clipPath>
</defs>
</svg>
