<svg width="121" height="149" viewBox="0 0 121 149" fill="none" xmlns="http://www.w3.org/2000/svg">
<g clip-path="url(#clip0_2101_34162)">
<path d="M121 60.8378C120.994 49.6581 117.926 38.6961 112.13 29.1554C106.335 19.6147 98.0374 11.8643 88.1486 6.75518C78.2598 1.64604 67.1623 -0.624272 56.0744 0.19353C44.9866 1.01133 34.3372 4.88562 25.2956 11.391C16.254 17.8964 9.1698 26.7813 4.82086 37.0702C0.471932 47.359 -0.97357 58.654 0.643073 69.7149C2.25972 80.7758 6.87599 91.1748 13.985 99.7703C21.0941 108.366 30.4209 114.825 40.9416 118.439C42.9462 119.141 44.7899 120.241 46.363 121.674C47.9362 123.107 49.2066 124.843 50.0987 126.78L60.5 149.067L70.9013 126.78C71.7732 124.85 73.0232 123.116 74.5766 121.683C76.1301 120.25 77.955 119.147 79.9423 118.439C91.9108 114.352 102.306 106.599 109.67 96.2688C117.034 85.9381 120.996 73.5481 121 60.8378Z" fill="url(#paint0_linear_2101_34162)"/>
<g filter="url(#filter0_d_2101_34162)">
<path d="M101 61.5C101 38.5802 82.4198 20 59.5 20C36.5802 20 18 38.5802 18 61.5C18 84.4198 36.5802 103 59.5 103C82.4198 103 101 84.4198 101 61.5Z" fill="white"/>
</g>
<g clip-path="url(#clip1_2101_34162)">
<mask id="mask0_2101_34162" style="mask-type:luminance" maskUnits="userSpaceOnUse" x="39" y="41" width="40" height="41">
<path d="M39 41.0017H79V81.0017H39V41.0017Z" fill="white"/>
</mask>
<g mask="url(#mask0_2101_34162)">
<path d="M39.5859 78.2239H78.4141" stroke="#2D55A5" stroke-width="1.17187" stroke-miterlimit="10" stroke-linecap="round" stroke-linejoin="round"/>
<path d="M77.1621 60.6883V78.2236" stroke="#2D55A5" stroke-width="1.17187" stroke-miterlimit="10" stroke-linecap="round" stroke-linejoin="round"/>
<path d="M40.8379 78.2236V60.6883" stroke="#2D55A5" stroke-width="1.17187" stroke-miterlimit="10" stroke-linecap="round" stroke-linejoin="round"/>
<path d="M75.91 60.688H78.415L75.91 55.0517H63.3848" stroke="#2D55A5" stroke-width="1.17187" stroke-miterlimit="10" stroke-linecap="round" stroke-linejoin="round"/>
<path d="M54.6162 55.0517H42.0909L39.5859 60.688H48.9798L59 50.6678L69.0202 60.688H73.404" stroke="#2D55A5" stroke-width="1.17187" stroke-miterlimit="10" stroke-linecap="round" stroke-linejoin="round"/>
</g>
<path d="M59 50.6672V43.7784" stroke="#2D55A5" stroke-width="1.17187" stroke-miterlimit="10" stroke-linecap="round" stroke-linejoin="round"/>
<path d="M59 43.7788H63.3838V46.9102H59" stroke="#2D55A5" stroke-width="1.17187" stroke-miterlimit="10" stroke-linecap="round" stroke-linejoin="round"/>
<mask id="mask1_2101_34162" style="mask-type:luminance" maskUnits="userSpaceOnUse" x="39" y="41" width="40" height="41">
<path d="M39 41.0017H79V81.0017H39V41.0017Z" fill="white"/>
</mask>
<g mask="url(#mask1_2101_34162)">
<path d="M62.7573 61.9407C62.7573 64.0159 61.0749 65.6982 58.9997 65.6982C56.9245 65.6982 55.2422 64.0159 55.2422 61.9407C55.2422 59.8654 56.9245 58.1831 58.9997 58.1831C61.0749 58.1831 62.7573 59.8654 62.7573 61.9407Z" stroke="#2D55A5" stroke-width="1.17187" stroke-miterlimit="10" stroke-linecap="round" stroke-linejoin="round"/>
<path d="M59 63.1931V61.9406L60.2525 61.3144" stroke="#2D55A5" stroke-width="1.17187" stroke-miterlimit="10" stroke-linecap="round" stroke-linejoin="round"/>
<path d="M59 70.0817V75.718" stroke="#2D55A5" stroke-width="1.17187" stroke-miterlimit="10" stroke-linecap="round" stroke-linejoin="round"/>
<path d="M53.9902 78.2234V75.7184H64.0104V78.2234" stroke="#2D55A5" stroke-width="1.17187" stroke-miterlimit="10" stroke-linecap="round" stroke-linejoin="round"/>
<path d="M62.7573 75.718V70.0817H55.2422V75.718" stroke="#2D55A5" stroke-width="1.17187" stroke-miterlimit="10" stroke-linecap="round" stroke-linejoin="round"/>
<path d="M47.1014 73.8396H52.1114V70.082H43.3438V73.8396H44.5965" stroke="#2D55A5" stroke-width="1.17187" stroke-miterlimit="10" stroke-linecap="round" stroke-linejoin="round"/>
<path d="M43.3438 67.5769H52.1114V63.8193H43.3438V67.5769Z" stroke="#2D55A5" stroke-width="1.17187" stroke-miterlimit="10" stroke-linecap="round" stroke-linejoin="round"/>
<path d="M47.7285 67.5769V63.8193" stroke="#2D55A5" stroke-width="1.17187" stroke-miterlimit="10" stroke-linecap="round" stroke-linejoin="round"/>
<path d="M47.7285 73.8396V70.082" stroke="#2D55A5" stroke-width="1.17187" stroke-miterlimit="10" stroke-linecap="round" stroke-linejoin="round"/>
<path d="M65.8887 73.8396H74.6563V70.082H65.8887V73.8396Z" stroke="#2D55A5" stroke-width="1.17187" stroke-miterlimit="10" stroke-linecap="round" stroke-linejoin="round"/>
<path d="M65.8887 67.5769H74.6563V63.8193H65.8887V67.5769Z" stroke="#2D55A5" stroke-width="1.17187" stroke-miterlimit="10" stroke-linecap="round" stroke-linejoin="round"/>
<path d="M70.2734 67.5769V63.8193" stroke="#2D55A5" stroke-width="1.17187" stroke-miterlimit="10" stroke-linecap="round" stroke-linejoin="round"/>
<path d="M70.2734 73.8396V70.082" stroke="#2D55A5" stroke-width="1.17187" stroke-miterlimit="10" stroke-linecap="round" stroke-linejoin="round"/>
</g>
</g>
</g>
<defs>
<filter id="filter0_d_2101_34162" x="13.38" y="16.92" width="101.48" height="101.48" filterUnits="userSpaceOnUse" color-interpolation-filters="sRGB">
<feFlood flood-opacity="0" result="BackgroundImageFix"/>
<feColorMatrix in="SourceAlpha" type="matrix" values="0 0 0 0 0 0 0 0 0 0 0 0 0 0 0 0 0 0 127 0" result="hardAlpha"/>
<feOffset dx="4.62" dy="6.16"/>
<feGaussianBlur stdDeviation="4.62"/>
<feColorMatrix type="matrix" values="0 0 0 0 0 0 0 0 0 0 0 0 0 0 0 0 0 0 0.25 0"/>
<feBlend mode="normal" in2="BackgroundImageFix" result="effect1_dropShadow_2101_34162"/>
<feBlend mode="normal" in="SourceGraphic" in2="effect1_dropShadow_2101_34162" result="shape"/>
</filter>
<linearGradient id="paint0_linear_2101_34162" x1="114.768" y1="74.5487" x2="0.0202224" y2="76.072" gradientUnits="userSpaceOnUse">
<stop stop-color="#2B54A5" stop-opacity="0.87"/>
<stop offset="1" stop-color="#22AAE1"/>
</linearGradient>
<clipPath id="clip0_2101_34162">
<rect width="121" height="149" fill="white"/>
</clipPath>
<clipPath id="clip1_2101_34162">
<rect width="40" height="40" fill="white" transform="translate(39 41)"/>
</clipPath>
</defs>
</svg>
