<svg width="121" height="149" viewBox="0 0 121 149" fill="none" xmlns="http://www.w3.org/2000/svg">
<g clip-path="url(#clip0_2101_34143)">
<path d="M121 60.8378C120.994 49.6581 117.926 38.6961 112.13 29.1554C106.335 19.6147 98.0374 11.8643 88.1486 6.75518C78.2598 1.64604 67.1623 -0.624272 56.0744 0.19353C44.9866 1.01133 34.3372 4.88562 25.2956 11.391C16.254 17.8964 9.1698 26.7813 4.82086 37.0702C0.471932 47.359 -0.97357 58.654 0.643073 69.7149C2.25972 80.7758 6.87599 91.1748 13.985 99.7703C21.0941 108.366 30.4209 114.825 40.9416 118.439C42.9462 119.141 44.7899 120.241 46.363 121.674C47.9362 123.107 49.2066 124.843 50.0987 126.78L60.5 149.067L70.9013 126.78C71.7732 124.85 73.0232 123.116 74.5766 121.683C76.1301 120.25 77.955 119.147 79.9423 118.439C91.9108 114.352 102.306 106.599 109.67 96.2688C117.034 85.9381 120.996 73.5481 121 60.8378Z" fill="url(#paint0_linear_2101_34143)"/>
<g filter="url(#filter0_d_2101_34143)">
<path d="M101 61.5C101 38.5802 82.4198 20 59.5 20C36.5802 20 18 38.5802 18 61.5C18 84.4198 36.5802 103 59.5 103C82.4198 103 101 84.4198 101 61.5Z" fill="white"/>
</g>
<g clip-path="url(#clip1_2101_34143)">
<path d="M46.3333 81H75.6667C77.0812 81 78.4377 80.4381 79.4379 79.4379C80.4381 78.4377 81 77.0812 81 75.6667V57.6667C81 57.1362 80.7893 56.6275 80.4142 56.2525C80.0391 55.8774 79.5304 55.6667 79 55.6667H71.6667V43.6667C71.6667 42.9594 71.3857 42.2811 70.8856 41.781C70.3855 41.281 69.7072 41 69 41H43.6667C42.9594 41 42.2811 41.281 41.781 41.781C41.281 42.2811 41 42.9594 41 43.6667V75.6667C41.0016 77.0807 41.564 78.4363 42.5639 79.4361C43.5637 80.436 44.9193 80.9984 46.3333 81ZM71.6667 57H79C79.1768 57 79.3464 57.0702 79.4714 57.1953C79.5964 57.3203 79.6667 57.4899 79.6667 57.6667V75.6667C79.6667 76.7275 79.2452 77.7449 78.4951 78.4951C77.7449 79.2452 76.7275 79.6667 75.6667 79.6667H75.6273C75.5993 79.6667 75.5713 79.6667 75.5433 79.6667C74.4813 79.6007 73.4856 79.1278 72.7634 78.3462C72.0413 77.5646 71.6485 76.5346 71.6667 75.4707V57ZM42.3333 43.6667C42.3333 43.313 42.4738 42.9739 42.7239 42.7239C42.9739 42.4738 43.313 42.3333 43.6667 42.3333H69C69.3536 42.3333 69.6928 42.4738 69.9428 42.7239C70.1929 42.9739 70.3333 43.313 70.3333 43.6667V75.4707C70.3333 76.2629 70.5006 77.0463 70.8243 77.7694C71.1481 78.4925 71.621 79.139 72.212 79.6667H46.3333C45.2728 79.6656 44.256 79.2438 43.5061 78.4939C42.7562 77.744 42.3344 76.7272 42.3333 75.6667V43.6667Z" fill="#2D55A5"/>
<path d="M66.3341 64.3334V62.874C66.3344 62.6406 66.2629 62.4127 66.1292 62.2212C65.9955 62.0298 65.8062 61.8842 65.5869 61.8041C65.3676 61.724 65.129 61.7134 64.9034 61.7736C64.6779 61.8338 64.4763 61.962 64.3261 62.1407C63.4794 63.1387 62.0981 63.6667 60.3341 63.6667H57.6674C56.8275 63.6655 56.0181 63.982 55.4019 64.5528C54.7857 65.1236 54.4083 65.9064 54.3453 66.744C54.2823 67.5816 54.5386 68.412 55.0625 69.0685C55.5865 69.725 56.3394 70.159 57.1701 70.2834L58.2161 73.4214C58.3045 73.687 58.4744 73.918 58.7015 74.0817C58.9286 74.2454 59.2015 74.3334 59.4814 74.3334H60.7421C60.9535 74.3337 61.162 74.2837 61.3504 74.1875C61.5387 74.0913 61.7014 73.9517 61.8252 73.7802C61.9489 73.6088 62.0301 73.4103 62.062 73.2013C62.0939 72.9922 62.0757 72.7786 62.0087 72.578L61.2807 70.3947C62.4464 70.4771 63.5365 71.0018 64.3281 71.8614C64.4342 71.988 64.5668 72.0899 64.7165 72.16C64.8663 72.23 65.0295 72.2664 65.1947 72.2667C65.3312 72.2667 65.4666 72.2428 65.5947 72.196C65.8133 72.1157 66.0017 71.9698 66.134 71.7782C66.2664 71.5867 66.3363 71.3589 66.3341 71.126V69.6667C67.0413 69.6667 67.7196 69.3857 68.2197 68.8856C68.7198 68.3855 69.0007 67.7073 69.0007 67C69.0007 66.2928 68.7198 65.6145 68.2197 65.1144C67.7196 64.6143 67.0413 64.3334 66.3341 64.3334ZM57.6674 69C57.137 69 56.6283 68.7893 56.2532 68.4142C55.8781 68.0392 55.6674 67.5305 55.6674 67C55.6674 66.4696 55.8781 65.9609 56.2532 65.5858C56.6283 65.2107 57.137 65 57.6674 65H59.6674V69H57.6674ZM59.4814 73L58.5921 70.3334H59.8541L60.7421 73H59.4814ZM65.0007 70.6334C63.9028 69.6364 62.4833 69.0669 61.0007 69.0287V64.9714C62.4833 64.933 63.9027 64.3635 65.0007 63.3667V70.6334ZM66.3341 68.3334V65.6667C66.6877 65.6667 67.0268 65.8072 67.2769 66.0572C67.5269 66.3073 67.6674 66.6464 67.6674 67C67.6674 67.3536 67.5269 67.6928 67.2769 67.9428C67.0268 68.1929 66.6877 68.3334 66.3341 68.3334Z" fill="#2D55A5"/>
<path d="M44.3327 57.0001H68.3327C68.5095 57.0001 68.6791 56.9298 68.8041 56.8048C68.9291 56.6798 68.9993 56.5102 68.9993 56.3334C68.9993 56.1566 68.9291 55.987 68.8041 55.862C68.6791 55.737 68.5095 55.6667 68.3327 55.6667H44.3327C44.1559 55.6667 43.9863 55.737 43.8613 55.862C43.7363 55.987 43.666 56.1566 43.666 56.3334C43.666 56.5102 43.7363 56.6798 43.8613 56.8048C43.9863 56.9298 44.1559 57.0001 44.3327 57.0001Z" fill="#2D55A5"/>
<path d="M44.3327 53.6666H68.3327C68.5095 53.6666 68.6791 53.5963 68.8041 53.4713C68.9291 53.3463 68.9993 53.1767 68.9993 52.9999C68.9993 52.8231 68.9291 52.6535 68.8041 52.5285C68.6791 52.4035 68.5095 52.3333 68.3327 52.3333H44.3327C44.1559 52.3333 43.9863 52.4035 43.8613 52.5285C43.7363 52.6535 43.666 52.8231 43.666 52.9999C43.666 53.1767 43.7363 53.3463 43.8613 53.4713C43.9863 53.5963 44.1559 53.6666 44.3327 53.6666Z" fill="#2D55A5"/>
<path d="M44.3327 60.3333H68.3327C68.5095 60.3333 68.6791 60.2631 68.8041 60.1381C68.9291 60.013 68.9993 59.8435 68.9993 59.6667C68.9993 59.4899 68.9291 59.3203 68.8041 59.1953C68.6791 59.0702 68.5095 59 68.3327 59H44.3327C44.1559 59 43.9863 59.0702 43.8613 59.1953C43.7363 59.3203 43.666 59.4899 43.666 59.6667C43.666 59.8435 43.7363 60.013 43.8613 60.1381C43.9863 60.2631 44.1559 60.3333 44.3327 60.3333Z" fill="#2D55A5"/>
<path d="M44.3327 77.0001H66.9993C67.1762 77.0001 67.3457 76.9298 67.4708 76.8048C67.5958 76.6798 67.666 76.5102 67.666 76.3334C67.666 76.1566 67.5958 75.987 67.4708 75.862C67.3457 75.737 67.1762 75.6667 66.9993 75.6667H44.3327C44.1559 75.6667 43.9863 75.737 43.8613 75.862C43.7363 75.987 43.666 76.1566 43.666 76.3334C43.666 76.5102 43.7363 76.6798 43.8613 76.8048C43.9863 76.9298 44.1559 77.0001 44.3327 77.0001Z" fill="#2D55A5"/>
<path d="M44.3327 63.6666H52.3327C52.5095 63.6666 52.6791 63.5963 52.8041 63.4713C52.9291 63.3463 52.9993 63.1767 52.9993 62.9999C52.9993 62.8231 52.9291 62.6535 52.8041 62.5285C52.6791 62.4035 52.5095 62.3333 52.3327 62.3333H44.3327C44.1559 62.3333 43.9863 62.4035 43.8613 62.5285C43.7363 62.6535 43.666 62.8231 43.666 62.9999C43.666 63.1767 43.7363 63.3463 43.8613 63.4713C43.9863 63.5963 44.1559 63.6666 44.3327 63.6666Z" fill="#2D55A5"/>
<path d="M44.3327 67.0001H52.3327C52.5095 67.0001 52.6791 66.9298 52.8041 66.8048C52.9291 66.6798 52.9993 66.5102 52.9993 66.3334C52.9993 66.1566 52.9291 65.987 52.8041 65.862C52.6791 65.737 52.5095 65.6667 52.3327 65.6667H44.3327C44.1559 65.6667 43.9863 65.737 43.8613 65.862C43.7363 65.987 43.666 66.1566 43.666 66.3334C43.666 66.5102 43.7363 66.6798 43.8613 66.8048C43.9863 66.9298 44.1559 67.0001 44.3327 67.0001Z" fill="#2D55A5"/>
<path d="M44.3327 70.3333H52.3327C52.5095 70.3333 52.6791 70.2631 52.8041 70.1381C52.9291 70.013 52.9993 69.8435 52.9993 69.6667C52.9993 69.4899 52.9291 69.3203 52.8041 69.1953C52.6791 69.0702 52.5095 69 52.3327 69H44.3327C44.1559 69 43.9863 69.0702 43.8613 69.1953C43.7363 69.3203 43.666 69.4899 43.666 69.6667C43.666 69.8435 43.7363 70.013 43.8613 70.1381C43.9863 70.2631 44.1559 70.3333 44.3327 70.3333Z" fill="#2D55A5"/>
<path d="M44.3327 73.6666H50.9993C51.1762 73.6666 51.3457 73.5963 51.4708 73.4713C51.5958 73.3463 51.666 73.1767 51.666 72.9999C51.666 72.8231 51.5958 72.6535 51.4708 72.5285C51.3457 72.4035 51.1762 72.3333 50.9993 72.3333H44.3327C44.1559 72.3333 43.9863 72.4035 43.8613 72.5285C43.7363 72.6535 43.666 72.8231 43.666 72.9999C43.666 73.1767 43.7363 73.3463 43.8613 73.4713C43.9863 73.5963 44.1559 73.6666 44.3327 73.6666Z" fill="#2D55A5"/>
<path d="M55.0007 50.3334H57.0007C57.1775 50.3334 57.347 50.2632 57.4721 50.1382C57.5971 50.0131 57.6673 49.8436 57.6673 49.6667C57.6673 49.4899 57.5971 49.3204 57.4721 49.1953C57.347 49.0703 57.1775 49.0001 57.0007 49.0001H55.6673V47.6667H56.334C56.5108 47.6667 56.6804 47.5965 56.8054 47.4715C56.9304 47.3465 57.0007 47.1769 57.0007 47.0001C57.0007 46.8233 56.9304 46.6537 56.8054 46.5287C56.6804 46.4037 56.5108 46.3334 56.334 46.3334H55.6673V45.0001H57.0007C57.1775 45.0001 57.347 44.9298 57.4721 44.8048C57.5971 44.6798 57.6673 44.5102 57.6673 44.3334C57.6673 44.1566 57.5971 43.987 57.4721 43.862C57.347 43.737 57.1775 43.6667 57.0007 43.6667H55.0007C54.8238 43.6667 54.6543 43.737 54.5292 43.862C54.4042 43.987 54.334 44.1566 54.334 44.3334V49.6667C54.334 49.8436 54.4042 50.0131 54.5292 50.1382C54.6543 50.2632 54.8238 50.3334 55.0007 50.3334Z" fill="#2D55A5"/>
<path d="M44.3327 50.3334C44.5095 50.3334 44.6791 50.2632 44.8041 50.1382C44.9291 50.0131 44.9993 49.8436 44.9993 49.6667V47.6667H45.666C46.1964 47.6667 46.7052 47.456 47.0802 47.081C47.4553 46.7059 47.666 46.1972 47.666 45.6667C47.666 45.1363 47.4553 44.6276 47.0802 44.2525C46.7052 43.8775 46.1964 43.6667 45.666 43.6667H44.3327C44.1559 43.6667 43.9863 43.737 43.8613 43.862C43.7363 43.987 43.666 44.1566 43.666 44.3334V49.6667C43.666 49.8436 43.7363 50.0131 43.8613 50.1382C43.9863 50.2632 44.1559 50.3334 44.3327 50.3334ZM44.9993 45.0001H45.666C45.8428 45.0001 46.0124 45.0703 46.1374 45.1953C46.2624 45.3204 46.3327 45.4899 46.3327 45.6667C46.3327 45.8436 46.2624 46.0131 46.1374 46.1382C46.0124 46.2632 45.8428 46.3334 45.666 46.3334H44.9993V45.0001Z" fill="#2D55A5"/>
<path d="M49.6667 50.3334C49.8435 50.3334 50.013 50.2632 50.1381 50.1382C50.2631 50.0131 50.3333 49.8436 50.3333 49.6668V47.6668H51C51.1768 47.6668 51.3464 47.737 51.4714 47.862C51.5964 47.9871 51.6667 48.1566 51.6667 48.3334V49.6668C51.6667 49.8436 51.7369 50.0131 51.8619 50.1382C51.987 50.2632 52.1565 50.3334 52.3333 50.3334C52.5101 50.3334 52.6797 50.2632 52.8047 50.1382C52.9298 50.0131 53 49.8436 53 49.6668V48.3334C52.9983 47.8398 52.8129 47.3645 52.48 47.0001C52.7407 46.7143 52.9125 46.3588 52.9744 45.977C53.0364 45.5951 52.9858 45.2035 52.8288 44.85C52.6718 44.4965 52.4153 44.1963 52.0905 43.9862C51.7658 43.776 51.3868 43.6651 51 43.6668H49.6667C49.4899 43.6668 49.3203 43.737 49.1953 43.862C49.0702 43.9871 49 44.1566 49 44.3334V49.6668C49 49.8436 49.0702 50.0131 49.1953 50.1382C49.3203 50.2632 49.4899 50.3334 49.6667 50.3334ZM50.3333 45.0001H51C51.1768 45.0001 51.3464 45.0703 51.4714 45.1954C51.5964 45.3204 51.6667 45.49 51.6667 45.6668C51.6667 45.8436 51.5964 46.0131 51.4714 46.1382C51.3464 46.2632 51.1768 46.3334 51 46.3334H50.3333V45.0001Z" fill="#2D55A5"/>
<path d="M61.0001 47.6667C61.117 47.6669 61.232 47.6978 61.3332 47.7563C61.4345 47.8149 61.5186 47.8991 61.577 48.0005C61.6354 48.1019 61.6661 48.2168 61.6661 48.3338C61.666 48.4508 61.6351 48.5657 61.5766 48.667C61.518 48.7683 61.4339 48.8524 61.3325 48.9109C61.2312 48.9693 61.1162 49.0001 60.9992 49.0001C60.8822 49.0001 60.7673 48.9692 60.666 48.9107C60.5647 48.8522 60.4805 48.7681 60.4221 48.6667C60.3309 48.5193 60.1858 48.4133 60.0178 48.371C59.8497 48.3287 59.6717 48.3535 59.5216 48.4402C59.3715 48.5269 59.2611 48.6687 59.2138 48.8354C59.1664 49.0022 59.1859 49.1808 59.2681 49.3334C59.4436 49.6375 59.6961 49.8899 60.0001 50.0655C60.3041 50.241 60.649 50.3334 61.0001 50.3334C61.3512 50.3334 61.6961 50.241 62.0001 50.0655C62.3042 49.8899 62.5566 49.6374 62.7322 49.3334C62.9077 49.0293 63.0001 48.6845 63.0001 48.3334C63.0001 47.9823 62.9077 47.6374 62.7321 47.3334C62.5566 47.0293 62.3041 46.7769 62.0001 46.6013C61.696 46.4258 61.3511 46.3334 61.0001 46.3334C60.8831 46.3333 60.7681 46.3024 60.6669 46.2438C60.5656 46.1852 60.4815 46.101 60.4231 45.9997C60.3647 45.8983 60.334 45.7833 60.334 45.6663C60.3341 45.5493 60.365 45.4344 60.4235 45.3331C60.4821 45.2318 60.5662 45.1477 60.6676 45.0893C60.7689 45.0308 60.8839 45.0001 61.0009 45.0001C61.1179 45.0001 61.2328 45.0309 61.3341 45.0894C61.4354 45.1479 61.5196 45.2321 61.5781 45.3334C61.6692 45.4808 61.8143 45.5869 61.9823 45.6292C62.1504 45.6715 62.3284 45.6466 62.4785 45.5599C62.6286 45.4732 62.739 45.3315 62.7863 45.1647C62.8337 44.998 62.8142 44.8194 62.7321 44.6667C62.5565 44.3627 62.304 44.1102 62 43.9347C61.696 43.7592 61.3511 43.6667 61 43.6667C60.6489 43.6668 60.304 43.7592 60 43.9347C59.6959 44.1102 59.4435 44.3627 59.2679 44.6668C59.0924 44.9708 59 45.3157 59 45.6668C59 46.0179 59.0924 46.3627 59.268 46.6668C59.4435 46.9708 59.696 47.2233 60 47.3988C60.3041 47.5744 60.649 47.6668 61.0001 47.6667Z" fill="#2D55A5"/>
<path d="M66.334 47.6667C66.451 47.6669 66.5659 47.6978 66.6672 47.7563C66.7685 47.8149 66.8526 47.8991 66.911 48.0005C66.9694 48.1019 67.0001 48.2168 67.0001 48.3338C67 48.4508 66.9691 48.5657 66.9106 48.667C66.852 48.7683 66.7679 48.8524 66.6665 48.9109C66.5652 48.9693 66.4502 49.0001 66.3332 49.0001C66.2162 49.0001 66.1013 48.9692 66 48.9107C65.8987 48.8522 65.8145 48.7681 65.756 48.6667C65.6648 48.5193 65.5198 48.4133 65.3517 48.371C65.1836 48.3287 65.0057 48.3535 64.8556 48.4402C64.7055 48.5269 64.5951 48.6687 64.5478 48.8354C64.5004 49.0022 64.5199 49.1808 64.602 49.3334C64.7776 49.6375 65.0301 49.8899 65.3341 50.0655C65.6381 50.241 65.983 50.3334 66.3341 50.3334C66.6852 50.3334 67.0301 50.241 67.3341 50.0655C67.6381 49.8899 67.8906 49.6374 68.0661 49.3334C68.2417 49.0293 68.3341 48.6845 68.3341 48.3334C68.3341 47.9823 68.2417 47.6374 68.0661 47.3334C67.8906 47.0293 67.6381 46.7769 67.334 46.6013C67.03 46.4258 66.6851 46.3334 66.334 46.3334C66.217 46.3333 66.1021 46.3024 66.0009 46.2438C65.8996 46.1852 65.8155 46.101 65.7571 45.9997C65.6987 45.8983 65.6679 45.7833 65.668 45.6663C65.6681 45.5493 65.6989 45.4344 65.7575 45.3331C65.816 45.2318 65.9002 45.1477 66.0016 45.0893C66.1029 45.0308 66.2178 45.0001 66.3348 45.0001C66.4518 45.0001 66.5668 45.0309 66.6681 45.0894C66.7694 45.1479 66.8535 45.2321 66.912 45.3334C67.0032 45.4808 67.1482 45.5869 67.3163 45.6292C67.4844 45.6715 67.6624 45.6466 67.8125 45.5599C67.9625 45.4732 68.073 45.3315 68.1203 45.1647C68.1676 44.998 68.1482 44.8194 68.066 44.6667C67.8905 44.3627 67.638 44.1102 67.334 43.9347C67.0299 43.7592 66.685 43.6667 66.334 43.6667C65.9829 43.6668 65.638 43.7592 65.334 43.9347C65.0299 44.1102 64.7775 44.3627 64.6019 44.6668C64.4264 44.9708 64.334 45.3157 64.334 45.6668C64.334 46.0179 64.4264 46.3627 64.602 46.6668C64.7775 46.9708 65.03 47.2233 65.334 47.3988C65.6381 47.5744 65.983 47.6668 66.334 47.6667Z" fill="#2D55A5"/>
</g>
</g>
<defs>
<filter id="filter0_d_2101_34143" x="13.38" y="16.92" width="101.48" height="101.48" filterUnits="userSpaceOnUse" color-interpolation-filters="sRGB">
<feFlood flood-opacity="0" result="BackgroundImageFix"/>
<feColorMatrix in="SourceAlpha" type="matrix" values="0 0 0 0 0 0 0 0 0 0 0 0 0 0 0 0 0 0 127 0" result="hardAlpha"/>
<feOffset dx="4.62" dy="6.16"/>
<feGaussianBlur stdDeviation="4.62"/>
<feColorMatrix type="matrix" values="0 0 0 0 0 0 0 0 0 0 0 0 0 0 0 0 0 0 0.25 0"/>
<feBlend mode="normal" in2="BackgroundImageFix" result="effect1_dropShadow_2101_34143"/>
<feBlend mode="normal" in="SourceGraphic" in2="effect1_dropShadow_2101_34143" result="shape"/>
</filter>
<linearGradient id="paint0_linear_2101_34143" x1="114.768" y1="74.5487" x2="0.0202224" y2="76.072" gradientUnits="userSpaceOnUse">
<stop stop-color="#2B54A5" stop-opacity="0.87"/>
<stop offset="1" stop-color="#22AAE1"/>
</linearGradient>
<clipPath id="clip0_2101_34143">
<rect width="121" height="149" fill="white"/>
</clipPath>
<clipPath id="clip1_2101_34143">
<rect width="40" height="40" fill="white" transform="translate(41 41)"/>
</clipPath>
</defs>
</svg>
