<svg width="121" height="149" viewBox="0 0 121 149" fill="none" xmlns="http://www.w3.org/2000/svg">
<g clip-path="url(#clip0_2101_34258)">
<path d="M-1.75722e-05 88.1622C0.00556617 99.3419 3.07448 110.304 8.86978 119.845C14.6651 129.385 22.9626 137.136 32.8514 142.245C42.7402 147.354 53.8377 149.624 64.9256 148.806C76.0134 147.989 86.6628 144.114 95.7044 137.609C104.746 131.104 111.83 122.219 116.179 111.93C120.528 101.641 121.974 90.346 120.357 79.2851C118.74 68.2242 114.124 57.8252 107.015 49.2297C99.9059 40.6343 90.5791 34.1748 80.0584 30.5607C78.0538 29.859 76.2101 28.7589 74.637 27.326C73.0638 25.8931 71.7934 24.1566 70.9013 22.2199L60.5 -0.066732L50.0987 22.2199C49.2269 24.15 47.9768 25.8835 46.4234 27.3167C44.8699 28.7498 43.045 29.8531 41.0577 30.5607C29.0892 34.6476 18.6936 42.4005 11.33 52.7312C3.96642 63.0619 0.00437807 75.4519 -1.75722e-05 88.1622Z" fill="url(#paint0_linear_2101_34258)"/>
<g filter="url(#filter0_d_2101_34258)">
<path d="M19 90.5C19 113.42 37.5802 132 60.5 132C83.4198 132 102 113.42 102 90.5C102 67.5802 83.4198 49 60.5 49C37.5802 49 19 67.5802 19 90.5Z" fill="white"/>
</g>
<g clip-path="url(#clip1_2101_34258)">
<mask id="mask0_2101_34258" style="mask-type:luminance" maskUnits="userSpaceOnUse" x="40" y="70" width="40" height="40">
<path d="M40 70H80V110H40V70Z" fill="white"/>
</mask>
<g mask="url(#mask0_2101_34258)">
<path d="M69.5574 96.3654L73.9238 104.716L73.8957 104.731L67.5301 103.008L65.3121 109.219L60.4551 99.9294" stroke="#2D55A5" stroke-width="1.5625" stroke-miterlimit="10" stroke-linejoin="round"/>
<path d="M50.4406 96.3654L46.0742 104.716L46.1023 104.731L52.468 103.008L54.6859 109.219L59.543 99.9294" stroke="#2D55A5" stroke-width="1.5625" stroke-miterlimit="10" stroke-linejoin="round"/>
<path d="M63.5153 71.2081C69.868 72.7811 74.5773 78.5201 74.5773 85.359C74.5773 93.4101 68.0506 99.9368 59.9996 99.9368C51.9485 99.9368 45.4219 93.4101 45.4219 85.359C45.4219 78.5201 50.1312 72.7812 56.4838 71.2081" stroke="#2D55A5" stroke-width="1.5625" stroke-miterlimit="10" stroke-linecap="round" stroke-linejoin="round"/>
<path d="M60.7812 70.7813C60.7812 71.2127 60.4315 71.5625 60 71.5625C59.5685 71.5625 59.2188 71.2127 59.2188 70.7813C59.2188 70.3498 59.5685 70 60 70C60.4315 70 60.7812 70.3498 60.7812 70.7813Z" fill="#2D55A5"/>
<path d="M59.9996 96.0305C54.1154 96.0305 49.3281 91.2433 49.3281 85.359C49.3281 79.4748 54.1154 74.6876 59.9996 74.6876C65.8838 74.6876 70.6711 79.4748 70.6711 85.359C70.6711 91.2433 65.8838 96.0305 59.9996 96.0305Z" stroke="#2D55A5" stroke-width="1.5625" stroke-miterlimit="10" stroke-linejoin="round"/>
<path d="M58.4648 81.7651H60.0011V88.9526" stroke="#2D55A5" stroke-width="1.5625" stroke-miterlimit="10" stroke-linecap="round" stroke-linejoin="round"/>
</g>
</g>
</g>
<defs>
<filter id="filter0_d_2101_34258" x="14.38" y="45.92" width="101.48" height="101.48" filterUnits="userSpaceOnUse" color-interpolation-filters="sRGB">
<feFlood flood-opacity="0" result="BackgroundImageFix"/>
<feColorMatrix in="SourceAlpha" type="matrix" values="0 0 0 0 0 0 0 0 0 0 0 0 0 0 0 0 0 0 127 0" result="hardAlpha"/>
<feOffset dx="4.62" dy="6.16"/>
<feGaussianBlur stdDeviation="4.62"/>
<feColorMatrix type="matrix" values="0 0 0 0 0 0 0 0 0 0 0 0 0 0 0 0 0 0 0.25 0"/>
<feBlend mode="normal" in2="BackgroundImageFix" result="effect1_dropShadow_2101_34258"/>
<feBlend mode="normal" in="SourceGraphic" in2="effect1_dropShadow_2101_34258" result="shape"/>
</filter>
<linearGradient id="paint0_linear_2101_34258" x1="6.23239" y1="74.4513" x2="120.98" y2="72.928" gradientUnits="userSpaceOnUse">
<stop stop-color="#2B54A5" stop-opacity="0.87"/>
<stop offset="1" stop-color="#22AAE1"/>
</linearGradient>
<clipPath id="clip0_2101_34258">
<rect width="121" height="149" fill="white" transform="translate(121 149) rotate(-180)"/>
</clipPath>
<clipPath id="clip1_2101_34258">
<rect width="40" height="40" fill="white" transform="translate(40 70)"/>
</clipPath>
</defs>
</svg>
