<svg width="121" height="149" viewBox="0 0 121 149" fill="none" xmlns="http://www.w3.org/2000/svg">
<g clip-path="url(#clip0_2101_34280)">
<path d="M-1.75722e-05 88.1622C0.00556617 99.3419 3.07448 110.304 8.86978 119.845C14.6651 129.385 22.9626 137.136 32.8514 142.245C42.7402 147.354 53.8377 149.624 64.9256 148.806C76.0134 147.989 86.6628 144.114 95.7044 137.609C104.746 131.104 111.83 122.219 116.179 111.93C120.528 101.641 121.974 90.346 120.357 79.2851C118.74 68.2242 114.124 57.8252 107.015 49.2297C99.9059 40.6343 90.5791 34.1748 80.0584 30.5607C78.0538 29.859 76.2101 28.7589 74.637 27.326C73.0638 25.8931 71.7934 24.1566 70.9013 22.2199L60.5 -0.066732L50.0987 22.2199C49.2269 24.15 47.9768 25.8835 46.4234 27.3167C44.8699 28.7498 43.045 29.8531 41.0577 30.5607C29.0892 34.6476 18.6936 42.4005 11.33 52.7312C3.96642 63.0619 0.00437807 75.4519 -1.75722e-05 88.1622Z" fill="url(#paint0_linear_2101_34280)"/>
<g filter="url(#filter0_d_2101_34280)">
<path d="M18 87.5C18 110.42 36.5802 129 59.5 129C82.4198 129 101 110.42 101 87.5C101 64.5802 82.4198 46 59.5 46C36.5802 46 18 64.5802 18 87.5Z" fill="white"/>
</g>
<g clip-path="url(#clip1_2101_34280)">
<path d="M78.3337 67H78.3333H39.6667C39.2986 66.9999 39.0001 67.2983 39 67.6663V67.6667V81H40.3333V68.3333H77.6667V83H54.3333V84.3333H78.3333C78.7014 84.3334 78.9999 84.0351 79 83.667V83.6667V67.6667C79.0001 67.2986 78.7018 67.0001 78.3337 67Z" fill="#2D55A5"/>
<path d="M74.3333 70.334H61V71.6673H74.3333V70.334Z" fill="#2D55A5"/>
<path d="M76.3333 74.334H63V75.6673H76.3333V74.334Z" fill="#2D55A5"/>
<path d="M73.6673 78.334H60.334V79.6673H73.6673V78.334Z" fill="#2D55A5"/>
<path d="M60.2802 72.7472C59.8237 71.6501 58.5644 71.1308 57.4674 71.5872C57.4487 71.595 57.43 71.603 57.4115 71.6113L52.0058 74.4155C52.219 73.9737 52.3309 73.4898 52.3333 72.9993C52.3333 71.1584 50.8409 69.666 49 69.666C47.1591 69.666 45.6667 71.1584 45.6667 72.9993C45.6692 73.7229 45.9094 74.4257 46.3504 74.9993H46.3227C44.4303 75.012 42.7411 76.1884 42.073 77.959L40.2933 84.0931C39.8697 85.1936 40.4183 86.4293 41.5189 86.8529C42.0207 87.0461 42.577 87.0428 43.0766 86.8438C43.6506 86.6125 44.0972 86.1455 44.3028 85.5618L45 83.3431V92.9917C44.4263 92.5508 43.7236 92.3105 43 92.3079C41.1618 92.3052 39.6694 93.7931 39.6667 95.6313C39.6653 96.5316 40.0287 97.3939 40.6739 98.0218C39.6499 98.5449 39.004 99.5963 39 100.746V106.333C38.9999 106.701 39.2982 106.999 39.6663 106.999H39.6667H46.3333C46.7014 106.999 46.9999 106.701 47 106.333V106.333V100.746C46.9967 99.8012 46.5577 98.9107 45.8103 98.3327H50.8564C50.1089 98.9107 49.6699 99.8012 49.6667 100.746V106.333C49.6667 106.701 49.965 106.999 50.3331 106.999H50.3334H57.0001C57.3682 106.999 57.6667 106.701 57.6667 106.333V106.333V100.746C57.6628 99.5963 57.0168 98.5449 55.9928 98.0218C57.3091 96.737 57.3347 94.6284 56.0499 93.3122C55.2587 92.5016 54.1098 92.1487 53.0001 92.3753V78.7376L59.1202 75.5598C60.2172 75.1035 60.7365 73.8442 60.2802 72.7472ZM49 70.9993C50.1046 70.9993 51 71.8948 51 72.9993C51 74.1039 50.1046 74.9993 49 74.9993C47.8959 74.9982 47.0012 74.1034 47 72.9993C47 71.8948 47.8954 70.9993 49 70.9993ZM43 93.6413C44.1046 93.6413 45 94.5367 45 95.6413C45 96.7458 44.1046 97.6413 43 97.6413C41.8954 97.6413 41 96.7458 41 95.6413C41.0012 94.5372 41.8959 93.6425 43 93.6413ZM45.6667 105.666H40.3333V100.746C40.3347 99.7818 41.1161 99.0005 42.0804 98.9993H43.9196C44.8838 99.0005 45.6653 99.7818 45.6667 100.746V105.666ZM56.3333 100.746V105.666H51V100.746C51.0013 99.7818 51.7827 99.0005 52.7471 98.9993H54.5862C55.5506 99.0005 56.332 99.7818 56.3333 100.746ZM53.6667 93.6413C54.7707 93.6424 55.6655 94.5372 55.6667 95.6413C55.6667 96.7458 54.7712 97.6413 53.6667 97.6413C52.5621 97.6413 51.6667 96.7458 51.6667 95.6413C51.6667 94.5367 52.5621 93.6413 53.6667 93.6413ZM59.0602 73.8593C58.971 74.0883 58.7878 74.2681 58.557 74.3528L52.0264 77.7408C51.8054 77.8555 51.6667 78.0838 51.6667 78.3327V92.9917C50.4179 93.915 49.9853 95.5861 50.6293 96.9993H49.6667V85.666H48.3333V96.9993H46.0373C46.227 96.5802 46.3269 96.126 46.3308 95.666H46.3333V78.9993C46.3332 78.6311 46.0347 78.3327 45.6665 78.3328C45.3754 78.3328 45.118 78.5218 45.0307 78.7995L43.04 85.1341C42.8892 85.5501 42.4296 85.7651 42.0136 85.6142C41.9844 85.6036 41.9558 85.5913 41.928 85.5774C41.5434 85.3787 41.3802 84.9147 41.5557 84.5188L43.3352 78.3848C43.8152 77.1523 44.9999 76.3384 46.3226 76.3327H51.043C51.1498 76.3328 51.2552 76.3071 51.35 76.2578L57.976 72.8184C58.3735 72.6526 58.8317 72.8223 59.0252 73.2071C59.1277 73.4099 59.1405 73.6466 59.0602 73.8593Z" fill="#2D55A5"/>
<path d="M66.6601 98.0219C67.9787 96.7372 68.0062 94.6268 66.7215 93.3082C65.4368 91.9897 63.3264 91.9622 62.0078 93.2468C60.6892 94.5315 60.6617 96.6419 61.9464 97.9605C61.9667 97.9812 61.9872 98.0017 62.0079 98.0219C60.984 98.5451 60.338 99.5964 60.334 100.746V106.333C60.3339 106.701 60.6322 106.999 61.0003 106.999C61.0004 106.999 61.0006 106.999 61.0007 106.999H67.6673C68.0354 107 68.3339 106.701 68.334 106.333C68.334 106.333 68.334 106.333 68.334 106.333V100.746C68.33 99.5964 67.6841 98.5451 66.6601 98.0219ZM64.334 93.6414C65.4386 93.6414 66.334 94.5368 66.334 95.6414C66.334 96.746 65.4386 97.6414 64.334 97.6414C63.2294 97.6414 62.334 96.746 62.334 95.6414C62.3352 94.5373 63.2299 93.6427 64.334 93.6414ZM67.0007 105.666H61.6673V100.746C61.6687 99.782 62.4501 99.0007 63.4144 98.9995H65.2536C66.2178 99.0007 66.9993 99.782 67.0007 100.746V105.666Z" fill="#2D55A5"/>
<path d="M77.3261 98.0219C78.6447 96.7372 78.6722 94.6268 77.3875 93.3082C76.1028 91.9897 73.9924 91.9622 72.6738 93.2468C71.3552 94.5315 71.3277 96.6419 72.6124 97.9605C72.6327 97.9812 72.6532 98.0017 72.6739 98.0219C71.65 98.5451 71.004 99.5964 71 100.746V106.333C70.9999 106.701 71.2983 106.999 71.6663 106.999C71.6664 106.999 71.6666 106.999 71.6667 106.999H78.3333C78.7014 107 78.9999 106.701 79 106.333C79 106.333 79 106.333 79 106.333V100.746C78.996 99.5964 78.3501 98.5451 77.3261 98.0219ZM75 93.6414C76.1046 93.6414 77 94.5368 77 95.6414C77 96.746 76.1046 97.6414 75 97.6414C73.8954 97.6414 73 96.746 73 95.6414C73.0012 94.5373 73.8959 93.6427 75 93.6414ZM77.6667 105.666H72.3333V100.746C72.3347 99.782 73.1161 99.0007 74.0804 98.9995H75.9196C76.8838 99.0007 77.6653 99.782 77.6667 100.746V105.666Z" fill="#2D55A5"/>
</g>
</g>
<defs>
<filter id="filter0_d_2101_34280" x="13.38" y="42.92" width="101.48" height="101.48" filterUnits="userSpaceOnUse" color-interpolation-filters="sRGB">
<feFlood flood-opacity="0" result="BackgroundImageFix"/>
<feColorMatrix in="SourceAlpha" type="matrix" values="0 0 0 0 0 0 0 0 0 0 0 0 0 0 0 0 0 0 127 0" result="hardAlpha"/>
<feOffset dx="4.62" dy="6.16"/>
<feGaussianBlur stdDeviation="4.62"/>
<feColorMatrix type="matrix" values="0 0 0 0 0 0 0 0 0 0 0 0 0 0 0 0 0 0 0.25 0"/>
<feBlend mode="normal" in2="BackgroundImageFix" result="effect1_dropShadow_2101_34280"/>
<feBlend mode="normal" in="SourceGraphic" in2="effect1_dropShadow_2101_34280" result="shape"/>
</filter>
<linearGradient id="paint0_linear_2101_34280" x1="6.23239" y1="74.4513" x2="120.98" y2="72.928" gradientUnits="userSpaceOnUse">
<stop stop-color="#2B54A5" stop-opacity="0.87"/>
<stop offset="1" stop-color="#22AAE1"/>
</linearGradient>
<clipPath id="clip0_2101_34280">
<rect width="121" height="149" fill="white" transform="translate(121 149) rotate(-180)"/>
</clipPath>
<clipPath id="clip1_2101_34280">
<rect width="40" height="40" fill="white" transform="translate(39 67)"/>
</clipPath>
</defs>
</svg>
