<svg xmlns="http://www.w3.org/2000/svg" width="40" height="40" viewBox="0 0 40 40" fill="none"> <path d="M28.1066 36.6998H11.9359C10.5179 36.6998 9.36426 35.5462 9.36426 34.1281V3.49252C9.36426 2.07456 10.5178 0.920898 11.9359 0.920898H28.1066C29.5246 0.920898 30.6782 2.07448 30.6782 3.49252V34.1281C30.6782 35.5462 29.5246 36.6998 28.1066 36.6998ZM11.9359 1.73391C10.9662 1.73391 10.1773 2.52285 10.1773 3.49252V34.1281C10.1773 35.0979 10.9662 35.8867 11.9359 35.8867H28.1066C29.0764 35.8867 29.8652 35.0979 29.8652 34.1281V3.49252C29.8652 2.52285 29.0764 1.73391 28.1066 1.73391H11.9359Z" fill="#2D55A5"></path> <path d="M30.2717 6.80227H9.77076C9.54629 6.80227 9.36426 6.62023 9.36426 6.39576C9.36426 6.17129 9.54629 5.98926 9.77076 5.98926H30.2717C30.4963 5.98926 30.6782 6.17129 30.6782 6.39576C30.6782 6.62023 30.4963 6.80227 30.2717 6.80227Z" fill="#2D55A5"></path> <path d="M30.2717 31.6314H9.77076C9.54629 31.6314 9.36426 31.4494 9.36426 31.2249C9.36426 31.0003 9.54629 30.8184 9.77076 30.8184H30.2717C30.4963 30.8184 30.6782 31.0003 30.6782 31.2249C30.6782 31.4494 30.4963 31.6314 30.2717 31.6314Z" fill="#2D55A5"></path> <path d="M22.1064 4.99234H17.9355C17.312 4.99234 16.8047 4.4851 16.8047 3.86153C16.8047 3.23795 17.3119 2.73071 17.9355 2.73071H22.1064C22.73 2.73071 23.2372 3.23803 23.2372 3.86153C23.2372 4.48502 22.73 4.99234 22.1064 4.99234ZM17.9355 3.54372C17.7603 3.54372 17.6177 3.68624 17.6177 3.86153C17.6177 4.03673 17.7602 4.17933 17.9355 4.17933H22.1064C22.2816 4.17933 22.4242 4.03681 22.4242 3.86153C22.4242 3.68624 22.2816 3.54372 22.1064 3.54372H17.9355Z" fill="#2D55A5"></path> <path d="M14.5302 4.99234C13.9067 4.99234 13.3994 4.4851 13.3994 3.86153C13.3994 3.23795 13.9066 2.73071 14.5302 2.73071C15.1538 2.73071 15.661 3.23803 15.661 3.86153C15.661 4.48502 15.1537 4.99234 14.5302 4.99234ZM14.5302 3.54372C14.355 3.54372 14.2124 3.68624 14.2124 3.86153C14.2124 4.03673 14.3549 4.17933 14.5302 4.17933C14.7055 4.17933 14.848 4.03681 14.848 3.86153C14.848 3.68624 14.7055 3.54372 14.5302 3.54372Z" fill="#2D55A5"></path> <path d="M21.8899 34.1655H18.1526C17.9281 34.1655 17.7461 33.9836 17.7461 33.759C17.7461 33.5345 17.9281 33.3525 18.1526 33.3525H21.8899C22.1145 33.3525 22.2964 33.5345 22.2964 33.759C22.2964 33.9836 22.1145 34.1655 21.8899 34.1655Z" fill="#2D55A5"></path> <path d="M14.7571 34.1655H12.8059C12.5814 34.1655 12.3994 33.9836 12.3994 33.759C12.3994 33.5345 12.5814 33.3525 12.8059 33.3525H14.7571C14.9816 33.3525 15.1636 33.5345 15.1636 33.759C15.1636 33.9836 14.9816 34.1655 14.7571 34.1655Z" fill="#2D55A5"></path> <path d="M27.2367 34.1655H25.2854C25.0609 34.1655 24.8789 33.9836 24.8789 33.759C24.8789 33.5345 25.0609 33.3525 25.2854 33.3525H27.2367C27.4613 33.3525 27.6432 33.5345 27.6432 33.759C27.6432 33.9836 27.4612 34.1655 27.2367 34.1655Z" fill="#2D55A5"></path> <path d="M25.7919 26.5777H14.2512C13.2442 26.5777 12.4248 25.7583 12.4248 24.7512V13.9296C12.4248 12.9225 13.2442 12.1033 14.2512 12.1033H15.5047C15.7292 12.1033 15.9112 12.2853 15.9112 12.5098C15.9112 12.7342 15.7292 12.9163 15.5047 12.9163H14.2512C13.6924 12.9163 13.2378 13.3708 13.2378 13.9296V24.7512C13.2378 25.31 13.6924 25.7647 14.2512 25.7647H25.7919C26.3507 25.7647 26.8053 25.31 26.8053 24.7512V13.9296C26.8053 13.3708 26.3507 12.9163 25.7919 12.9163H24.5383C24.3137 12.9163 24.1318 12.7342 24.1318 12.5098C24.1318 12.2853 24.3137 12.1033 24.5383 12.1033H25.7919C26.7989 12.1033 27.6183 12.9226 27.6183 13.9296V24.7512C27.6183 25.7583 26.7989 26.5777 25.7919 26.5777ZM22.9565 12.9163H20.8124C20.5879 12.9163 20.4059 12.7342 20.4059 12.5098C20.4059 12.2853 20.5879 12.1033 20.8124 12.1033H22.9565C23.1811 12.1033 23.363 12.2853 23.363 12.5098C23.363 12.7342 23.1811 12.9163 22.9565 12.9163ZM19.2307 12.9163H17.0866C16.8621 12.9163 16.6801 12.7342 16.6801 12.5098C16.6801 12.2853 16.8621 12.1033 17.0866 12.1033H19.2307C19.4551 12.1033 19.6372 12.2853 19.6372 12.5098C19.6372 12.7342 19.4551 12.9163 19.2307 12.9163Z" fill="#2D55A5"></path> <path d="M16.2961 15.2709C15.6359 15.2709 15.0986 14.7338 15.0986 14.0735V12.24C15.0986 11.5797 15.6358 11.0425 16.2961 11.0425C16.9564 11.0425 17.4936 11.5796 17.4936 12.24V14.0735C17.4935 14.7339 16.9564 15.2709 16.2961 15.2709ZM16.2961 11.8556C16.0842 11.8556 15.9116 12.028 15.9116 12.24V14.0736C15.9116 14.2856 16.0841 14.458 16.2961 14.458C16.5081 14.458 16.6806 14.2856 16.6806 14.0736V12.24C16.6805 12.028 16.5081 11.8556 16.2961 11.8556Z" fill="#2D55A5"></path> <path d="M20.0217 15.2709C19.3615 15.2709 18.8242 14.7338 18.8242 14.0735V12.24C18.8242 11.5797 19.3614 11.0425 20.0217 11.0425C20.6819 11.0425 21.2191 11.5796 21.2191 12.24V14.0735C21.2191 14.7339 20.6819 15.2709 20.0217 15.2709ZM20.0217 11.8556C19.8097 11.8556 19.6372 12.028 19.6372 12.24V14.0736C19.6372 14.2856 19.8097 14.458 20.0217 14.458C20.2336 14.458 20.4061 14.2856 20.4061 14.0736V12.24C20.4061 12.028 20.2336 11.8556 20.0217 11.8556Z" fill="#2D55A5"></path> <path d="M23.7473 15.2709C23.087 15.2709 22.5498 14.7338 22.5498 14.0735V12.24C22.5498 11.5797 23.087 11.0425 23.7473 11.0425C24.4076 11.0425 24.9447 11.5796 24.9447 12.24V14.0735C24.9446 14.7339 24.4075 15.2709 23.7473 15.2709ZM23.7473 11.8556C23.5353 11.8556 23.3628 12.028 23.3628 12.24V14.0736C23.3628 14.2856 23.5353 14.458 23.7473 14.458C23.9592 14.458 24.1317 14.2856 24.1317 14.0736V12.24C24.1316 12.028 23.9592 11.8556 23.7473 11.8556Z" fill="#2D55A5"></path> <path d="M27.2118 16.7805H12.8313C12.6068 16.7805 12.4248 16.5985 12.4248 16.374C12.4248 16.1496 12.6068 15.9675 12.8313 15.9675H27.2118C27.4363 15.9675 27.6183 16.1496 27.6183 16.374C27.6183 16.5985 27.4363 16.7805 27.2118 16.7805Z" fill="#2D55A5"></path> <path d="M16.327 18.6917H14.7981C14.5736 18.6917 14.3916 18.5096 14.3916 18.2852C14.3916 18.0607 14.5736 17.8787 14.7981 17.8787H16.327C16.5514 17.8787 16.7335 18.0607 16.7335 18.2852C16.7335 18.5096 16.5514 18.6917 16.327 18.6917Z" fill="#2D55A5"></path> <path d="M19.2996 18.6917H17.7708C17.5463 18.6917 17.3643 18.5096 17.3643 18.2852C17.3643 18.0607 17.5463 17.8787 17.7708 17.8787H19.2996C19.5241 17.8787 19.7061 18.0607 19.7061 18.2852C19.7061 18.5096 19.5241 18.6917 19.2996 18.6917Z" fill="#2D55A5"></path> <path d="M22.2723 18.6917H20.7434C20.5189 18.6917 20.3369 18.5096 20.3369 18.2852C20.3369 18.0607 20.5189 17.8787 20.7434 17.8787H22.2723C22.4968 17.8787 22.6788 18.0607 22.6788 18.2852C22.6788 18.5096 22.4968 18.6917 22.2723 18.6917Z" fill="#2D55A5"></path> <path d="M25.2449 18.6917H23.7161C23.4915 18.6917 23.3096 18.5096 23.3096 18.2852C23.3096 18.0607 23.4915 17.8787 23.7161 17.8787H25.2449C25.4695 17.8787 25.6514 18.0607 25.6514 18.2852C25.6514 18.5096 25.4694 18.6917 25.2449 18.6917Z" fill="#2D55A5"></path> <path d="M16.327 20.6834H14.7981C14.5736 20.6834 14.3916 20.5014 14.3916 20.2769C14.3916 20.0523 14.5736 19.8704 14.7981 19.8704H16.327C16.5514 19.8704 16.7335 20.0523 16.7335 20.2769C16.7335 20.5014 16.5514 20.6834 16.327 20.6834Z" fill="#2D55A5"></path> <path d="M19.2996 20.6834H17.7708C17.5463 20.6834 17.3643 20.5014 17.3643 20.2769C17.3643 20.0523 17.5463 19.8704 17.7708 19.8704H19.2996C19.5241 19.8704 19.7061 20.0523 19.7061 20.2769C19.7061 20.5014 19.5241 20.6834 19.2996 20.6834Z" fill="#2D55A5"></path> <path d="M22.2723 20.6834H20.7434C20.5189 20.6834 20.3369 20.5014 20.3369 20.2769C20.3369 20.0523 20.5189 19.8704 20.7434 19.8704H22.2723C22.4968 19.8704 22.6788 20.0523 22.6788 20.2769C22.6788 20.5014 22.4968 20.6834 22.2723 20.6834Z" fill="#2D55A5"></path> <path d="M25.2449 20.6834H23.7161C23.4915 20.6834 23.3096 20.5014 23.3096 20.2769C23.3096 20.0523 23.4915 19.8704 23.7161 19.8704H25.2449C25.4695 19.8704 25.6514 20.0523 25.6514 20.2769C25.6514 20.5014 25.4694 20.6834 25.2449 20.6834Z" fill="#2D55A5"></path> <path d="M16.327 22.6751H14.7981C14.5736 22.6751 14.3916 22.4931 14.3916 22.2686C14.3916 22.044 14.5736 21.8621 14.7981 21.8621H16.327C16.5514 21.8621 16.7335 22.044 16.7335 22.2686C16.7335 22.4931 16.5514 22.6751 16.327 22.6751Z" fill="#2D55A5"></path> <path d="M19.2996 22.6751H17.7708C17.5463 22.6751 17.3643 22.4931 17.3643 22.2686C17.3643 22.044 17.5463 21.8621 17.7708 21.8621H19.2996C19.5241 21.8621 19.7061 22.044 19.7061 22.2686C19.7061 22.4931 19.5241 22.6751 19.2996 22.6751Z" fill="#2D55A5"></path> <path d="M22.2723 22.6751H20.7434C20.5189 22.6751 20.3369 22.4931 20.3369 22.2686C20.3369 22.044 20.5189 21.8621 20.7434 21.8621H22.2723C22.4968 21.8621 22.6788 22.044 22.6788 22.2686C22.6788 22.4931 22.4968 22.6751 22.2723 22.6751Z" fill="#2D55A5"></path> <path d="M25.2449 22.6751H23.7161C23.4915 22.6751 23.3096 22.4931 23.3096 22.2686C23.3096 22.044 23.4915 21.8621 23.7161 21.8621H25.2449C25.4695 21.8621 25.6514 22.044 25.6514 22.2686C25.6514 22.4931 25.4694 22.6751 25.2449 22.6751Z" fill="#2D55A5"></path> <path d="M16.327 24.6668H14.7981C14.5736 24.6668 14.3916 24.4848 14.3916 24.2603C14.3916 24.0357 14.5736 23.8538 14.7981 23.8538H16.327C16.5514 23.8538 16.7335 24.0357 16.7335 24.2603C16.7335 24.4848 16.5514 24.6668 16.327 24.6668Z" fill="#2D55A5"></path> <path d="M19.2996 24.6668H17.7708C17.5463 24.6668 17.3643 24.4848 17.3643 24.2603C17.3643 24.0357 17.5463 23.8538 17.7708 23.8538H19.2996C19.5241 23.8538 19.7061 24.0357 19.7061 24.2603C19.7061 24.4848 19.5241 24.6668 19.2996 24.6668Z" fill="#2D55A5"></path> <path d="M22.2723 24.6668H20.7434C20.5189 24.6668 20.3369 24.4848 20.3369 24.2603C20.3369 24.0357 20.5189 23.8538 20.7434 23.8538H22.2723C22.4968 23.8538 22.6788 24.0357 22.6788 24.2603C22.6788 24.4848 22.4968 24.6668 22.2723 24.6668Z" fill="#2D55A5"></path> <path d="M25.2449 24.6668H23.7161C23.4915 24.6668 23.3096 24.4848 23.3096 24.2603C23.3096 24.0357 23.4915 23.8538 23.7161 23.8538H25.2449C25.4695 23.8538 25.6514 24.0357 25.6514 24.2603C25.6514 24.4848 25.4694 24.6668 25.2449 24.6668Z" fill="#2D55A5"></path> </svg>