<svg xmlns="http://www.w3.org/2000/svg" width="41" height="40" viewBox="0 0 41 40" fill="none"> <g clip-path="url(#clip0_106_3288)"> <path d="M29.1107 10.2778H11.8884C11.2773 10.2778 10.7773 10.7778 10.7773 11.3889V28.6112C10.7773 29.2223 11.2773 29.7223 11.8884 29.7223H29.1107C29.7218 29.7223 30.2218 29.2223 30.2218 28.6112V11.389C30.2218 10.7779 29.7218 10.2778 29.1107 10.2778ZM27.9995 27.5001H12.9995V23.3334H15.2217C15.8329 23.3334 16.3328 22.8334 16.3328 22.2223C16.3328 21.6112 15.8329 21.1112 15.2217 21.1112H12.9995V18.889H17.444C18.0551 18.889 18.5551 18.389 18.5551 17.7779C18.5551 17.1668 18.0551 16.6668 17.444 16.6668H12.9995V12.5002H27.9995V27.5001Z" fill="#2D55A5"></path> <path d="M40.5 17.1111C40.5 16.5 40 16 39.3889 16H35.8333V12.5001H39.3889C40 12.5001 40.5 12.0001 40.5 11.389C40.5 10.7779 40 10.2779 39.3889 10.2779H35.8333V7.88893C35.8333 6.11114 34.3889 4.66674 32.6111 4.66674H30.2222V1.11108C30.2222 0.499974 29.7223 0 29.1112 0C28.5001 0 28.0001 0.499974 28.0001 1.11108V4.66666H24.4444V1.11108C24.4444 0.499974 23.9445 0 23.3333 0C22.7222 0 22.2223 0.499974 22.2223 1.11108V4.66666H18.6667V1.11108C18.6667 0.499974 18.1667 0 17.5556 0C16.9445 0 16.4445 0.499974 16.4445 1.11108V4.66666H13.0001V1.11108C13 0.499974 12.5 0 11.8889 0C11.2778 0 10.7778 0.499974 10.7778 1.11108V4.66666H8.38893C6.61114 4.66666 5.16674 6.11114 5.16674 7.88885V10.2778H1.61108C0.999974 10.2778 0.5 10.7778 0.5 11.3889C0.5 12 0.999974 12.5 1.61108 12.5H5.16666V16.0556H1.61108C0.999974 16.0556 0.5 16.5555 0.5 17.1667C0.5 17.7778 0.999974 18.2777 1.61108 18.2777H5.16666V21.8333H1.61108C0.999974 21.8333 0.5 22.3334 0.5 22.9445C0.5 23.5556 0.999974 24.0556 1.61108 24.0556H5.16666V27.5H1.61108C0.999974 27.5 0.5 28 0.5 28.6112C0.5 29.2223 0.999974 29.7222 1.61108 29.7222H5.16666V32.1111C5.16666 33.8889 6.61114 35.3333 8.38885 35.3333H10.7778V38.8889C10.7778 39.5 11.2777 40 11.8888 40C12.4999 40 12.9999 39.5 12.9999 38.8889V35.3333H16.5555V38.8889C16.5555 39.5 17.0555 40 17.6666 40C18.2777 40 18.7777 39.5 18.7777 38.8889V35.3333H22.3332V38.8889C22.3332 39.5 22.8332 40 23.4443 40C24.0554 40 24.5554 39.5 24.5554 38.8889V35.3333H27.9999V38.8889C27.9999 39.5 28.4998 40 29.1109 40C29.722 40 30.222 39.5 30.222 38.8889V35.3333H32.6109C34.3887 35.3333 35.8331 33.8889 35.8331 32.1111V29.7222H39.3887C39.9998 29.7222 40.4998 29.2223 40.4998 28.6112C40.4998 28.0001 39.9998 27.5001 39.3887 27.5001H35.8331V23.9444H39.3887C39.9998 23.9444 40.4998 23.4445 40.4998 22.8333C40.4998 22.2222 39.9998 21.7223 39.3887 21.7223H35.8331V18.1667H39.3887V18.2222C40 18.2222 40.5 17.7222 40.5 17.1111ZM33.6667 32.1111H33.6112C33.6112 32.6667 33.1667 33.1112 32.6111 33.1112H8.38893C7.83335 33.1112 7.3889 32.6667 7.3889 32.1111V7.88893C7.3889 7.33335 7.83335 6.8889 8.38893 6.8889H32.6668C33.2223 6.8889 33.6668 7.33335 33.6668 7.88893V32.1111H33.6667Z" fill="#2D55A5"></path> </g> <defs> <clipPath id="clip0_106_3288"> <rect width="40" height="40" fill="white" transform="translate(0.5)"></rect> </clipPath> </defs> </svg>