<svg xmlns="http://www.w3.org/2000/svg" width="41" height="40" viewBox="0 0 41 40" fill="none"> <path d="M21.5716 2.85718H19.4287V4.28577H21.5716V2.85718Z" fill="#2D55A5"></path> <path d="M20.5 32.8572C19.1216 32.8572 18 33.9788 18 35.3572C18 36.7355 19.1216 37.8572 20.5 37.8572C21.8784 37.8572 23 36.7355 23 35.3572C23 33.9788 21.8784 32.8572 20.5 32.8572ZM20.5 36.4287C19.9091 36.4287 19.4286 35.948 19.4286 35.3573C19.4286 34.7665 19.9092 34.2858 20.5 34.2858C21.0908 34.2858 21.5714 34.7665 21.5714 35.3573C21.5714 35.948 21.0909 36.4287 20.5 36.4287Z" fill="#2D55A5"></path> <path d="M32.2812 0H8.71812C6.74687 0 5.14258 1.59984 5.14258 3.56617V36.4337C5.14258 38.4002 6.74695 39.9999 8.7182 39.9999H32.2812C34.2525 39.9999 35.8569 38.4001 35.8569 36.4337V3.56617C35.8568 1.59984 34.2525 0 32.2812 0ZM34.4283 36.4338C34.4283 37.6127 33.465 38.5715 32.2812 38.5715H8.71812C7.53437 38.5715 6.57109 37.6127 6.57109 36.4338V3.56617C6.57109 2.38734 7.53437 1.42852 8.71812 1.42852H32.2812C33.4649 1.42852 34.4282 2.38727 34.4282 3.56617L34.4283 36.4338Z" fill="#2D55A5"></path> </svg>