<svg xmlns="http://www.w3.org/2000/svg" width="41" height="40" viewBox="0 0 41 40" fill="none"> <g clip-path="url(#clip0_106_3297)"> <mask id="mask0_106_3297" style="mask-type:luminance" maskUnits="userSpaceOnUse" x="0" y="0" width="41" height="40"> <path d="M40.5 0H0.5V40H40.5V0Z" fill="white"></path> <path d="M18.4665 29.711C18.3328 29.8441 18.1302 29.9211 17.9383 29.9219C17.6652 29.9229 17.4519 29.777 17.4531 29.5312C17.4534 29.4721 17.4683 29.4066 17.501 29.3352L19.6006 23.5156H16.4618C15.2529 23.5156 14.4893 22.2337 15.0775 21.1849L18.6777 14.7656H24.2235L21.3644 19.375H24.983C25.9658 19.375 26.4828 20.5323 25.8424 21.2727L18.4665 29.711Z" fill="white"></path> </mask> <g mask="url(#mask0_106_3297)"> <mask id="mask1_106_3297" style="mask-type:luminance" maskUnits="userSpaceOnUse" x="0" y="0" width="41" height="40"> <path d="M0.5 7.62939e-06H40.5V40H0.5V7.62939e-06Z" fill="white"></path> </mask> <g mask="url(#mask1_106_3297)"> <path d="M31.0469 25.8594V9.37501C31.0469 6.78618 28.9482 4.68751 26.3594 4.68751H24.3281V2.6786C24.3281 2.0622 23.8284 1.56251 23.212 1.56251H17.6317C17.0153 1.56251 16.5156 2.0622 16.5156 2.6786V4.68751H14.4844C11.8955 4.68751 9.79688 6.78618 9.79688 9.37501V33.75C9.79688 36.3388 11.8955 38.4375 14.4844 38.4375H26.3594C28.9482 38.4375 31.0469 36.3388 31.0469 33.75" stroke="#2D55A5" stroke-width="1.625" stroke-miterlimit="10" stroke-linecap="round" stroke-linejoin="round"></path> <path d="M18.4665 29.711C18.3328 29.8441 18.1302 29.9211 17.9383 29.9219C17.6652 29.9229 17.4519 29.777 17.4531 29.5312C17.4534 29.4721 17.4683 29.4066 17.501 29.3352L19.6006 23.5156H16.4618C15.2529 23.5156 14.4893 22.2337 15.0775 21.1849L18.6777 14.7656H24.2235L21.3644 19.375H24.983C25.9658 19.375 26.4828 20.5323 25.8424 21.2727L18.4665 29.711Z" fill="#2D55A5"></path> </g> </g> </g> <defs> <clipPath id="clip0_106_3297"> <rect width="40" height="40" fill="white" transform="translate(0.5)"></rect> </clipPath> </defs> </svg>