<svg xmlns="http://www.w3.org/2000/svg" width="41" height="40" viewBox="0 0 41 40" fill="none"> <g clip-path="url(#clip0_106_3393)"> <mask id="mask0_106_3393" style="mask-type:luminance" maskUnits="userSpaceOnUse" x="0" y="0" width="41" height="40"> <path d="M40.5 0H0.5V40H40.5V0Z" fill="white"></path> </mask> <g mask="url(#mask0_106_3393)"> <mask id="mask1_106_3393" style="mask-type:luminance" maskUnits="userSpaceOnUse" x="0" y="0" width="41" height="40"> <path d="M0.5 7.62939e-06H40.5V40H0.5V7.62939e-06Z" fill="white"></path> </mask> <g mask="url(#mask1_106_3393)"> <path d="M36.7471 12.0907C36.5118 12.326 36.3666 12.6531 36.3698 13.014C36.376 13.7269 36.9791 14.2915 37.692 14.2915H38.9736C39.2553 14.2915 39.4838 14.5199 39.4838 14.8017V19.804C39.4838 20.4594 38.9525 20.9907 38.2971 20.9907H2.70332C2.04793 20.9907 1.5166 20.4594 1.5166 19.804V14.8017C1.5166 14.5199 1.74504 14.2915 2.02676 14.2915H3.3416C3.69785 14.2915 4.02051 14.147 4.25332 13.9142C4.48918 13.6776 4.63441 13.3496 4.63059 12.9886C4.62309 12.2765 4.01996 11.7134 3.30785 11.7134H2.02676C1.74504 11.7134 1.5166 11.485 1.5166 11.2032V9.75635C1.5166 9.10096 2.04793 8.56963 2.70332 8.56963H38.2971C38.9525 8.56963 39.4838 9.10096 39.4838 9.75635V11.2032C39.4838 11.485 39.2553 11.7134 38.9736 11.7134H37.6588C37.3025 11.7134 36.9799 11.8579 36.7471 12.0907Z" stroke="#2D55A5" stroke-width="1.17187" stroke-miterlimit="10" stroke-linecap="round" stroke-linejoin="round" stroke-dasharray="69.53 2.34"></path> <path d="M37.433 20.9899V25.9126H21.7893V23.7642C21.7893 23.4079 21.6447 23.086 21.4119 22.8524C21.1783 22.6196 20.8564 22.4751 20.5002 22.4751C19.7885 22.4751 19.2111 23.0524 19.2111 23.7642V25.9126H3.56738V20.9899H37.433Z" stroke="#2D55A5" stroke-width="1.17187" stroke-miterlimit="10" stroke-linecap="round" stroke-linejoin="round" stroke-dasharray="69.53 2.34"></path> <path d="M6.20312 22.8909V25.6252" stroke="#2D55A5" stroke-width="1.17187" stroke-miterlimit="10" stroke-linecap="round" stroke-linejoin="round" stroke-dasharray="69.53 2.34"></path> <path d="M8.81348 22.8909V25.6252" stroke="#2D55A5" stroke-width="1.17187" stroke-miterlimit="10" stroke-linecap="round" stroke-linejoin="round" stroke-dasharray="69.53 2.34"></path> <path d="M11.4248 22.8909V25.6252" stroke="#2D55A5" stroke-width="1.17187" stroke-miterlimit="10" stroke-linecap="round" stroke-linejoin="round" stroke-dasharray="69.53 2.34"></path> <path d="M14.0352 22.8909V25.6252" stroke="#2D55A5" stroke-width="1.17187" stroke-miterlimit="10" stroke-linecap="round" stroke-linejoin="round" stroke-dasharray="69.53 2.34"></path> <path d="M16.6455 22.8909V25.6252" stroke="#2D55A5" stroke-width="1.17187" stroke-miterlimit="10" stroke-linecap="round" stroke-linejoin="round" stroke-dasharray="69.53 2.34"></path> <path d="M24.3545 22.8909V25.6252" stroke="#2D55A5" stroke-width="1.17187" stroke-miterlimit="10" stroke-linecap="round" stroke-linejoin="round" stroke-dasharray="69.53 2.34"></path> <path d="M26.9648 22.8909V25.6252" stroke="#2D55A5" stroke-width="1.17187" stroke-miterlimit="10" stroke-linecap="round" stroke-linejoin="round" stroke-dasharray="69.53 2.34"></path> <path d="M29.5752 22.8909V25.6252" stroke="#2D55A5" stroke-width="1.17187" stroke-miterlimit="10" stroke-linecap="round" stroke-linejoin="round" stroke-dasharray="69.53 2.34"></path> <path d="M32.1865 22.8909V25.6252" stroke="#2D55A5" stroke-width="1.17187" stroke-miterlimit="10" stroke-linecap="round" stroke-linejoin="round" stroke-dasharray="69.53 2.34"></path> <path d="M34.7969 22.8909V25.6252" stroke="#2D55A5" stroke-width="1.17187" stroke-miterlimit="10" stroke-linecap="round" stroke-linejoin="round" stroke-dasharray="69.53 2.34"></path> <path d="M11.612 18.8542H9.26387C8.90395 18.8542 8.6123 18.5625 8.6123 18.2027V11.4589C8.6123 11.0991 8.90395 10.8074 9.26387 10.8074H11.612C11.9718 10.8074 12.2636 11.0991 12.2636 11.4589V18.2027C12.2636 18.5625 11.9718 18.8542 11.612 18.8542Z" stroke="#2D55A5" stroke-width="1.17187" stroke-miterlimit="10" stroke-linecap="round" stroke-linejoin="round" stroke-dasharray="69.53 2.34"></path> <path d="M18.32 18.8542H15.9719C15.612 18.8542 15.3203 18.5625 15.3203 18.2027V11.4589C15.3203 11.0991 15.612 10.8074 15.9719 10.8074H18.32C18.6798 10.8074 18.9716 11.0991 18.9716 11.4589V18.2027C18.9716 18.5625 18.6798 18.8542 18.32 18.8542Z" stroke="#2D55A5" stroke-width="1.17187" stroke-miterlimit="10" stroke-linecap="round" stroke-linejoin="round" stroke-dasharray="69.53 2.34"></path> <path d="M25.028 18.8542H22.6799C22.32 18.8542 22.0283 18.5625 22.0283 18.2027V11.4589C22.0283 11.0991 22.32 10.8074 22.6799 10.8074H25.028C25.3879 10.8074 25.6796 11.0991 25.6796 11.4589V18.2027C25.6796 18.5625 25.3879 18.8542 25.028 18.8542Z" stroke="#2D55A5" stroke-width="1.17187" stroke-miterlimit="10" stroke-linecap="round" stroke-linejoin="round" stroke-dasharray="69.53 2.34"></path> <path d="M31.737 18.8542H29.3889C29.029 18.8542 28.7373 18.5625 28.7373 18.2027V11.4589C28.7373 11.0991 29.029 10.8074 29.3889 10.8074H31.737C32.0968 10.8074 32.3886 11.0991 32.3886 11.4589V18.2027C32.3886 18.5625 32.0968 18.8542 31.737 18.8542Z" stroke="#2D55A5" stroke-width="1.17187" stroke-miterlimit="10" stroke-linecap="round" stroke-linejoin="round" stroke-dasharray="69.53 2.34"></path> </g> </g> </g> <defs> <clipPath id="clip0_106_3393"> <rect width="40" height="40" fill="white" transform="translate(0.5)"></rect> </clipPath> </defs> </svg>