<svg xmlns="http://www.w3.org/2000/svg" width="41" height="40" viewBox="0 0 41 40" fill="none"> <path d="M35.2559 8.5775L26.9193 0.244141C26.763 0.0878906 26.5515 0 26.3301 0H8.83336C6.99492 0 5.5 1.49492 5.5 3.33336V36.6667C5.5 38.5051 6.99492 40 8.83336 40H32.1667C34.0051 40 35.5 38.5051 35.5 36.6666V9.16664C35.5 8.94531 35.4121 8.73375 35.2559 8.5775ZM33.8334 36.6666C33.8334 37.5854 33.0855 38.3333 32.1667 38.3333H8.83336C7.91461 38.3333 7.16672 37.5854 7.16672 36.6666V3.33336C7.16672 2.41461 7.91461 1.66672 8.83336 1.66672H25.9851L33.8334 9.51172V36.6666Z" fill="#2D55A5"></path> <path d="M10.5 17.5V32.5C10.5 33.8786 11.6214 35 13 35H28C29.3786 35 30.5 33.8786 30.5 32.5V17.5C30.5 16.1214 29.3786 15 28 15H13C11.6214 15 10.5 16.1214 10.5 17.5ZM16.3334 33.3334H13C12.5402 33.3334 12.1666 32.9598 12.1666 32.5V29.1666H16.3333V33.3334H16.3334ZM23 33.3334H18V29.1667H23V33.3334ZM28.8334 32.5C28.8334 32.9598 28.4598 33.3334 28 33.3334H24.6666V28.3334C24.6666 27.8727 24.2939 27.5 23.8333 27.5H12.1666V22.5H28.8333V32.5H28.8334ZM24.6666 16.6666H28C28.4598 16.6666 28.8334 17.0402 28.8334 17.5V20.8334H24.6667V16.6666H24.6666ZM18 16.6666H23V20.8333H18V16.6666ZM16.3334 20.8334H12.1667V17.5C12.1667 17.0402 12.5402 16.6666 13.0001 16.6666H16.3334L16.3334 20.8334Z" fill="#2D55A5"></path> </svg>