<svg width="40" height="40" viewBox="0 0 40 40" fill="none" xmlns="http://www.w3.org/2000/svg">
<g clip-path="url(#clip0_1_1048)">
<path d="M29.9547 15.5089L29.0557 16.4915L33.1442 20.2395C34.1067 21.125 34.6554 22.3727 34.6557 23.6802V40.0002H35.989V23.6802C35.9874 21.9985 35.282 20.3948 34.0437 19.2567L29.9547 15.5089Z" fill="#2D55A5"/>
<path d="M24.6557 0.000183105H7.32238C5.48238 0.00251644 3.99138 1.49352 3.98904 3.33352V36.6668C3.99138 38.5068 5.48238 39.9978 7.32238 40.0002H23.989V38.8075C23.9859 35.8043 24.8749 32.8672 26.5437 30.3702C26.7204 30.1055 26.6849 29.7533 26.4604 29.5288L21.7937 24.8622C21.3624 24.4303 21.1337 23.8365 21.1639 23.227C21.1942 22.6172 21.4807 22.0492 21.9524 21.6622C22.8609 20.9677 24.1457 21.0668 24.937 21.892L31.5177 28.4728L32.4604 27.5302L27.989 23.0575V3.33352C27.9867 1.49352 26.4957 0.00251644 24.6557 0.000183105ZM26.6557 21.7242L25.8797 20.9482C24.6007 19.6415 22.5437 19.5053 21.1037 20.6325C20.342 21.2585 19.8799 22.1775 19.8317 23.1627C19.7837 24.1477 20.1537 25.1072 20.851 25.8048L25.1377 30.0917C23.539 32.6678 22.6817 35.6352 22.6604 38.6668H7.32238C6.21804 38.6668 5.32238 37.7712 5.32238 36.6668V34.6668H21.989V33.3335H5.32238V5.33352H26.6557V21.7242ZM26.6557 4.00018H5.32238V3.33352C5.32238 2.22918 6.21804 1.33352 7.32238 1.33352H24.6557C25.76 1.33352 26.6557 2.22918 26.6557 3.33352V4.00018Z" fill="#2D55A5"/>
<path d="M7.98903 12.0002H10.6557C11.3922 12.0002 11.989 11.4034 11.989 10.6669V8.0002C11.989 7.2637 11.3922 6.66687 10.6557 6.66687H7.98903C7.25253 6.66687 6.6557 7.2637 6.6557 8.0002V10.6669C6.6557 11.4034 7.25253 12.0002 7.98903 12.0002ZM7.98903 8.0002H10.6557V10.6669H7.98903V8.0002Z" fill="#2D55A5"/>
<path d="M14.6557 12.0002H17.3224C18.0589 12.0002 18.6557 11.4034 18.6557 10.6669V8.0002C18.6557 7.2637 18.0589 6.66687 17.3224 6.66687H14.6557C13.9192 6.66687 13.3224 7.2637 13.3224 8.0002V10.6669C13.3224 11.4034 13.9192 12.0002 14.6557 12.0002ZM14.6557 8.0002H17.3224V10.6669H14.6557V8.0002Z" fill="#2D55A5"/>
<path d="M21.3224 12.0002H23.989C24.7255 12.0002 25.3224 11.4034 25.3224 10.6669V8.0002C25.3224 7.2637 24.7255 6.66687 23.989 6.66687H21.3224C20.5859 6.66687 19.989 7.2637 19.989 8.0002V10.6669C19.989 11.4034 20.5859 12.0002 21.3224 12.0002ZM21.3224 8.0002H23.989V10.6669H21.3224V8.0002Z" fill="#2D55A5"/>
<path d="M7.98903 18.6668H10.6557C11.3922 18.6668 11.989 18.07 11.989 17.3335V14.6668C11.989 13.9303 11.3922 13.3335 10.6557 13.3335H7.98903C7.25253 13.3335 6.6557 13.9303 6.6557 14.6668V17.3335C6.6557 18.07 7.25253 18.6668 7.98903 18.6668ZM7.98903 14.6668H10.6557V17.3335H7.98903V14.6668Z" fill="#2D55A5"/>
<path d="M7.98903 25.3335H10.6557C11.3922 25.3335 11.989 24.7367 11.989 24.0002V21.3335C11.989 20.597 11.3922 20.0002 10.6557 20.0002H7.98903C7.25253 20.0002 6.6557 20.597 6.6557 21.3335V24.0002C6.6557 24.7367 7.25253 25.3335 7.98903 25.3335ZM7.98903 21.3335H10.6557V24.0002H7.98903V21.3335Z" fill="#2D55A5"/>
<path d="M14.6557 18.6668H17.3224C18.0589 18.6668 18.6557 18.07 18.6557 17.3335V14.6668C18.6557 13.9303 18.0589 13.3335 17.3224 13.3335H14.6557C13.9192 13.3335 13.3224 13.9303 13.3224 14.6668V17.3335C13.3224 18.07 13.9192 18.6668 14.6557 18.6668ZM14.6557 14.6668H17.3224V17.3335H14.6557V14.6668Z" fill="#2D55A5"/>
<path d="M21.3224 18.6668H23.989C24.7255 18.6668 25.3224 18.07 25.3224 17.3335V14.6668C25.3224 13.9303 24.7255 13.3335 23.989 13.3335H21.3224C20.5859 13.3335 19.989 13.9303 19.989 14.6668V17.3335C19.989 18.07 20.5859 18.6668 21.3224 18.6668ZM21.3224 14.6668H23.989V17.3335H21.3224V14.6668Z" fill="#2D55A5"/>
<path d="M14.6557 25.3335H17.3224C18.0589 25.3335 18.6557 24.7367 18.6557 24.0002V21.3335C18.6557 20.597 18.0589 20.0002 17.3224 20.0002H14.6557C13.9192 20.0002 13.3224 20.597 13.3224 21.3335V24.0002C13.3224 24.7367 13.9192 25.3335 14.6557 25.3335ZM14.6557 21.3335H17.3224V24.0002H14.6557V21.3335Z" fill="#2D55A5"/>
<path d="M7.98903 32.0002H10.6557C11.3922 32.0002 11.989 31.4034 11.989 30.6669V28.0002C11.989 27.2637 11.3922 26.6669 10.6557 26.6669H7.98903C7.25253 26.6669 6.6557 27.2637 6.6557 28.0002V30.6669C6.6557 31.4034 7.25253 32.0002 7.98903 32.0002ZM7.98903 28.0002H10.6557V30.6669H7.98903V28.0002Z" fill="#2D55A5"/>
<path d="M14.6557 32.0002H17.3224C18.0589 32.0002 18.6557 31.4034 18.6557 30.6669V28.0002C18.6557 27.2637 18.0589 26.6669 17.3224 26.6669H14.6557C13.9192 26.6669 13.3224 27.2637 13.3224 28.0002V30.6669C13.3224 31.4034 13.9192 32.0002 14.6557 32.0002ZM14.6557 28.0002H17.3224V30.6669H14.6557V28.0002Z" fill="#2D55A5"/>
<path d="M15.3224 36.0002H16.6557V37.3335H15.3224V36.0002Z" fill="#2D55A5"/>
</g>
<defs>
<clipPath id="clip0_1_1048">
<rect width="40" height="40" fill="white"/>
</clipPath>
</defs>
</svg>
