<svg width="40" height="40" viewBox="0 0 40 40" fill="none" xmlns="http://www.w3.org/2000/svg">
<path d="M26.4782 26.9988C26.3182 26.9988 26.1582 26.9376 26.0357 26.8163L23.1232 23.9038C22.2707 23.0513 21.8507 22.0888 21.8769 21.0426C21.9244 19.0901 23.5432 17.6001 23.6119 17.5376C23.8544 17.3151 24.2307 17.3213 24.4669 17.5513L31.6857 24.5538C31.9332 24.7938 31.9394 25.1901 31.6994 25.4376C31.4594 25.6851 31.0632 25.6913 30.8157 25.4513L24.0569 18.8963C23.6732 19.3688 23.1457 20.1788 23.1257 21.0801C23.1107 21.7788 23.3982 22.4126 24.0069 23.0213L26.9194 25.9338C27.1632 26.1776 27.1632 26.5738 26.9194 26.8176C26.7982 26.9376 26.6382 26.9988 26.4782 26.9988Z" fill="#2D55A5"/>
<path d="M27.005 32.138C26.8338 32.138 26.6638 32.068 26.54 31.9305C25.71 31.0093 25.2525 29.8205 25.2525 28.5818C25.2525 27.7043 25.4838 26.8418 25.92 26.088C26.0925 25.7893 26.475 25.6868 26.7738 25.8605C27.0725 26.0343 27.175 26.4155 27.0013 26.7143C26.675 27.278 26.5025 27.9243 26.5025 28.5818C26.5025 29.5105 26.845 30.403 27.4688 31.0943C27.7 31.3505 27.6788 31.7455 27.4225 31.9768C27.305 32.0843 27.155 32.138 27.005 32.138Z" fill="#2D55A5"/>
<path d="M23.7488 31.2492H13.1238C11.4013 31.2492 9.99884 29.8467 9.99884 28.1242V26.8742C9.99884 26.5292 10.2788 26.2492 10.6238 26.2492C10.9688 26.2492 11.2488 26.5292 11.2488 26.8742V28.1242C11.2488 29.158 12.0901 29.9992 13.1238 29.9992H23.7488C24.0938 29.9992 24.3738 30.2792 24.3738 30.6242C24.3738 30.9692 24.0938 31.2492 23.7488 31.2492Z" fill="#2D55A5"/>
<path d="M26.8738 18.7487C26.5288 18.7487 26.2488 18.4687 26.2488 18.1237V4.37366C26.2488 3.33991 25.4076 2.49866 24.3738 2.49866H13.1238C12.0901 2.49866 11.2488 3.33991 11.2488 4.37366V5.62366C11.2488 5.96866 10.9688 6.24866 10.6238 6.24866C10.2788 6.24866 9.99884 5.96866 9.99884 5.62366V4.37366C9.99884 2.65116 11.4013 1.24866 13.1238 1.24866H24.3738C26.0963 1.24866 27.4988 2.65116 27.4988 4.37366V18.1237C27.4988 18.4687 27.2188 18.7487 26.8738 18.7487Z" fill="#2D55A5"/>
<path d="M24.3736 38.7487C24.0286 38.7487 23.7486 38.4687 23.7486 38.1237V34.1424C23.1749 33.8449 22.6449 33.4561 22.1674 32.9824C21.9224 32.7399 21.9211 32.3437 22.1636 32.0987C22.4074 31.8537 22.8036 31.8536 23.0474 32.0949C23.5161 32.5612 24.0474 32.9237 24.6236 33.1749C24.8511 33.2749 24.9986 33.4999 24.9986 33.7474V38.1224C24.9986 38.4687 24.7186 38.7487 24.3736 38.7487Z" fill="#2D55A5"/>
<path d="M35.6261 38.7489C35.2811 38.7489 35.0011 38.4689 35.0011 38.1239V24.2964C35.0011 23.7664 34.6761 22.9689 34.3048 22.5927L26.5636 14.8152C26.3198 14.5714 26.3211 14.1752 26.5661 13.9314C26.8098 13.6864 27.2061 13.6889 27.4498 13.9339L35.1936 21.7139C35.7973 22.3277 36.2511 23.4364 36.2511 24.2964V38.1239C36.2511 38.4689 35.9711 38.7489 35.6261 38.7489Z" fill="#2D55A5"/>
<path d="M19.3748 28.7492H18.1248C17.7798 28.7492 17.4998 28.4692 17.4998 28.1242C17.4998 27.7792 17.7798 27.4992 18.1248 27.4992H19.3748C19.7198 27.4992 19.9998 27.7792 19.9998 28.1242C19.9998 28.4692 19.7198 28.7492 19.3748 28.7492Z" fill="#2D55A5"/>
<path d="M20.6268 4.99976H16.8768C16.5318 4.99976 16.2518 4.71976 16.2518 4.37476C16.2518 4.02976 16.5318 3.74976 16.8768 3.74976H20.6268C20.9718 3.74976 21.2518 4.02976 21.2518 4.37476C21.2518 4.71976 20.9718 4.99976 20.6268 4.99976Z" fill="#2D55A5"/>
<path d="M10.6238 24.9999C10.4463 24.9999 10.2776 24.9249 10.1588 24.7924C9.92259 24.5311 4.37384 18.3099 4.37384 13.5349C4.37384 10.2074 7.17759 7.49988 10.6238 7.49988C14.0701 7.49988 16.8738 10.2074 16.8738 13.5349C16.8738 18.3099 11.3251 24.5299 11.0888 24.7924C10.9701 24.9249 10.8013 24.9999 10.6238 24.9999ZM10.6238 8.74988C7.86634 8.74988 5.62384 10.8961 5.62384 13.5349C5.62384 17.0811 9.30259 21.8249 10.6238 23.4124C11.9438 21.8236 15.6238 17.0774 15.6238 13.5349C15.6238 10.8961 13.3813 8.74988 10.6238 8.74988Z" fill="#2D55A5"/>
<path d="M10.6248 16.8742C8.90235 16.8742 7.49985 15.4717 7.49985 13.7492C7.49985 12.0267 8.90235 10.6242 10.6248 10.6242C12.3473 10.6242 13.7498 12.0267 13.7498 13.7492C13.7498 15.4717 12.3473 16.8742 10.6248 16.8742ZM10.6248 11.8742C9.5911 11.8742 8.74985 12.7155 8.74985 13.7492C8.74985 14.783 9.5911 15.6242 10.6248 15.6242C11.6586 15.6242 12.4998 14.783 12.4998 13.7492C12.4998 12.7155 11.6586 11.8742 10.6248 11.8742Z" fill="#2D55A5"/>
</svg>
