<svg width="65" height="64" viewBox="0 0 65 64" fill="none" xmlns="http://www.w3.org/2000/svg">
<g clip-path="url(#clip0_1_1152)">
<mask id="mask0_1_1152" style="mask-type:luminance" maskUnits="userSpaceOnUse" x="0" y="0" width="65" height="64">
<path d="M0.5 3.8147e-06H64.5V64H0.5V3.8147e-06Z" fill="white"/>
</mask>
<g mask="url(#mask0_1_1152)">
<path d="M32.4982 55.4021C36.6474 52.9973 50.5478 51.6053 58.8144 55.4021" stroke="#2D55A5" stroke-width="1.88975" stroke-miterlimit="10" stroke-linecap="round" stroke-linejoin="round"/>
<path d="M32.4982 55.4021C28.3525 52.9973 14.4487 51.6053 6.18555 55.4021" stroke="#2D55A5" stroke-width="1.88975" stroke-miterlimit="10" stroke-linecap="round" stroke-linejoin="round"/>
<path d="M47.2278 62.6698L58.2155 62.6557C61.6598 62.6521 63.5625 60.1693 63.5625 57.5521V24.6632C63.5625 22.5948 61.8688 20.9019 59.7994 20.9019H58.8144M32.4982 55.4021V62.6876L42.8483 62.6769" stroke="#2D55A5" stroke-width="1.88975" stroke-miterlimit="10" stroke-linecap="round" stroke-linejoin="round"/>
<path d="M27.4278 39.1809C24.8411 37.6792 16.1813 36.8115 11.0294 39.1809" stroke="#2D55A5" stroke-width="1.88975" stroke-miterlimit="10" stroke-linecap="round" stroke-linejoin="round"/>
<path d="M27.4278 46.1156C24.8411 44.6139 16.1813 43.7462 11.0294 46.1156" stroke="#2D55A5" stroke-width="1.88975" stroke-miterlimit="10" stroke-linecap="round" stroke-linejoin="round"/>
<path d="M27.4278 32.2461C24.8411 30.7445 16.1813 29.8732 11.0294 32.2461" stroke="#2D55A5" stroke-width="1.88975" stroke-miterlimit="10" stroke-linecap="round" stroke-linejoin="round"/>
<path d="M32.4982 62.6875L6.78443 62.6556C3.33669 62.6521 1.43756 60.1693 1.43756 57.552V24.6633C1.43756 22.5949 3.12769 20.902 5.19706 20.902H6.18556" stroke="#2D55A5" stroke-width="1.88975" stroke-miterlimit="10" stroke-linecap="round" stroke-linejoin="round"/>
<path d="M16.6348 16.1525C13.3856 16.3295 11.2348 16.6696 9.17614 17.254C6.94389 17.888 6.18552 18.0897 6.18552 19.974V55.9192C6.18552 57.0172 7.06077 57.9167 8.13089 57.9167H32.4981M32.4981 18.3661C30.6841 17.3141 27.0025 16.4571 21.2835 16.1453" stroke="#2D55A5" stroke-width="1.88975" stroke-miterlimit="10" stroke-linecap="round" stroke-linejoin="round"/>
<path d="M37.5723 39.1809C40.1554 37.6792 48.8188 36.8115 53.9671 39.1809" stroke="#2D55A5" stroke-width="1.88975" stroke-miterlimit="10" stroke-linecap="round" stroke-linejoin="round"/>
<path d="M37.5723 46.1156C40.1554 44.6139 48.8188 43.7462 53.9671 46.1156" stroke="#2D55A5" stroke-width="1.88975" stroke-miterlimit="10" stroke-linecap="round" stroke-linejoin="round"/>
<path d="M32.4982 55.4021C36.6474 52.9973 50.5478 51.6053 58.8144 55.4021" stroke="#2D55A5" stroke-width="1.88975" stroke-miterlimit="10" stroke-linecap="round" stroke-linejoin="round"/>
<path d="M32.4982 55.4021C28.3525 52.9973 14.4487 51.6053 6.18555 55.4021" stroke="#2D55A5" stroke-width="1.88975" stroke-miterlimit="10" stroke-linecap="round" stroke-linejoin="round"/>
<path d="M32.4982 18.3661V55.4021" stroke="#2D55A5" stroke-width="1.88975" stroke-miterlimit="10" stroke-linecap="round" stroke-linejoin="round"/>
<path d="M44.9105 26.551V18.1147" stroke="#2D55A5" stroke-width="1.88975" stroke-miterlimit="10" stroke-linecap="round" stroke-linejoin="round"/>
<path d="M47.3377 18.1146H44.9105H42.3875" stroke="#2D55A5" stroke-width="1.88975" stroke-miterlimit="10" stroke-linecap="round" stroke-linejoin="round"/>
<path d="M44.9176 3.79175V1.3125" stroke="#2D55A5" stroke-width="1.88975" stroke-miterlimit="10" stroke-linecap="round" stroke-linejoin="round"/>
<path d="M35.1202 4.24511L36.8779 6.00186" stroke="#2D55A5" stroke-width="1.88975" stroke-miterlimit="10" stroke-linecap="round" stroke-linejoin="round"/>
<path d="M54.7113 4.24511L52.9574 6.00186" stroke="#2D55A5" stroke-width="1.88975" stroke-miterlimit="10" stroke-linecap="round" stroke-linejoin="round"/>
<path d="M41.9624 26.551H47.862C49.1377 26.551 50.183 27.5958 50.183 28.8709C50.183 30.1459 49.1377 31.1872 47.862 31.1872H41.9624C40.6834 31.1872 39.6417 30.1459 39.6417 28.8709C39.6417 27.5958 40.6834 26.551 41.9624 26.551Z" stroke="#2D55A5" stroke-width="1.88975" stroke-miterlimit="10" stroke-linecap="round" stroke-linejoin="round"/>
<path d="M41.7357 26.551H44.9105H48.0888C48.0888 21.4439 53.0352 20.785 53.0282 15.2918C53.0211 10.0572 48.9675 7.48215 44.9105 7.54253C40.857 7.48215 36.8033 10.0572 36.7962 15.2918C36.7892 20.785 41.7357 21.4439 41.7357 26.551Z" stroke="#2D55A5" stroke-width="1.88975" stroke-miterlimit="10" stroke-linecap="round" stroke-linejoin="round"/>
<path d="M52.9254 16.6094C53.9672 16.7793 54.9062 16.9919 55.8203 17.2539C58.0562 17.888 58.8144 18.0897 58.8144 19.974V55.9192C58.8144 57.0172 57.9357 57.9167 56.8655 57.9167H32.4982M32.4982 18.3661C33.4549 17.8099 34.9325 17.3105 36.9557 16.9175" stroke="#2D55A5" stroke-width="1.88975" stroke-miterlimit="10" stroke-linecap="round" stroke-linejoin="round"/>
<path d="M27.4278 25.3079C24.8411 23.8097 16.1813 22.9385 11.0294 25.3079" stroke="#2D55A5" stroke-width="1.88975" stroke-miterlimit="10" stroke-linecap="round" stroke-linejoin="round"/>
</g>
</g>
<defs>
<clipPath id="clip0_1_1152">
<rect width="64" height="64" fill="white" transform="translate(0.5)"/>
</clipPath>
</defs>
</svg>
