<svg width="64" height="64" viewBox="0 0 64 64" fill="none" xmlns="http://www.w3.org/2000/svg">
<path d="M57 60H7C4.242 60 2 57.758 2 55C2 54.448 2.448 54 3 54H25C25.552 54 26 54.448 26 55C26 55.552 25.552 56 25 56H4.172C4.584 57.164 5.696 58 7 58H57C58.304 58 59.416 57.164 59.828 56H39C38.448 56 38 55.552 38 55C38 54.448 38.448 54 39 54H61C61.552 54 62 54.448 62 55C62 57.758 59.758 60 57 60Z" fill="#2D55A5"/>
<path d="M7 52C6.448 52 6 51.552 6 51V19C6 17.346 7.346 16 9 16H19C19.552 16 20 16.448 20 17C20 17.552 19.552 18 19 18H9C8.45 18 8 18.45 8 19V51C8 51.552 7.552 52 7 52Z" fill="#2D55A5"/>
<path d="M57 52C56.448 52 56 51.552 56 51V45C56 44.448 56.448 44 57 44C57.552 44 58 44.448 58 45V51C58 51.552 57.552 52 57 52Z" fill="#2D55A5"/>
<path d="M57 30C56.448 30 56 29.552 56 29V19C56 18.45 55.55 18 55 18H53C52.448 18 52 17.552 52 17C52 16.448 52.448 16 53 16H55C56.654 16 58 17.346 58 19V29C58 29.552 57.552 30 57 30Z" fill="#2D55A5"/>
<path d="M29 52H25C24.448 52 24 51.552 24 51V35C24 34.448 24.448 34 25 34H29C29.552 34 30 34.448 30 35V51C30 51.552 29.552 52 29 52ZM26 50H28V36H26V50Z" fill="#2D55A5"/>
<path d="M21 52H17C16.448 52 16 51.552 16 51V31C16 30.448 16.448 30 17 30H21C21.552 30 22 30.448 22 31V51C22 51.552 21.552 52 21 52ZM18 50H20V32H18V50Z" fill="#2D55A5"/>
<path d="M45 52H41C40.448 52 40 51.552 40 51V43C40 42.448 40.448 42 41 42H45C45.552 42 46 42.448 46 43V51C46 51.552 45.552 52 45 52ZM42 50H44V44H42V50Z" fill="#2D55A5"/>
<path d="M37 52H33C32.448 52 32 51.552 32 51V39C32 38.448 32.448 38 33 38H37C37.552 38 38 38.448 38 39V51C38 51.552 37.552 52 37 52ZM34 50H36V40H34V50Z" fill="#2D55A5"/>
<path d="M45.022 27.02L44.022 27.436L46.85 30.264C47.24 30.654 47.874 30.654 48.264 30.264C48.654 29.874 48.654 29.24 48.264 28.85L45.436 26.02L45.022 27.02Z" fill="#2D55A5"/>
<path d="M36 32C28.282 32 22 25.718 22 18C22 10.282 28.282 4 36 4C43.718 4 50 10.282 50 18C50 25.718 43.718 32 36 32ZM36 6C29.382 6 24 11.382 24 18C24 24.618 29.382 30 36 30C42.618 30 48 24.618 48 18C48 11.382 42.618 6 36 6Z" fill="#2D55A5"/>
<path d="M45 19C45.5523 19 46 18.5523 46 18C46 17.4477 45.5523 17 45 17C44.4477 17 44 17.4477 44 18C44 18.5523 44.4477 19 45 19Z" fill="#2D55A5"/>
<path d="M36 28C35.448 28 35 27.552 35 27C35 26.448 35.448 26 36 26C39.264 26 42.174 24.046 43.41 21.024C43.618 20.512 44.204 20.27 44.714 20.478C45.226 20.686 45.47 21.27 45.26 21.782C43.714 25.558 40.08 28 36 28Z" fill="#2D55A5"/>
<path d="M50 30C50.512 30 51.024 30.196 51.414 30.586L57.414 36.586C58.196 37.368 58.196 38.632 57.414 39.414C57.024 39.804 56.512 40 56 40C55.488 40 54.976 39.804 54.586 39.414L48.586 33.414C47.804 32.632 47.804 31.368 48.586 30.586C48.976 30.196 49.488 30 50 30ZM50 28C48.932 28 47.928 28.416 47.172 29.172C46.416 29.928 46 30.932 46 32C46 33.068 46.416 34.072 47.172 34.828L53.172 40.828C53.928 41.584 54.932 42 56 42C57.068 42 58.072 41.584 58.828 40.828C59.584 40.072 60 39.068 60 38C60 36.932 59.584 35.928 58.828 35.172L52.828 29.172C52.072 28.416 51.068 28 50 28Z" fill="#2D55A5"/>
</svg>
