<svg width="40" height="40" viewBox="0 0 40 40" fill="none" xmlns="http://www.w3.org/2000/svg">
<g clip-path="url(#clip0_4_820)">
<path d="M34.0292 4.67627H1.96242C0.880312 4.67627 0 5.55658 0 6.63869V28.0166C0 29.0987 0.880312 29.979 1.96242 29.979H13.278L12.7665 34.0709H11.9833C11.6374 34.0709 11.357 34.3513 11.357 34.6972C11.357 35.0431 11.6373 35.3235 11.9833 35.3235H15.3236C15.6695 35.3235 15.9499 35.0431 15.9499 34.6972C15.9499 34.3514 15.6695 34.0709 15.3236 34.0709H14.0289L14.5404 29.979H15.3236C15.6695 29.979 15.9499 29.6986 15.9499 29.3527C15.9499 29.0068 15.6695 28.7264 15.3236 28.7264H1.96242C1.57102 28.7264 1.25258 28.4079 1.25258 28.0165V25.9706H15.3236C15.6695 25.9706 15.9499 25.6902 15.9499 25.3442C15.9499 24.9983 15.6695 24.7179 15.3236 24.7179H1.25258V6.63869C1.25258 6.24729 1.57102 5.92885 1.96242 5.92885H34.0292C34.4206 5.92885 34.7391 6.24729 34.7391 6.63869V19.9999C34.7391 20.3457 35.0195 20.6262 35.3654 20.6262C35.7113 20.6262 35.9917 20.3458 35.9917 19.9999V6.63869C35.9916 5.55658 35.1113 4.67627 34.0292 4.67627Z" fill="white"/>
<path d="M28.6844 16.7012H19.3316C18.2495 16.7012 17.3691 17.5815 17.3691 18.6636V33.3609C17.3691 34.443 18.2495 35.3233 19.3316 35.3233H28.6844C29.7665 35.3233 30.6468 34.443 30.6468 33.3609V18.6636C30.6468 17.5815 29.7665 16.7012 28.6844 16.7012ZM29.3942 33.3609C29.3942 33.7523 29.0758 34.0707 28.6844 34.0707H19.3316C18.9402 34.0707 18.6217 33.7523 18.6217 33.3609V32.651H29.3941V33.3609H29.3942ZM29.3942 31.3984H18.6217V20.626H29.3941V31.3984H29.3942ZM29.3942 19.3734H18.6217V18.6635C18.6217 18.2721 18.9402 17.9537 19.3316 17.9537H28.6844C29.0758 17.9537 29.3942 18.2721 29.3942 18.6635V19.3734Z" fill="white"/>
<path d="M38.0372 22.0459H34.0288C32.9467 22.0459 32.0664 22.9262 32.0664 24.0083V33.3611C32.0664 34.4432 32.9467 35.3236 34.0288 35.3236H38.0372C39.1193 35.3236 39.9996 34.4432 39.9996 33.3611V24.0083C39.9996 22.9262 39.1193 22.0459 38.0372 22.0459ZM38.747 33.3611C38.747 33.7525 38.4286 34.071 38.0372 34.071H34.0288C33.6374 34.071 33.319 33.7525 33.319 33.3611V32.6513H38.747V33.3611H38.747ZM38.747 31.3987H33.3191V25.9707H38.747V31.3987ZM38.747 24.7182H33.3191V24.0083C33.3191 23.6169 33.6375 23.2985 34.0289 23.2985H38.0373C38.4287 23.2985 38.7471 23.6169 38.7471 24.0083L38.747 24.7182Z" fill="white"/>
</g>
<defs>
<clipPath id="clip0_4_820">
<rect width="40" height="40" fill="white"/>
</clipPath>
</defs>
</svg>
