<svg width="64" height="64" viewBox="0 0 64 64" fill="none" xmlns="http://www.w3.org/2000/svg">
<g clip-path="url(#clip0_1_896)">
<path d="M35.4332 20.8415C35.4331 20.8394 35.4331 20.8375 35.433 20.8354C35.433 20.8345 35.4328 20.8336 35.4328 20.8328L35.4332 20.8415Z" fill="#2D55A5"/>
<path d="M63.9563 58.739L62.35 44.3862C61.7962 39.5036 61.8613 38.182 60.7516 36.5122C58.7333 33.4747 55.4738 33.5098 50.5426 32.135V31.8461H56.1638C57.5013 31.8461 58.5916 30.7663 58.6081 29.4325L59.3488 16.88C59.3792 16.3632 58.9852 15.9195 58.4682 15.889C57.9497 15.8573 57.5076 16.2526 57.4772 16.7695C56.7045 29.8758 56.7336 29.3462 56.7336 29.4015C56.7336 29.7103 56.4726 29.9712 56.1638 29.9712H50.5426V29.7286C53.3248 28.2253 55.4333 25.6918 56.0772 22.3967C56.3213 21.2168 56.2592 20.3355 56.2656 18.3225C56.2656 17.2858 55.454 16.4361 54.418 16.3878C48.0086 16.0883 44.4896 12.6307 43.2741 11.158C42.9445 10.7588 42.459 10.5203 41.9418 10.5038C41.4228 10.4856 40.925 10.694 40.571 11.071C39.3457 12.3751 38.011 12.8767 37.107 13.068C36.132 13.2741 35.4243 14.1436 35.4243 15.1356C35.4278 20.6737 35.4167 20.4073 35.433 20.8351C35.495 22.4017 35.9281 23.9871 36.5373 25.114C37.8087 27.6362 39.4906 28.7232 41.1107 29.7106V29.972C41.0211 29.9706 38.1798 29.9716 35.6206 29.9712C35.3117 29.9712 35.051 29.7103 35.051 29.4015C35.051 29.3465 35.0823 29.9147 34.2958 16.5766C34.2947 16.5596 34.2932 16.5421 34.2913 16.5251C34.2802 16.4277 33.2448 6.77146 38.6663 5.57983C38.9392 5.51983 39.1678 5.34746 39.2955 5.09896C39.3907 4.92046 41.7106 0.746332 49.0925 2.18371C49.1193 2.18896 49.1762 2.20746 49.2263 2.22383C54.277 3.87283 57.1395 7.94308 57.4578 12.5157C57.4938 13.032 57.939 13.4213 58.4581 13.3856C58.9745 13.3496 59.364 12.9018 59.328 12.3853C58.9571 7.05658 55.4575 2.31246 50.064 0.524207C49.795 0.435957 49.6105 0.374832 49.4507 0.343707C43.6396 -0.787793 39.6916 1.16408 37.8691 3.84821C35.1032 4.63371 33.2912 7.09996 32.6173 11.0103C32.1357 13.8046 32.3918 16.3978 32.4258 16.7113L33.1766 29.4325C33.1931 30.7661 34.2831 31.8461 35.6207 31.8461C36.8446 31.846 41.0262 31.8467 41.1108 31.8453V32.135C35.1178 33.6268 33.7253 33.7428 31.9926 35.2673C30.0998 33.6052 28.4186 33.592 25.1573 32.7026L22.8778 31.6115V29.7088C26.3397 27.917 28.56 24.3881 28.56 20.4267V20.4175C31.1237 19.8588 32.3152 17.2613 30.9213 15.3076C30.9465 11.2656 30.8896 11.2682 30.4626 9.38921C28.3067 1.56458 20.8501 0.303332 20.8375 0.296457C13.0261 -1.38329 5.69222 4.41883 5.36922 12.2397C5.36872 12.2571 5.35647 12.5192 5.35647 12.7922C5.35659 13.3381 5.35622 15.2561 5.35684 15.3072C4.98347 15.8303 4.76684 16.4478 4.76684 17.1091C4.76684 18.7056 6.02547 20.0486 7.71847 20.4172C7.74072 20.5036 7.35222 26.4758 13.3766 29.6966L13.4456 29.5566V29.5857L13.39 29.7032C13.4026 29.7095 13.4383 29.727 13.4456 29.7306L13.4455 31.5895L11.0721 32.7255C7.32109 33.6593 5.90522 33.8075 4.20422 35.3786C2.85622 36.6271 2.37022 37.9977 2.15897 39.734C-0.0534091 59.7442 -0.010909 58.5927 0.002716 59.5191C-0.025659 61.9123 1.64497 63.9946 4.40822 63.9946H11.9775C12.4952 63.9946 12.9148 63.5751 12.9148 63.0572C12.9148 62.5393 12.4953 62.1198 11.9775 62.1198H9.08047L10.0098 44.5391C10.0372 44.0222 9.64034 43.581 9.12322 43.5536C8.60809 43.5228 8.16497 43.9231 8.13772 44.4402L7.94222 48.138L3.16097 47.6363L3.21247 47.1758C4.17334 38.7606 3.83097 38.0242 5.99397 36.335C7.12897 35.4468 8.96534 35.2415 11.0831 34.6548L13.9647 38.3437C14.6543 39.226 15.9631 39.304 16.7523 38.5087L17.2017 38.0558V42.5918C17.2017 43.1096 17.6212 43.5292 18.1391 43.5292C18.657 43.5292 19.0765 43.1097 19.0765 42.5918V38.0558C19.3291 38.2467 19.8392 39.1226 20.9566 39.0556C21.49 39.0241 21.9845 38.7646 22.3133 38.3436L25.1987 34.6502C27.7063 35.3443 29.304 35.3906 30.7741 36.7077C29.6327 38.5753 29.9061 39.9087 28.8902 48.08L28.4191 48.1295L28.224 44.4403C28.1966 43.9233 27.7548 43.5228 27.2385 43.5537C26.7215 43.5811 26.3245 44.0222 26.3518 44.5392C26.446 46.3651 27.1587 60.1985 27.2578 62.12H16.3516C15.8338 62.12 15.4142 62.5395 15.4142 63.0573C15.4142 63.5752 15.8337 63.9947 16.3516 63.9947C17.7096 63.9947 38.4048 63.9947 39.776 63.9947C40.2937 63.9947 40.7133 63.5752 40.7133 63.0573C40.7133 62.5395 40.2938 62.12 39.776 62.12H36.7445L37.674 44.5392C37.7013 44.0223 37.3045 43.5811 36.7873 43.5537C36.2733 43.523 35.8291 43.9232 35.8018 44.4403L35.6065 48.1357L30.8263 47.6342C31.7431 39.4727 31.6347 38.5286 32.708 37.2142C34.1063 35.5471 36.1426 35.3448 36.4072 35.238C36.554 38.2537 37.4328 41.4113 40.4543 41.4113C42.5293 41.4113 44.7223 39.7711 45.8247 38.8151C50.7453 43.0832 54.9018 42.2415 55.2423 35.2371C55.5053 35.3231 56.5521 35.4582 57.665 36.125C59.0187 36.9381 59.658 38.0007 59.9043 39.5092C59.996 40.0946 59.9198 39.5812 60.8271 47.6345L56.0833 48.1322L55.8882 44.4407C55.8608 43.9236 55.414 43.5236 54.9027 43.5541C54.3857 43.5815 53.9887 44.0226 54.0161 44.5396L54.9455 62.1203H44.1501C43.6323 62.1203 43.2127 62.5398 43.2127 63.0577C43.2127 63.5756 43.6322 63.9951 44.1501 63.9951H59.5801C62.548 63.9947 64.3042 61.6096 63.9563 58.739ZM7.78572 50.0065L7.17722 62.1198C4.95959 62.0002 3.60147 62.4638 2.60772 61.4566C1.95259 60.7926 1.81834 59.8682 1.89659 58.9348L2.95259 49.4993L7.78572 50.0065ZM28.5598 18.4603V15.7577C29.9916 16.3483 29.9916 17.8696 28.5598 18.4603ZM7.71847 18.4605C6.28622 17.87 6.28584 16.3481 7.71847 15.7575V18.4605ZM8.60609 13.6563C8.59284 13.6643 8.59597 13.6623 8.52834 13.703C8.07172 13.716 7.63497 13.7981 7.23097 13.9381C7.33459 13.3017 6.61259 9.34308 9.99097 5.54108C11.2332 4.18221 12.6663 3.16283 14.4726 2.51633C14.5025 2.51521 21.235 -0.195668 26.4983 5.78533C29.6447 9.53508 28.9533 13.5147 29.0468 13.9382C28.643 13.7982 28.2062 13.7161 27.7498 13.7031C26.844 13.1837 26.4112 12.2228 26.374 11.1685C26.3661 11.1357 26.4163 10.1546 25.5542 9.43521C24.5031 8.55796 23.5871 8.99921 21.6772 9.18858C16.6406 9.67646 13.1027 8.97071 12.5521 8.92833C11.2448 8.72496 9.94722 9.66821 9.90422 11.1695C9.83584 13.0383 8.59972 13.6607 8.60609 13.6563ZM9.59309 19.5806V15.2503C10.2305 14.746 10.9385 14.3308 11.467 12.9097C11.6688 12.3577 11.7635 11.7593 11.781 11.1692C11.7871 10.926 12.0151 10.7418 12.2638 10.7808C14.7321 11.1037 16.3547 11.2665 18.5616 11.2405L18.7013 11.2381C26.2556 11.1235 23.6735 9.58196 24.7843 12.8351C25.213 14.101 26.0778 14.7993 26.006 14.7311C26.359 15.0596 26.6627 15.2343 26.6846 15.2501C26.6846 15.423 26.685 20.2508 26.685 20.4263C26.685 24.8657 23.2791 28.6281 18.7108 28.9508C16.1608 29.1196 14.39 28.0973 14.231 28.0278L14.1287 28.2341C14.1246 28.2352 14.1206 28.2362 14.1165 28.2375L14.2196 28.0222C14.0936 27.9498 13.9086 27.8685 13.5071 27.6078C9.01497 24.7067 9.64384 19.8275 9.59309 19.5806ZM15.4326 37.1772L12.9088 33.9466L14.1785 33.339L16.7961 35.8036L15.4326 37.1772ZM18.1391 34.493L15.3203 31.8392V30.4592C17.1538 30.9726 19.1046 30.981 20.9803 30.4528V31.818L18.1391 34.493ZM20.8456 37.1772L19.4822 35.8033L22.115 33.3245L23.3816 33.9308L20.8456 37.1772ZM35.4735 50.0065L34.865 62.1198C31.8918 62.1167 31.806 62.1452 31.3536 62.0406C30.2025 61.7748 29.5668 60.764 29.5428 59.5826C29.5386 58.6748 29.508 59.6738 30.6181 49.497L35.4735 50.0065ZM38.6783 25.0837C37.8795 23.7542 37.2991 22.4255 37.2991 20.4263V15.1356C37.2991 15.0225 37.3796 14.9263 37.4948 14.902C38.6473 14.6582 40.3376 14.0285 41.8807 12.4143C43.3017 14.1131 47.2611 17.9301 54.3306 18.2605C54.3645 18.2621 54.391 18.2893 54.391 18.3226C54.3886 20.1998 54.4947 21.3527 54.0282 22.8992C52.8696 26.7433 49.4853 28.1593 49.7528 28.0282L49.671 28.0686C49.2577 28.2768 49.4097 28.1787 49.2272 28.2592C47.5646 29.0008 45.8847 28.966 45.831 28.9716C45.7856 28.9587 41.3473 29.1841 38.6783 25.0837ZM49.742 33.8673C49.7412 33.8671 49.7403 33.867 49.7395 33.8667C49.7403 33.8668 49.7412 33.8671 49.742 33.8673ZM39.8575 39.4265C38.901 39.0286 38.3431 37.3876 38.265 34.7752L38.6893 34.6696C39.9142 36.4225 41.6498 37.6453 43.6105 38.1702C42.3648 39.0585 40.8307 39.8312 39.8575 39.4265ZM40.7082 34.1668C41.953 33.852 41.9497 33.8695 42.0848 33.8082C42.6318 33.5606 42.9855 32.9298 42.9855 32.2016V30.4475C44.72 30.9485 46.6496 31.0033 48.668 30.4578V32.2015C48.668 33.0903 49.1842 33.7275 49.729 33.864C49.7411 33.867 49.7461 33.8682 49.7473 33.8686C49.8105 33.8843 50.0648 33.9477 50.9422 34.1661C48.1887 37.384 43.4597 37.386 40.7082 34.1668ZM51.7933 39.426C50.7035 39.881 48.9886 38.8557 48.029 38.163C50.0695 37.6098 51.7711 36.3208 52.9277 34.6606C52.9402 34.6637 53.4138 34.7816 53.3847 34.7743C53.307 37.386 52.7495 39.0272 51.7933 39.426ZM61.3806 61.4566C60.3867 62.4638 59.0361 62 56.8227 62.1198L56.1823 50.0062L61.0356 49.4971C62.178 59.8965 62.092 58.5276 62.1111 59.5425C62.1176 60.1045 61.9291 60.9007 61.3806 61.4566Z" fill="#2D55A5"/>
</g>
<defs>
<clipPath id="clip0_1_896">
<rect width="64" height="64" fill="white"/>
</clipPath>
</defs>
</svg>
