<svg width="40" height="40" viewBox="0 0 40 40" fill="none" xmlns="http://www.w3.org/2000/svg">
<path d="M12.8289 2.35492H5.51645C5.19387 2.35536 4.88464 2.48371 4.65657 2.71183C4.42851 2.93996 4.30023 3.24922 4.29988 3.5718V10.8843C4.30023 11.2069 4.42855 11.5162 4.65669 11.7444C4.88482 11.9725 5.19413 12.1008 5.51676 12.1012H12.8293C13.1519 12.1008 13.4612 11.9725 13.6893 11.7444C13.9175 11.5162 14.0458 11.2069 14.0461 10.8843V3.5718C14.0458 3.24912 13.9174 2.93976 13.6892 2.71161C13.461 2.48347 13.1516 2.35519 12.8289 2.35492ZM12.7958 10.8509H5.54988V3.60492H12.7958V10.8509ZM10.9243 10.598C11.241 10.598 11.5507 10.504 11.814 10.3281C12.0774 10.1521 12.2827 9.90195 12.4039 9.6093C12.5251 9.31665 12.5568 8.99463 12.495 8.68396C12.4333 8.37328 12.2807 8.08791 12.0567 7.86393C11.8328 7.63995 11.5474 7.48741 11.2367 7.42562C10.926 7.36382 10.604 7.39554 10.3114 7.51676C10.0187 7.63797 9.76859 7.84325 9.59261 8.10663C9.41663 8.37 9.3227 8.67965 9.3227 8.99641C9.32319 9.42101 9.49209 9.82809 9.79233 10.1283C10.0926 10.4286 10.4996 10.5975 10.9243 10.598ZM10.9243 8.64484C10.9938 8.64484 11.0618 8.66546 11.1196 8.70409C11.1774 8.74272 11.2225 8.79763 11.2491 8.86187C11.2757 8.92611 11.2826 8.9968 11.2691 9.06499C11.2555 9.13319 11.222 9.19583 11.1729 9.245C11.1237 9.29417 11.061 9.32765 10.9928 9.34121C10.9246 9.35478 10.854 9.34782 10.7897 9.32121C10.7255 9.2946 10.6706 9.24954 10.6319 9.19172C10.5933 9.13391 10.5727 9.06594 10.5727 8.99641C10.5728 8.9032 10.6099 8.81384 10.6758 8.74793C10.7417 8.68202 10.831 8.64495 10.9243 8.64484ZM7.42168 10.598C7.73844 10.598 8.04808 10.504 8.31146 10.3281C8.57484 10.1521 8.78011 9.90195 8.90133 9.6093C9.02255 9.31665 9.05427 8.99463 8.99247 8.68396C8.93067 8.37328 8.77814 8.08791 8.55416 7.86393C8.33017 7.63995 8.0448 7.48741 7.73413 7.42562C7.42346 7.36382 7.10144 7.39554 6.80879 7.51676C6.51614 7.63797 6.26601 7.84325 6.09003 8.10663C5.91405 8.37 5.82012 8.67965 5.82012 8.99641C5.82059 9.42102 5.98948 9.82811 6.28973 10.1284C6.58998 10.4286 6.99707 10.5975 7.42168 10.598ZM7.42168 8.64484C7.49121 8.64484 7.55918 8.66546 7.617 8.70409C7.67481 8.74272 7.71987 8.79763 7.74648 8.86187C7.77309 8.92611 7.78005 8.9968 7.76649 9.06499C7.75292 9.13319 7.71944 9.19583 7.67027 9.245C7.62111 9.29417 7.55846 9.32765 7.49027 9.34121C7.42207 9.35478 7.35138 9.34782 7.28714 9.32121C7.2229 9.2946 7.168 9.24954 7.12937 9.19172C7.09074 9.13391 7.07012 9.06594 7.07012 8.99641C7.07022 8.9032 7.10729 8.81384 7.1732 8.74793C7.23911 8.68202 7.32847 8.64495 7.42168 8.64484ZM10.9244 7.06086C11.2412 7.06086 11.5508 6.96693 11.8142 6.79095C12.0776 6.61497 12.2828 6.36484 12.4041 6.07219C12.5253 5.77954 12.557 5.45752 12.4952 5.14685C12.4334 4.83617 12.2809 4.5508 12.0569 4.32682C11.8329 4.10284 11.5475 3.9503 11.2369 3.88851C10.9262 3.82671 10.6042 3.85843 10.3115 3.97965C10.0189 4.10086 9.76875 4.30614 9.59276 4.56952C9.41678 4.83289 9.32285 5.14254 9.32285 5.4593C9.32333 5.88388 9.49219 6.29095 9.79241 6.59119C10.0926 6.89144 10.4997 7.06034 10.9243 7.06086H10.9244ZM10.9244 5.10773C10.9939 5.10773 11.0619 5.12835 11.1197 5.16698C11.1775 5.20561 11.2226 5.26052 11.2492 5.32476C11.2758 5.389 11.2828 5.45969 11.2692 5.52788C11.2557 5.59608 11.2222 5.65872 11.173 5.70789C11.1238 5.75706 11.0612 5.79054 10.993 5.8041C10.9248 5.81767 10.8541 5.81071 10.7899 5.7841C10.7256 5.75749 10.6707 5.71243 10.6321 5.65461C10.5935 5.5968 10.5729 5.52883 10.5729 5.4593C10.5729 5.3661 10.6099 5.27672 10.6758 5.21081C10.7417 5.1449 10.8311 5.10785 10.9243 5.10781L10.9244 5.10773ZM7.42168 7.06086C7.73844 7.06086 8.04808 6.96693 8.31146 6.79095C8.57484 6.61497 8.78011 6.36484 8.90133 6.07219C9.02255 5.77954 9.05427 5.45752 8.99247 5.14685C8.93067 4.83617 8.77814 4.5508 8.55416 4.32682C8.33017 4.10284 8.0448 3.9503 7.73413 3.88851C7.42346 3.82671 7.10144 3.85843 6.80879 3.97965C6.51614 4.10086 6.26601 4.30614 6.09003 4.56952C5.91405 4.83289 5.82012 5.14254 5.82012 5.4593C5.82059 5.88391 5.98948 6.291 6.28973 6.59125C6.58998 6.8915 6.99707 7.06038 7.42168 7.06086ZM7.42168 5.10773C7.49121 5.10773 7.55918 5.12835 7.617 5.16698C7.67481 5.20561 7.71987 5.26052 7.74648 5.32476C7.77309 5.389 7.78005 5.45969 7.76649 5.52788C7.75292 5.59608 7.71944 5.65872 7.67027 5.70789C7.62111 5.75706 7.55846 5.79054 7.49027 5.8041C7.42207 5.81767 7.35138 5.81071 7.28714 5.7841C7.2229 5.75749 7.168 5.71243 7.12937 5.65461C7.09074 5.5968 7.07012 5.52883 7.07012 5.4593C7.07014 5.36607 7.10719 5.27667 7.17312 5.21075C7.23904 5.14484 7.32845 5.10773 7.42168 5.10773ZM35.8761 0H4.12355C3.56908 0.00064102 3.03751 0.221193 2.64544 0.613271C2.25338 1.00535 2.03285 1.53693 2.03223 2.09141V37.9086C2.03285 38.4631 2.25338 38.9946 2.64544 39.3867C3.03751 39.7788 3.56908 39.9994 4.12355 40H35.8761C36.4305 39.9994 36.9621 39.7788 37.3542 39.3867C37.7462 38.9946 37.9668 38.4631 37.9674 37.9086V2.09141C37.9668 1.53693 37.7462 1.00535 37.3542 0.613271C36.9621 0.221193 36.4305 0.00064102 35.8761 0ZM22.9061 1.25H31.8195V2.08758C31.8193 2.20522 31.7725 2.31799 31.6894 2.40117C31.6062 2.48434 31.4934 2.53113 31.3757 2.53125H23.3499C23.2322 2.53113 23.1195 2.48434 23.0363 2.40117C22.9531 2.31799 22.9063 2.20522 22.9061 2.08758L22.9061 1.25ZM3.28223 37.9086V2.09141C3.28245 1.86833 3.37116 1.65446 3.52889 1.49672C3.68662 1.33898 3.90048 1.25025 4.12355 1.25H16.9356C16.8185 1.51505 16.7581 1.80164 16.7582 2.09141V37.9086C16.7581 38.1984 16.8185 38.485 16.9356 38.75H4.12355C3.90048 38.7498 3.68662 38.661 3.52889 38.5033C3.37116 38.3455 3.28245 38.1317 3.28223 37.9086ZM36.7174 37.9086C36.7172 38.1317 36.6284 38.3455 36.4707 38.5033C36.313 38.661 36.0991 38.7498 35.8761 38.75H18.8496C18.6265 38.7498 18.4126 38.661 18.2549 38.5033C18.0972 38.3455 18.0085 38.1317 18.0082 37.9086V2.09141C18.0085 1.86833 18.0972 1.65446 18.2549 1.49672C18.4126 1.33898 18.6265 1.25025 18.8496 1.25H21.6561V2.08758C21.6565 2.53666 21.8351 2.96722 22.1527 3.28476C22.4702 3.6023 22.9008 3.78086 23.3499 3.78125H31.3757C31.8248 3.78084 32.2554 3.60227 32.5729 3.28473C32.8905 2.9672 33.0691 2.53665 33.0695 2.08758V1.25H35.8761C36.0991 1.25025 36.313 1.33898 36.4707 1.49672C36.6284 1.65446 36.7172 1.86833 36.7174 2.09141V37.9086ZM27.5028 33.543C27.0826 33.543 26.6717 33.6677 26.3223 33.9012C25.9728 34.1347 25.7004 34.4665 25.5396 34.8548C25.3788 35.2431 25.3367 35.6704 25.4187 36.0826C25.5007 36.4948 25.7031 36.8735 26.0003 37.1706C26.2974 37.4678 26.6761 37.6702 27.0883 37.7522C27.5005 37.8342 27.9278 37.7921 28.3161 37.6313C28.7043 37.4705 29.0362 37.1981 29.2697 36.8486C29.5032 36.4992 29.6279 36.0883 29.6279 35.668C29.6272 35.1047 29.4031 34.5645 29.0047 34.1662C28.6064 33.7678 28.0662 33.5437 27.5028 33.543ZM27.5028 36.543C27.3298 36.543 27.1606 36.4917 27.0167 36.3956C26.8728 36.2994 26.7607 36.1628 26.6945 36.0029C26.6282 35.843 26.6109 35.6671 26.6447 35.4973C26.6784 35.3276 26.7618 35.1717 26.8841 35.0493C27.0065 34.927 27.1624 34.8436 27.3321 34.8099C27.5019 34.7761 27.6778 34.7934 27.8377 34.8597C27.9976 34.9259 28.1342 35.038 28.2304 35.1819C28.3265 35.3258 28.3779 35.495 28.3779 35.668C28.3776 35.9 28.2853 36.1224 28.1212 36.2864C27.9572 36.4504 27.7348 36.5427 27.5028 36.543V36.543Z" fill="white"/>
</svg>
