<svg width="40" height="40" viewBox="0 0 40 40" fill="none" xmlns="http://www.w3.org/2000/svg">
<g clip-path="url(#clip0_2101_31227)">
<path d="M29.0596 32.6017H21.527L20.7389 31.8136L22.7166 29.8358C22.9339 29.6185 23.0246 29.3094 22.9591 29.0091C22.8937 28.7089 22.6827 28.4657 22.3948 28.3586L12.0714 24.5165C11.7091 24.3816 11.3138 24.4676 11.0403 24.7413C10.7668 25.0148 10.6807 25.41 10.8156 25.7724L13.3573 32.6017H3.00711C1.99617 32.6017 1.17383 31.7793 1.17383 30.7685V18.1285C1.17383 17.8048 0.911563 17.5425 0.587891 17.5425C0.264219 17.5425 0.00195312 17.8048 0.00195312 18.1285V30.7685C0.00195312 32.4255 1.35008 33.7736 3.00711 33.7736H13.7934L14.6576 36.0956C14.7647 36.3837 15.008 36.5947 15.3083 36.6602C15.6085 36.7258 15.9177 36.635 16.1348 36.4177L18.1126 34.44L20.1259 36.4533C20.3162 36.6436 20.5662 36.7386 20.8162 36.7386C21.0663 36.7386 21.3164 36.6435 21.5068 36.4533L22.7522 35.2079C23.1328 34.8272 23.1327 34.2076 22.7521 33.8269C22.7521 33.8269 22.7521 33.8269 22.752 33.8269L22.6989 33.7738H29.0595C29.3832 33.7738 29.6455 33.5115 29.6455 33.1879C29.6455 32.8642 29.3832 32.6017 29.0596 32.6017ZM20.8163 35.4862L18.527 33.1968C18.4125 33.0825 18.2626 33.0253 18.1126 33.0253C17.9627 33.0253 17.8127 33.0825 17.6982 33.1968L15.6073 35.2878L12.0627 25.7637L21.5867 29.3083L19.4958 31.3993C19.267 31.6282 19.267 31.9991 19.4959 32.2279L21.7852 34.5172L20.8163 35.4862Z" fill="white"/>
<path d="M36.9968 3.25911H34.9482C34.6245 3.25911 34.3623 3.52138 34.3623 3.84505C34.3623 4.16872 34.6245 4.43098 34.9482 4.43098H36.9968C38.0077 4.43098 38.8301 5.25333 38.8301 6.26427V9.93544H1.17383V6.26427C1.17383 5.25341 1.99617 4.43098 3.00711 4.43098H32.2383C32.562 4.43098 32.8242 4.16872 32.8242 3.84505C32.8242 3.52138 32.562 3.25911 32.2383 3.25911H3.00711C1.35008 3.25911 0.00195312 4.60723 0.00195312 6.26427V15.4918C0.00195312 15.8154 0.264219 16.0777 0.587891 16.0777C0.911563 16.0777 1.17383 15.8154 1.17383 15.4918V11.1074H38.8301V30.7685C38.8301 31.7793 38.0077 32.6018 36.9968 32.6018H31.8672C31.5435 32.6018 31.2812 32.864 31.2812 33.1877C31.2812 33.5114 31.5435 33.7736 31.8672 33.7736H36.9968C38.6538 33.7736 40.002 32.4255 40.002 30.7685V6.26427C40.002 4.60723 38.6538 3.25911 36.9968 3.25911Z" fill="white"/>
<path d="M3.88232 7.18297C3.88232 7.78242 4.36826 8.26836 4.96764 8.26836C5.56701 8.26836 6.05295 7.78242 6.05295 7.18297C6.05295 6.58352 5.56701 6.09766 4.96764 6.09766C4.36826 6.09766 3.88232 6.58352 3.88232 7.18297Z" fill="white"/>
<path d="M7.22119 7.18297C7.22119 7.78242 7.70713 8.26836 8.3065 8.26836C8.90588 8.26836 9.39182 7.78242 9.39182 7.18297C9.39182 6.58352 8.90588 6.09766 8.3065 6.09766C7.70713 6.09766 7.22119 6.58352 7.22119 7.18297Z" fill="white"/>
<path d="M10.5605 7.18297C10.5605 7.78242 11.0465 8.26836 11.6459 8.26836C12.2452 8.26836 12.7312 7.78242 12.7312 7.18297C12.7312 6.58352 12.2452 6.09766 11.6459 6.09766C11.0465 6.09766 10.5605 6.58352 10.5605 7.18297Z" fill="white"/>
<path d="M7.17145 24.0074H7.17481C7.42246 24.0074 7.64356 23.8516 7.72668 23.6182L9.17809 19.5454L10.565 23.6108C10.6456 23.8471 10.8673 24.0064 11.1171 24.0075H11.1195C11.3683 24.0075 11.59 23.8503 11.6725 23.6153L13.64 18.0023C13.747 17.697 13.5862 17.3626 13.2807 17.2555C12.9756 17.1485 12.6411 17.3093 12.5339 17.6148L11.1269 21.6287L9.74473 17.5768C9.58801 17.0619 8.8016 17.0571 8.63824 17.5693L7.18481 21.6478L5.80231 17.6246C5.69715 17.3185 5.36387 17.1555 5.05777 17.2609C4.75176 17.3661 4.58887 17.6994 4.6941 18.0055L6.62067 23.6119C6.70152 23.8473 6.92246 24.0059 7.17145 24.0074Z" fill="white"/>
<path d="M18.0128 24.0076H18.0161C18.2638 24.0076 18.4849 23.8519 18.568 23.6184L20.0194 19.5456L21.4063 23.611C21.4869 23.8473 21.7086 24.0066 21.9584 24.0077H21.9608C22.2096 24.0077 22.4313 23.8505 22.5138 23.6155L24.4813 18.0026C24.5883 17.6973 24.4275 17.3629 24.1221 17.2558C23.8169 17.1487 23.4824 17.3095 23.3753 17.615L21.9682 21.629L20.586 17.577C20.4292 17.062 19.6429 17.0573 19.4796 17.5695L18.0261 21.648L16.6436 17.6249C16.5385 17.3188 16.205 17.1558 15.8991 17.2612C15.5931 17.3664 15.4302 17.6998 15.5354 18.0058L17.462 23.6122C17.5429 23.8476 17.7638 24.0062 18.0128 24.0076Z" fill="white"/>
<path d="M28.6789 24.0074H28.6822C28.9299 24.0074 29.151 23.8516 29.2341 23.6182L30.6855 19.5454L32.0724 23.6108C32.153 23.8471 32.3747 24.0064 32.6245 24.0075H32.6269C32.8757 24.0075 33.0974 23.8503 33.1799 23.6153L35.1473 18.0023C35.2543 17.697 35.0935 17.3626 34.7881 17.2555C34.4828 17.1485 34.1484 17.3093 34.0413 17.6148L32.6343 21.6287L31.2521 17.5768C31.0955 17.0619 30.3089 17.0571 30.1456 17.5693L28.6922 21.6478L27.3096 17.6247C27.2045 17.3187 26.8716 17.1557 26.5651 17.261C26.2591 17.3662 26.0962 17.6995 26.2014 18.0055L28.1281 23.6119C28.209 23.8473 28.4299 24.0059 28.6789 24.0074Z" fill="white"/>
</g>
<defs>
<clipPath id="clip0_2101_31227">
<rect width="40" height="40" fill="white"/>
</clipPath>
</defs>
</svg>
