<svg width="56" height="56" viewBox="0 0 56 56" fill="none" xmlns="http://www.w3.org/2000/svg">
<g clip-path="url(#clip0_31_2025)">
<path d="M47.6409 6.54688H2.74739C1.23244 6.54688 0 7.77931 0 9.29427V39.2233C0 40.7383 1.23244 41.9707 2.74739 41.9707H18.5892L17.8731 47.6993H16.7766C16.2924 47.6993 15.8997 48.0919 15.8997 48.5762C15.8997 49.0604 16.2923 49.453 16.7766 49.453H21.453C21.9372 49.453 22.3299 49.0605 22.3299 48.5762C22.3299 48.092 21.9373 47.6993 21.453 47.6993H19.6405L20.3565 41.9707H21.453C21.9372 41.9707 22.3299 41.5782 22.3299 41.0938C22.3299 40.6096 21.9373 40.217 21.453 40.217H2.74739C2.19942 40.217 1.75361 39.7712 1.75361 39.2232V36.3589H21.453C21.9372 36.3589 22.3299 35.9663 22.3299 35.482C22.3299 34.9977 21.9373 34.6052 21.453 34.6052H1.75361V9.29427C1.75361 8.7463 2.19942 8.30048 2.74739 8.30048H47.6409C48.1889 8.30048 48.6347 8.7463 48.6347 9.29427V27.9999C48.6347 28.4841 49.0272 28.8768 49.5115 28.8768C49.9958 28.8768 50.3884 28.4842 50.3884 27.9999V9.29427C50.3883 7.77931 49.1559 6.54688 47.6409 6.54688Z" fill="#2D55A5"/>
<path d="M40.1582 23.3816H27.0643C25.5493 23.3816 24.3169 24.614 24.3169 26.129V46.7052C24.3169 48.2201 25.5493 49.4525 27.0643 49.4525H40.1582C41.6732 49.4525 42.9056 48.2201 42.9056 46.7052V26.129C42.9056 24.614 41.6732 23.3816 40.1582 23.3816ZM41.152 46.7052C41.152 47.2531 40.7062 47.6989 40.1582 47.6989H27.0643C26.5163 47.6989 26.0705 47.2531 26.0705 46.7052V45.7114H41.1519V46.7052H41.152ZM41.152 43.9578H26.0705V28.8764H41.1519V43.9578H41.152ZM41.152 27.1227H26.0705V26.1289C26.0705 25.5809 26.5163 25.1351 27.0643 25.1351H40.1582C40.7062 25.1351 41.152 25.5809 41.152 26.1289V27.1227Z" fill="#2D55A5"/>
<path d="M53.2522 30.8643H47.6405C46.1255 30.8643 44.8931 32.0967 44.8931 33.6117V46.7056C44.8931 48.2205 46.1255 49.453 47.6405 49.453H53.2522C54.7671 49.453 55.9996 48.2205 55.9996 46.7056V33.6117C55.9996 32.0967 54.7671 30.8643 53.2522 30.8643ZM54.2459 46.7056C54.2459 47.2536 53.8001 47.6994 53.2522 47.6994H47.6405C47.0925 47.6994 46.6467 47.2536 46.6467 46.7056V45.7118H54.2458V46.7056H54.2459ZM54.2459 43.9582H46.6468V36.359H54.2459V43.9582ZM54.2459 34.6054H46.6468V33.6117C46.6468 33.0637 47.0926 32.6179 47.6406 32.6179H53.2523C53.8002 32.6179 54.2461 33.0637 54.2461 33.6117L54.2459 34.6054Z" fill="#2D55A5"/>
</g>
<defs>
<clipPath id="clip0_31_2025">
<rect width="56" height="56" fill="white"/>
</clipPath>
</defs>
</svg>
