<svg width="157" height="48" viewBox="0 0 157 48" fill="none" xmlns="http://www.w3.org/2000/svg">
<g id="Google Play Footer" clip-path="url(#clip0_4291_16123)">
<g id="Group">
<path id="Vector" d="M150.859 47.1987H6.22483C2.98502 47.1987 0.439453 44.6028 0.439453 41.2989V5.89984C0.439453 2.59593 2.98502 0 6.22483 0H150.859C154.099 0 156.645 2.59593 156.645 5.89984V41.2989C156.645 44.6028 154.099 47.1987 150.859 47.1987Z" fill="black"/>
<path id="Vector_2" d="M150.859 0.943974C153.521 0.943974 155.719 3.18591 155.719 5.89984V41.2989C155.719 44.0128 153.521 46.2547 150.859 46.2547H6.22483C3.56356 46.2547 1.36511 44.0128 1.36511 41.2989V5.89984C1.36511 3.18591 3.56356 0.943974 6.22483 0.943974H150.859ZM150.859 0H6.22483C2.98502 0 0.439453 2.71392 0.439453 5.89984V41.2989C0.439453 44.6028 2.98502 47.1987 6.22483 47.1987H150.859C154.099 47.1987 156.645 44.6028 156.645 41.2989V5.89984C156.645 2.71392 154.099 0 150.859 0Z" fill="#A6A6A6"/>
<path id="Vector_3" d="M55.2843 12.0365C55.2843 12.9804 55.0528 13.8064 54.4743 14.3964C53.7801 15.1044 52.9701 15.4584 51.9287 15.4584C50.8874 15.4584 50.0774 15.1044 49.3832 14.3964C48.6889 13.6884 48.3418 12.8624 48.3418 11.8005C48.3418 10.7385 48.6889 9.91253 49.3832 9.20455C50.0774 8.49657 50.8874 8.14258 51.9287 8.14258C52.3916 8.14258 52.8544 8.26057 53.3172 8.49657C53.7801 8.73256 54.1272 8.96856 54.3586 9.32255L53.78 9.91253C53.3172 9.32254 52.7387 9.08655 51.9287 9.08655C51.2345 9.08655 50.5402 9.32254 50.0774 9.91253C49.4989 10.3845 49.2675 11.0925 49.2675 11.9185C49.2675 12.7445 49.4989 13.4524 50.0774 13.9244C50.6559 14.3964 51.2345 14.7504 51.9287 14.7504C52.7387 14.7504 53.3172 14.5144 53.8958 13.9244C54.2429 13.5704 54.4743 13.0984 54.4743 12.5085H51.9287V11.5645H55.2843V12.0365ZM60.6068 9.08655H57.4827V11.3285H60.3754V12.1545H57.4827V14.3964H60.6068V15.3404H56.557V8.26057H60.6068V9.08655ZM64.4251 15.3404H63.4995V9.08655H61.5325V8.26057H66.3922V9.08655H64.4251V15.3404ZM69.7477 15.3404V8.26057H70.6734V15.3404H69.7477ZM74.6074 15.3404H73.6818V9.08655H71.7147V8.26057H76.4587V9.08655H74.4917V15.3404H74.6074ZM85.5996 14.3964C84.9054 15.1044 84.0954 15.4584 83.0541 15.4584C82.0127 15.4584 81.2027 15.1044 80.5085 14.3964C79.8142 13.6884 79.4671 12.8624 79.4671 11.8005C79.4671 10.7385 79.8142 9.91253 80.5085 9.20455C81.2027 8.49657 82.0127 8.14258 83.0541 8.14258C84.0954 8.14258 84.9054 8.49657 85.5996 9.20455C86.2939 9.91253 86.641 10.7385 86.641 11.8005C86.641 12.8624 86.2939 13.6884 85.5996 14.3964ZM81.2027 13.8064C81.6656 14.2784 82.3598 14.6324 83.0541 14.6324C83.7483 14.6324 84.4426 14.3964 84.9054 13.8064C85.3682 13.3344 85.7153 12.6265 85.7153 11.8005C85.7153 10.9745 85.4839 10.2665 84.9054 9.79453C84.4426 9.32255 83.7483 8.96856 83.0541 8.96856C82.3598 8.96856 81.6656 9.20455 81.2027 9.79453C80.7399 10.2665 80.3928 10.9745 80.3928 11.8005C80.3928 12.6265 80.6242 13.3344 81.2027 13.8064ZM87.9138 15.3404V8.26057H88.9552L92.3107 13.8064V8.26057H93.2363V15.3404H92.3107L88.7237 9.55854V15.3404H87.9138Z" fill="white" stroke="white" stroke-width="0.8" stroke-miterlimit="10"/>
<path id="Vector_4" d="M79.2371 25.7236C76.4602 25.7236 74.2617 27.8475 74.2617 30.7974C74.2617 33.6294 76.4602 35.8713 79.2371 35.8713C82.0141 35.8713 84.2126 33.7474 84.2126 30.7974C84.2126 27.7295 82.0141 25.7236 79.2371 25.7236ZM79.2371 33.7474C77.7329 33.7474 76.4602 32.4494 76.4602 30.6794C76.4602 28.9095 77.7329 27.6115 79.2371 27.6115C80.7413 27.6115 82.0141 28.7915 82.0141 30.6794C82.0141 32.4494 80.7413 33.7474 79.2371 33.7474ZM68.4763 25.7236C65.6994 25.7236 63.5009 27.8475 63.5009 30.7974C63.5009 33.6294 65.6994 35.8713 68.4763 35.8713C71.2533 35.8713 73.4518 33.7474 73.4518 30.7974C73.4518 27.7295 71.2533 25.7236 68.4763 25.7236ZM68.4763 33.7474C66.9721 33.7474 65.6994 32.4494 65.6994 30.6794C65.6994 28.9095 66.9721 27.6115 68.4763 27.6115C69.9805 27.6115 71.2533 28.7915 71.2533 30.6794C71.2533 32.4494 69.9805 33.7474 68.4763 33.7474ZM55.6328 27.2575V29.3815H60.6082C60.4925 30.5614 60.0297 31.5054 59.4511 32.0954C58.7569 32.8034 57.5998 33.6294 55.6328 33.6294C52.5087 33.6294 50.1945 31.1514 50.1945 27.9655C50.1945 24.7796 52.6244 22.3017 55.6328 22.3017C57.2527 22.3017 58.5255 23.0097 59.4511 23.8356L60.9553 22.3017C59.6826 21.1217 58.0627 20.1777 55.7485 20.1777C51.583 20.1777 47.9961 23.7176 47.9961 27.9655C47.9961 32.2134 51.583 35.7533 55.7485 35.7533C58.0627 35.7533 59.6826 35.0453 61.0711 33.5114C62.4595 32.0954 62.9224 30.0895 62.9224 28.5555C62.9224 28.0835 62.9224 27.6115 62.8067 27.2575H55.6328ZM108.164 28.9095C107.701 27.7295 106.544 25.7236 103.999 25.7236C101.453 25.7236 99.3703 27.7295 99.3703 30.7974C99.3703 33.6294 101.453 35.8713 104.23 35.8713C106.428 35.8713 107.817 34.4553 108.28 33.6294L106.66 32.4494C106.081 33.2754 105.387 33.8654 104.23 33.8654C103.073 33.8654 102.379 33.3934 101.8 32.3314L108.395 29.4995L108.164 28.9095ZM101.453 30.5614C101.453 28.6735 102.957 27.6115 103.999 27.6115C104.809 27.6115 105.618 28.0835 105.85 28.6735L101.453 30.5614ZM96.0147 35.3993H98.2132V20.6497H96.0147V35.3993ZM92.5435 26.7856C91.965 26.1956 91.0393 25.6056 89.8822 25.6056C87.4524 25.6056 85.1382 27.8475 85.1382 30.6794C85.1382 33.5114 87.3367 35.6353 89.8822 35.6353C91.0393 35.6353 91.965 35.0453 92.4278 34.4553H92.5435V35.1633C92.5435 37.0513 91.5021 38.1132 89.8822 38.1132C88.6095 38.1132 87.6838 37.1693 87.4524 36.3433L85.6011 37.1693C86.1796 38.4672 87.5681 40.1192 89.9979 40.1192C92.5435 40.1192 94.6263 38.5852 94.6263 34.9273V25.9596H92.5435V26.7856ZM89.9979 33.7474C88.4937 33.7474 87.221 32.4494 87.221 30.6794C87.221 28.9095 88.4937 27.6115 89.9979 27.6115C91.5021 27.6115 92.6592 28.9095 92.6592 30.6794C92.6592 32.4494 91.5021 33.7474 89.9979 33.7474ZM118.231 20.6497H113.024V35.3993H115.222V29.8535H118.231C120.66 29.8535 122.975 28.0835 122.975 25.2516C122.975 22.4197 120.66 20.6497 118.231 20.6497ZM118.346 27.7295H115.222V22.6557H118.346C119.966 22.6557 120.892 24.0716 120.892 25.1336C120.776 26.4316 119.851 27.7295 118.346 27.7295ZM131.653 25.6056C130.033 25.6056 128.413 26.3136 127.834 27.8475L129.801 28.6735C130.264 27.8475 130.958 27.6115 131.768 27.6115C132.925 27.6115 133.967 28.3195 134.083 29.4995V29.6175C133.735 29.3815 132.81 29.0275 131.884 29.0275C129.801 29.0275 127.719 30.2075 127.719 32.3314C127.719 34.3373 129.454 35.6353 131.306 35.6353C132.81 35.6353 133.504 34.9273 134.083 34.2193H134.198V35.3993H136.281V29.7355C136.05 27.1395 134.083 25.6056 131.653 25.6056ZM131.421 33.7474C130.727 33.7474 129.686 33.3934 129.686 32.4494C129.686 31.2694 130.958 30.9154 132 30.9154C132.925 30.9154 133.388 31.1514 133.967 31.3874C133.735 32.8034 132.578 33.7474 131.421 33.7474ZM143.571 25.9596L141.141 32.3314H141.025L138.479 25.9596H136.165L139.984 34.9273L137.785 39.8832H139.984L145.885 25.9596H143.571ZM124.132 35.3993H126.33V20.6497H124.132V35.3993Z" fill="white"/>
<g id="Group_2">
<path id="Vector_5" d="M12.4726 8.84961C12.1255 9.2036 12.0098 9.79358 12.0098 10.5016V36.5788C12.0098 37.2868 12.2412 37.8768 12.5883 38.2308L12.704 38.3488L27.0518 23.7172V23.4812L12.4726 8.84961Z" fill="url(#paint0_linear_4291_16123)"/>
<path id="Vector_6" d="M31.6796 28.6743L26.9355 23.8364V23.4824L31.6796 18.6445L31.7953 18.7625L37.4649 22.0664C39.0848 23.0104 39.0848 24.5444 37.4649 25.4883L31.6796 28.6743Z" fill="url(#paint1_linear_4291_16123)"/>
<path id="Vector_7" d="M31.7958 28.5555L26.9361 23.5996L12.4727 38.3492C13.0512 38.9392 13.8611 38.9392 14.9025 38.4672L31.7958 28.5555Z" fill="url(#paint2_linear_4291_16123)"/>
<path id="Vector_8" d="M31.7958 18.6445L14.9025 8.85078C13.8611 8.26079 13.0512 8.37879 12.4727 8.96877L26.9361 23.6004L31.7958 18.6445Z" fill="url(#paint3_linear_4291_16123)"/>
<path id="Vector_9" opacity="0.2" d="M31.6801 28.4375L14.9025 38.1132C13.9769 38.7032 13.1669 38.5852 12.5884 38.1132L12.4727 38.2312L12.5884 38.3492C13.1669 38.8212 13.9769 38.9392 14.9025 38.3492L31.6801 28.4375Z" fill="black"/>
<path id="Vector_10" opacity="0.12" d="M12.4726 38.1132C12.1255 37.7592 12.0098 37.1692 12.0098 36.4613V36.5793C12.0098 37.2872 12.2412 37.8772 12.5883 38.2312V38.1132H12.4726ZM37.4654 25.1336L31.6801 28.4375L31.7958 28.5555L37.4654 25.2516C38.2754 24.7796 38.6225 24.1896 38.6225 23.5996C38.6225 24.1896 38.1597 24.6616 37.4654 25.1336Z" fill="black"/>
<path id="Vector_11" opacity="0.25" d="M14.9025 8.96789L37.4654 22.0655C38.1597 22.5375 38.6225 23.0095 38.6225 23.5995C38.6225 23.0095 38.2754 22.4195 37.4654 21.9475L14.9025 8.8499C13.2825 7.90592 12.0098 8.6139 12.0098 10.5019V10.6198C12.0098 8.8499 13.2825 8.02392 14.9025 8.96789Z" fill="white"/>
</g>
</g>
</g>
<defs>
<linearGradient id="paint0_linear_4291_16123" x1="25.6633" y1="10.2774" x2="5.86369" y2="29.6917" gradientUnits="userSpaceOnUse">
<stop stop-color="#00A0FF"/>
<stop offset="0.007" stop-color="#00A1FF"/>
<stop offset="0.26" stop-color="#00BEFF"/>
<stop offset="0.512" stop-color="#00D2FF"/>
<stop offset="0.76" stop-color="#00DFFF"/>
<stop offset="1" stop-color="#00E3FF"/>
</linearGradient>
<linearGradient id="paint1_linear_4291_16123" x1="39.587" y1="23.6016" x2="11.5893" y2="23.6016" gradientUnits="userSpaceOnUse">
<stop stop-color="#FFE000"/>
<stop offset="0.409" stop-color="#FFBD00"/>
<stop offset="0.775" stop-color="#FFA500"/>
<stop offset="1" stop-color="#FF9C00"/>
</linearGradient>
<linearGradient id="paint2_linear_4291_16123" x1="29.1658" y1="26.3088" x2="2.31724" y2="52.6365" gradientUnits="userSpaceOnUse">
<stop stop-color="#FF3A44"/>
<stop offset="1" stop-color="#C31162"/>
</linearGradient>
<linearGradient id="paint3_linear_4291_16123" x1="8.88225" y1="0.208696" x2="20.872" y2="11.9658" gradientUnits="userSpaceOnUse">
<stop stop-color="#32A071"/>
<stop offset="0.069" stop-color="#2DA771"/>
<stop offset="0.476" stop-color="#15CF74"/>
<stop offset="0.801" stop-color="#06E775"/>
<stop offset="1" stop-color="#00F076"/>
</linearGradient>
<clipPath id="clip0_4291_16123">
<rect width="156.205" height="47.1987" fill="white" transform="translate(0.439453)"/>
</clipPath>
</defs>
</svg>
