<svg width="40" height="40" viewBox="0 0 40 40" fill="none" xmlns="http://www.w3.org/2000/svg">
<path d="M12.8291 2.35492H5.51663C5.19406 2.35536 4.88482 2.48371 4.65676 2.71183C4.42869 2.93996 4.30042 3.24922 4.30007 3.5718V10.8843C4.30042 11.2069 4.42874 11.5162 4.65687 11.7444C4.885 11.9725 5.19431 12.1008 5.51694 12.1012H12.8294C13.1521 12.1008 13.4614 11.9725 13.6895 11.7444C13.9176 11.5162 14.046 11.2069 14.0463 10.8843V3.5718C14.046 3.24912 13.9176 2.93976 13.6894 2.71161C13.4612 2.48347 13.1518 2.35519 12.8291 2.35492ZM12.796 10.8509H5.55007V3.60492H12.796V10.8509ZM10.9244 10.598C11.2412 10.598 11.5508 10.504 11.8142 10.3281C12.0776 10.1521 12.2829 9.90195 12.4041 9.6093C12.5253 9.31665 12.557 8.99463 12.4952 8.68396C12.4334 8.37328 12.2809 8.08791 12.0569 7.86393C11.8329 7.63995 11.5476 7.48741 11.2369 7.42562C10.9262 7.36382 10.6042 7.39554 10.3116 7.51676C10.0189 7.63797 9.76877 7.84325 9.59279 8.10663C9.41681 8.37 9.32288 8.67965 9.32288 8.99641C9.32337 9.42101 9.49227 9.82809 9.79251 10.1283C10.0928 10.4286 10.4998 10.5975 10.9244 10.598ZM10.9244 8.64484C10.994 8.64484 11.0619 8.66546 11.1198 8.70409C11.1776 8.74272 11.2226 8.79763 11.2492 8.86187C11.2759 8.92611 11.2828 8.9968 11.2692 9.06499C11.2557 9.13319 11.2222 9.19583 11.173 9.245C11.1239 9.29417 11.0612 9.32765 10.993 9.34121C10.9248 9.35478 10.8541 9.34782 10.7899 9.32121C10.7257 9.2946 10.6708 9.24954 10.6321 9.19172C10.5935 9.13391 10.5729 9.06594 10.5729 8.99641C10.573 8.9032 10.6101 8.81384 10.676 8.74793C10.7419 8.68202 10.8312 8.64495 10.9244 8.64484ZM7.42186 10.598C7.73862 10.598 8.04827 10.504 8.31164 10.3281C8.57502 10.1521 8.78029 9.90195 8.90151 9.6093C9.02273 9.31665 9.05445 8.99463 8.99265 8.68396C8.93086 8.37328 8.77832 8.08791 8.55434 7.86393C8.33036 7.63995 8.04498 7.48741 7.73431 7.42562C7.42364 7.36382 7.10162 7.39554 6.80897 7.51676C6.51632 7.63797 6.26619 7.84325 6.09021 8.10663C5.91423 8.37 5.8203 8.67965 5.8203 8.99641C5.82078 9.42102 5.98966 9.82811 6.28991 10.1284C6.59016 10.4286 6.99725 10.5975 7.42186 10.598ZM7.42186 8.64484C7.4914 8.64484 7.55937 8.66546 7.61718 8.70409C7.67499 8.74272 7.72006 8.79763 7.74666 8.86187C7.77327 8.92611 7.78024 8.9968 7.76667 9.06499C7.75311 9.13319 7.71962 9.19583 7.67046 9.245C7.62129 9.29417 7.55865 9.32765 7.49045 9.34121C7.42225 9.35478 7.35157 9.34782 7.28733 9.32121C7.22309 9.2946 7.16818 9.24954 7.12955 9.19172C7.09092 9.13391 7.0703 9.06594 7.0703 8.99641C7.0704 8.9032 7.10748 8.81384 7.17338 8.74793C7.23929 8.68202 7.32865 8.64495 7.42186 8.64484ZM10.9246 7.06086C11.2414 7.06086 11.551 6.96693 11.8144 6.79095C12.0778 6.61497 12.283 6.36484 12.4042 6.07219C12.5255 5.77954 12.5572 5.45752 12.4954 5.14685C12.4336 4.83617 12.2811 4.5508 12.0571 4.32682C11.8331 4.10284 11.5477 3.9503 11.237 3.88851C10.9264 3.82671 10.6044 3.85843 10.3117 3.97965C10.0191 4.10086 9.76893 4.30614 9.59295 4.56952C9.41696 4.83289 9.32303 5.14254 9.32303 5.4593C9.32351 5.88388 9.49238 6.29095 9.79259 6.59119C10.0928 6.89144 10.4999 7.06034 10.9244 7.06086H10.9246ZM10.9246 5.10773C10.9941 5.10773 11.0621 5.12835 11.1199 5.16698C11.1777 5.20561 11.2228 5.26052 11.2494 5.32476C11.276 5.389 11.283 5.45969 11.2694 5.52788C11.2558 5.59608 11.2224 5.65872 11.1732 5.70789C11.124 5.75706 11.0614 5.79054 10.9932 5.8041C10.925 5.81767 10.8543 5.81071 10.7901 5.7841C10.7258 5.75749 10.6709 5.71243 10.6323 5.65461C10.5937 5.5968 10.573 5.52883 10.573 5.4593C10.5731 5.3661 10.6101 5.27672 10.676 5.21081C10.7419 5.1449 10.8312 5.10785 10.9244 5.10781L10.9246 5.10773ZM7.42186 7.06086C7.73862 7.06086 8.04827 6.96693 8.31164 6.79095C8.57502 6.61497 8.78029 6.36484 8.90151 6.07219C9.02273 5.77954 9.05445 5.45752 8.99265 5.14685C8.93086 4.83617 8.77832 4.5508 8.55434 4.32682C8.33036 4.10284 8.04498 3.9503 7.73431 3.88851C7.42364 3.82671 7.10162 3.85843 6.80897 3.97965C6.51632 4.10086 6.26619 4.30614 6.09021 4.56952C5.91423 4.83289 5.8203 5.14254 5.8203 5.4593C5.82078 5.88391 5.98966 6.291 6.28991 6.59125C6.59016 6.8915 6.99725 7.06038 7.42186 7.06086ZM7.42186 5.10773C7.4914 5.10773 7.55937 5.12835 7.61718 5.16698C7.67499 5.20561 7.72006 5.26052 7.74666 5.32476C7.77327 5.389 7.78024 5.45969 7.76667 5.52788C7.75311 5.59608 7.71962 5.65872 7.67046 5.70789C7.62129 5.75706 7.55865 5.79054 7.49045 5.8041C7.42225 5.81767 7.35157 5.81071 7.28733 5.7841C7.22309 5.75749 7.16818 5.71243 7.12955 5.65461C7.09092 5.5968 7.0703 5.52883 7.0703 5.4593C7.07032 5.36607 7.10737 5.27667 7.1733 5.21075C7.23923 5.14484 7.32864 5.10773 7.42186 5.10773ZM35.8762 0H4.12374C3.56927 0.00064102 3.03769 0.221193 2.64563 0.613271C2.25356 1.00535 2.03303 1.53693 2.03241 2.09141V37.9086C2.03303 38.4631 2.25356 38.9946 2.64563 39.3867C3.03769 39.7788 3.56927 39.9994 4.12374 40H35.8762C36.4307 39.9994 36.9623 39.7788 37.3544 39.3867C37.7464 38.9946 37.9669 38.4631 37.9676 37.9086V2.09141C37.9669 1.53693 37.7464 1.00535 37.3544 0.613271C36.9623 0.221193 36.4307 0.00064102 35.8762 0ZM22.9062 1.25H31.8197V2.08758C31.8195 2.20522 31.7727 2.31799 31.6895 2.40117C31.6063 2.48434 31.4936 2.53113 31.3759 2.53125H23.3501C23.2324 2.53113 23.1196 2.48434 23.0365 2.40117C22.9533 2.31799 22.9065 2.20522 22.9063 2.08758L22.9062 1.25ZM3.28241 37.9086V2.09141C3.28264 1.86833 3.37135 1.65446 3.52908 1.49672C3.6868 1.33898 3.90067 1.25025 4.12374 1.25H16.9358C16.8187 1.51505 16.7583 1.80164 16.7584 2.09141V37.9086C16.7583 38.1984 16.8187 38.485 16.9358 38.75H4.12374C3.90067 38.7498 3.6868 38.661 3.52908 38.5033C3.37135 38.3455 3.28264 38.1317 3.28241 37.9086ZM36.7176 37.9086C36.7173 38.1317 36.6286 38.3455 36.4709 38.5033C36.3132 38.661 36.0993 38.7498 35.8762 38.75H18.8498C18.6267 38.7498 18.4128 38.661 18.2551 38.5033C18.0974 38.3455 18.0087 38.1317 18.0084 37.9086V2.09141C18.0087 1.86833 18.0974 1.65446 18.2551 1.49672C18.4128 1.33898 18.6267 1.25025 18.8498 1.25H21.6562V2.08758C21.6567 2.53666 21.8353 2.96722 22.1528 3.28476C22.4704 3.6023 22.901 3.78086 23.3501 3.78125H31.3759C31.825 3.78084 32.2556 3.60227 32.5731 3.28473C32.8907 2.9672 33.0692 2.53665 33.0697 2.08758V1.25H35.8762C36.0993 1.25025 36.3132 1.33898 36.4709 1.49672C36.6286 1.65446 36.7173 1.86833 36.7176 2.09141V37.9086ZM27.503 33.543C27.0827 33.543 26.6719 33.6677 26.3224 33.9012C25.973 34.1347 25.7006 34.4665 25.5398 34.8548C25.379 35.2431 25.3369 35.6704 25.4189 36.0826C25.5009 36.4948 25.7032 36.8735 26.0004 37.1706C26.2976 37.4678 26.6763 37.6702 27.0885 37.7522C27.5007 37.8342 27.9279 37.7921 28.3162 37.6313C28.7045 37.4705 29.0364 37.1981 29.2699 36.8486C29.5034 36.4992 29.628 36.0883 29.628 35.668C29.6274 35.1047 29.4033 34.5645 29.0049 34.1662C28.6066 33.7678 28.0664 33.5437 27.503 33.543ZM27.503 36.543C27.33 36.543 27.1608 36.4917 27.0169 36.3956C26.873 36.2994 26.7609 36.1628 26.6946 36.0029C26.6284 35.843 26.6111 35.6671 26.6448 35.4973C26.6786 35.3276 26.7619 35.1717 26.8843 35.0493C27.0067 34.927 27.1626 34.8436 27.3323 34.8099C27.5021 34.7761 27.678 34.7934 27.8379 34.8597C27.9978 34.9259 28.1344 35.038 28.2306 35.1819C28.3267 35.3258 28.378 35.495 28.378 35.668C28.3777 35.9 28.2855 36.1224 28.1214 36.2864C27.9574 36.4504 27.735 36.5427 27.503 36.543V36.543Z" fill="#2D55A5"/>
</svg>
