<svg width="32" height="32" viewBox="0 0 32 32" fill="none" xmlns="http://www.w3.org/2000/svg">
<g clip-path="url(#clip0_1_780)">
<path d="M27.2233 3.74097H1.5699C0.704216 3.74097 -3.43323e-05 4.44522 -3.43323e-05 5.3109V22.4132C-3.43323e-05 23.2789 0.704216 23.9832 1.5699 23.9832H10.6223L10.2132 27.2567H9.58659C9.3099 27.2567 9.08553 27.481 9.08553 27.7577C9.08553 28.0344 9.30984 28.2588 9.58659 28.2588H12.2588C12.5355 28.2588 12.7599 28.0345 12.7599 27.7577C12.7599 27.481 12.5356 27.2567 12.2588 27.2567H11.2231L11.6323 23.9832H12.2588C12.5355 23.9832 12.7599 23.7588 12.7599 23.4821C12.7599 23.2054 12.5356 22.981 12.2588 22.981H1.5699C1.25678 22.981 1.00203 22.7263 1.00203 22.4132V20.7764H12.2588C12.5355 20.7764 12.7599 20.5521 12.7599 20.2753C12.7599 19.9986 12.5356 19.7743 12.2588 19.7743H1.00203V5.3109C1.00203 4.99778 1.25678 4.74303 1.5699 4.74303H27.2233C27.5365 4.74303 27.7912 4.99778 27.7912 5.3109V15.9998C27.7912 16.2765 28.0155 16.5009 28.2923 16.5009C28.569 16.5009 28.7933 16.2766 28.7933 15.9998V5.3109C28.7933 4.44522 28.089 3.74097 27.2233 3.74097Z" fill="#2D55A5"/>
<path d="M22.9475 13.3608H15.4653C14.5996 13.3608 13.8953 14.0651 13.8953 14.9308V26.6886C13.8953 27.5543 14.5996 28.2585 15.4653 28.2585H22.9475C23.8132 28.2585 24.5174 27.5543 24.5174 26.6886V14.9308C24.5174 14.0651 23.8132 13.3608 22.9475 13.3608ZM23.5154 26.6886C23.5154 27.0017 23.2606 27.2565 22.9475 27.2565H15.4653C15.1521 27.2565 14.8974 27.0017 14.8974 26.6886V26.1207H23.5153V26.6886H23.5154ZM23.5154 25.1187H14.8974V16.5007H23.5153V25.1187H23.5154ZM23.5154 15.4986H14.8974V14.9307C14.8974 14.6176 15.1521 14.3628 15.4653 14.3628H22.9475C23.2606 14.3628 23.5154 14.6176 23.5154 14.9307V15.4986Z" fill="#2D55A5"/>
<path d="M30.4298 17.6367H27.2231C26.3574 17.6367 25.6531 18.341 25.6531 19.2067V26.6889C25.6531 27.5546 26.3574 28.2588 27.2231 28.2588H30.4298C31.2954 28.2588 31.9997 27.5546 31.9997 26.6889V19.2067C31.9997 18.341 31.2954 17.6367 30.4298 17.6367ZM30.9976 26.6889C30.9976 27.002 30.7429 27.2568 30.4298 27.2568H27.2231C26.9099 27.2568 26.6552 27.002 26.6552 26.6889V26.121H30.9976V26.6889H30.9976ZM30.9976 25.119H26.6553V20.7766H30.9976V25.119ZM30.9976 19.7745H26.6553V19.2067C26.6553 18.8935 26.91 18.6388 27.2231 18.6388H30.4298C30.7429 18.6388 30.9977 18.8935 30.9977 19.2067L30.9976 19.7745Z" fill="#2D55A5"/>
</g>
<defs>
<clipPath id="clip0_1_780">
<rect width="32" height="32" fill="white"/>
</clipPath>
</defs>
</svg>
