<svg width="32" height="32" viewBox="0 0 32 32" fill="none" xmlns="http://www.w3.org/2000/svg">
<path d="M16 18.5C17.3807 18.5 18.5 17.3807 18.5 16C18.5 14.6193 17.3807 13.5 16 13.5C14.6193 13.5 13.5 14.6193 13.5 16C13.5 17.3807 14.6193 18.5 16 18.5Z" fill="#2D55A5"/>
<path d="M28.54 10.105C28.53 10.025 28.495 9.96 28.45 9.895C28.715 9.58 28.775 9.125 28.56 8.75C28.345 8.375 27.92 8.195 27.52 8.27C27.495 8.21 27.455 8.155 27.4 8.105C26.14 6.95 23.98 6.505 21.31 6.815C19.99 3.755 18.07 2 16 2C13.93 2 12.01 3.75 10.695 6.815C7.38499 6.425 4.90999 7.21 3.87499 9C2.83999 10.785 3.39499 13.325 5.38999 16.005C3.79499 18.155 3.09999 20.235 3.45499 21.895C3.46499 21.975 3.49999 22.04 3.54499 22.105C3.27999 22.42 3.21999 22.875 3.43499 23.25C3.64999 23.625 4.07499 23.805 4.47499 23.73C4.49999 23.79 4.53999 23.845 4.59499 23.895C5.59499 24.81 7.15999 25.29 9.09999 25.29C9.60499 25.29 10.135 25.25 10.685 25.185C12.01 28.25 13.93 30 16 30C18.07 30 19.99 28.25 21.305 25.18C21.855 25.245 22.39 25.285 22.895 25.285C25.405 25.285 27.265 24.49 28.125 23C29.16 21.215 28.605 18.675 26.61 15.995C28.205 13.845 28.895 11.765 28.54 10.105ZM26.725 8.845C26.74 8.86 26.755 8.86 26.77 8.875C26.655 9.15 26.665 9.475 26.825 9.755C26.985 10.03 27.255 10.2 27.55 10.24C27.55 10.26 27.55 10.28 27.555 10.3C27.85 11.625 27.28 13.35 25.955 15.2C25.05 14.135 23.97 13.1 22.72 12.12C22.5 10.56 22.145 9.11 21.67 7.79C23.935 7.56 25.715 7.92 26.725 8.845ZM20.665 24.08C19.59 23.9 18.455 23.605 17.315 23.2C18.045 22.86 18.78 22.485 19.5 22.065C20.205 21.66 20.9 21.215 21.575 20.74C21.35 21.935 21.045 23.05 20.665 24.08ZM11.335 24.08C10.955 23.055 10.645 21.94 10.425 20.745C10.815 21.02 11.215 21.285 11.63 21.54C11.67 21.565 11.71 21.575 11.755 21.585C11.74 21.945 11.915 22.3 12.25 22.495C12.585 22.69 12.985 22.66 13.29 22.465C13.32 22.495 13.35 22.525 13.39 22.55C13.82 22.78 14.255 22.995 14.685 23.195C13.545 23.605 12.41 23.9 11.335 24.08ZM11.335 7.92C12.41 8.1 13.54 8.395 14.68 8.8C14.25 9 13.815 9.215 13.385 9.445C13.345 9.465 13.315 9.5 13.285 9.53C12.98 9.335 12.58 9.31 12.245 9.5C11.91 9.695 11.735 10.05 11.75 10.41C11.71 10.42 11.665 10.43 11.625 10.455C11.21 10.71 10.81 10.98 10.42 11.25C10.65 10.06 10.955 8.945 11.335 7.92ZM13.86 21.67C13.825 21.65 13.785 21.645 13.745 21.635C13.745 21.29 13.57 20.95 13.25 20.765C12.925 20.58 12.545 20.595 12.245 20.775C12.215 20.745 12.195 20.715 12.16 20.695C11.475 20.27 10.825 19.82 10.215 19.35C10.075 18.25 9.99999 17.13 9.99999 16C9.99999 14.87 10.075 13.75 10.21 12.655C10.825 12.19 11.475 11.735 12.155 11.31C12.19 11.29 12.215 11.255 12.24 11.23C12.54 11.405 12.92 11.425 13.245 11.24C13.565 11.055 13.74 10.72 13.74 10.38C13.78 10.37 13.82 10.355 13.855 10.335C14.57 9.95 15.29 9.615 15.995 9.32C16.995 9.74 18 10.235 18.995 10.81C19.95 11.36 20.89 11.985 21.78 12.66C21.88 13.43 21.945 14.225 21.975 15.025C21.975 15.065 21.99 15.105 22.005 15.145C21.705 15.305 21.5 15.63 21.5 16C21.5 16.375 21.705 16.695 22.01 16.865C22 16.905 21.985 16.94 21.98 16.985C21.955 17.785 21.885 18.575 21.785 19.35C20.89 20.025 19.955 20.65 19 21.2C18.01 21.77 17 22.27 16 22.69C15.295 22.39 14.575 22.05 13.86 21.67ZM9.10999 18.465C8.17499 17.67 7.36499 16.845 6.66499 16C7.35999 15.155 8.17499 14.33 9.10999 13.535C9.03999 14.35 8.99999 15.175 8.99999 16C8.99999 16.825 9.03999 17.65 9.10999 18.465ZM20.665 7.92C21.045 8.945 21.355 10.06 21.575 11.26C20.9 10.785 20.205 10.34 19.5 9.935C18.775 9.52 18.045 9.14 17.315 8.8C18.455 8.395 19.585 8.1 20.665 7.92ZM22.955 16.885C23.275 16.72 23.5 16.385 23.5 16C23.5 15.615 23.28 15.28 22.955 15.115C22.965 15.07 22.98 15.03 22.975 14.985C22.96 14.5 22.93 14.015 22.885 13.54C23.815 14.335 24.63 15.16 25.325 16C24.63 16.845 23.815 17.67 22.885 18.46C22.925 17.98 22.96 17.5 22.975 17.015C22.98 16.97 22.97 16.93 22.955 16.885ZM16 3C17.605 3 19.145 4.44 20.285 6.975C18.895 7.225 17.46 7.645 16 8.235C14.54 7.64 13.105 7.225 11.715 6.975C12.855 4.44 14.395 3 16 3ZM4.74499 9.5C5.54499 8.115 7.55999 7.5 10.33 7.775C9.85499 9.095 9.49999 10.545 9.27999 12.11C8.02499 13.09 6.94499 14.125 6.03999 15.195C4.41499 12.94 3.93999 10.885 4.74499 9.5ZM5.27499 23.155C5.25999 23.14 5.24499 23.14 5.22999 23.125C5.34499 22.85 5.33499 22.525 5.17499 22.245C5.01499 21.97 4.74499 21.8 4.44999 21.76C4.44999 21.74 4.44999 21.72 4.44499 21.7C4.14999 20.375 4.71999 18.65 6.04499 16.8C6.94999 17.865 8.02999 18.9 9.27999 19.88C9.49999 21.44 9.85499 22.89 10.33 24.21C8.06499 24.445 6.28499 24.08 5.27499 23.155ZM16 29C14.395 29 12.855 27.56 11.715 25.025C13.105 24.775 14.54 24.355 16 23.765C17.46 24.36 18.895 24.775 20.285 25.025C19.145 27.56 17.605 29 16 29ZM27.255 22.5C26.455 23.885 24.44 24.5 21.67 24.225C22.145 22.905 22.5 21.455 22.72 19.89C23.97 18.91 25.055 17.875 25.96 16.805C27.585 19.06 28.06 21.115 27.255 22.5Z" fill="#2D55A5"/>
</svg>
