<svg width="40" height="40" viewBox="0 0 40 40" fill="none" xmlns="http://www.w3.org/2000/svg">
<g clip-path="url(#clip0_1_966)">
<path d="M29.0594 32.6017H21.5268L20.7387 31.8136L22.7164 29.8359C22.9337 29.6185 23.0244 29.3095 22.9589 29.0092C22.8934 28.7089 22.6824 28.4657 22.3945 28.3586L12.0712 24.5166C11.7088 24.3817 11.3136 24.4677 11.0401 24.7414C10.7666 25.0149 10.6805 25.41 10.8154 25.7724L13.357 32.6017H3.00687C1.99593 32.6017 1.17358 31.7794 1.17358 30.7685V18.1285C1.17358 17.8049 0.911318 17.5426 0.587646 17.5426C0.263975 17.5426 0.00170898 17.8049 0.00170898 18.1285V30.7685C0.00170898 32.4256 1.34983 33.7737 3.00687 33.7737H13.7932L14.6573 36.0956C14.7644 36.3838 15.0077 36.5948 15.308 36.6603C15.6083 36.7258 15.9175 36.635 16.1346 36.4178L18.1123 34.4401L20.1256 36.4534C20.316 36.6437 20.566 36.7387 20.816 36.7387C21.0661 36.7387 21.3162 36.6435 21.5066 36.4533L22.7519 35.208C23.1326 34.8272 23.1325 34.2077 22.7519 33.827C22.7519 33.827 22.7519 33.827 22.7518 33.827L22.6987 33.7739H29.0593C29.383 33.7739 29.6452 33.5116 29.6452 33.1879C29.6452 32.8642 29.383 32.6017 29.0594 32.6017ZM20.8161 35.4863L18.5267 33.1969C18.4123 33.0825 18.2623 33.0253 18.1123 33.0253C17.9624 33.0253 17.8124 33.0825 17.698 33.1969L15.607 35.2878L12.0625 25.7638L21.5865 29.3084L19.4955 31.3993C19.2667 31.6282 19.2667 31.9992 19.4956 32.228L21.785 34.5173L20.8161 35.4863Z" fill="#2D55A5"/>
<path d="M36.9966 3.25916H34.948C34.6243 3.25916 34.362 3.52142 34.362 3.84509C34.362 4.16876 34.6243 4.43103 34.948 4.43103H36.9966C38.0074 4.43103 38.8298 5.25337 38.8298 6.26431V9.93548H1.17358V6.26431C1.17358 5.25345 1.99593 4.43103 3.00687 4.43103H32.238C32.5617 4.43103 32.824 4.16876 32.824 3.84509C32.824 3.52142 32.5617 3.25916 32.238 3.25916H3.00687C1.34983 3.25916 0.00170898 4.60728 0.00170898 6.26431V15.4918C0.00170898 15.8155 0.263975 16.0777 0.587646 16.0777C0.911318 16.0777 1.17358 15.8155 1.17358 15.4918V11.1074H38.8298V30.7685C38.8298 31.7794 38.0075 32.6018 36.9966 32.6018H31.8669C31.5433 32.6018 31.281 32.8641 31.281 33.1877C31.281 33.5114 31.5433 33.7737 31.8669 33.7737H36.9966C38.6536 33.7737 40.0017 32.4256 40.0017 30.7685V6.26431C40.0017 4.60728 38.6536 3.25916 36.9966 3.25916Z" fill="#2D55A5"/>
<path d="M3.8822 7.18297C3.8822 7.78242 4.36814 8.26836 4.96751 8.26836C5.56689 8.26836 6.05283 7.78242 6.05283 7.18297C6.05283 6.58352 5.56689 6.09766 4.96751 6.09766C4.36814 6.09766 3.8822 6.58352 3.8822 7.18297Z" fill="#2D55A5"/>
<path d="M7.22113 7.18297C7.22113 7.78242 7.70707 8.26836 8.30644 8.26836C8.90582 8.26836 9.39176 7.78242 9.39176 7.18297C9.39176 6.58352 8.90582 6.09766 8.30644 6.09766C7.70707 6.09766 7.22113 6.58352 7.22113 7.18297Z" fill="#2D55A5"/>
<path d="M10.5601 7.18297C10.5601 7.78242 11.0461 8.26836 11.6454 8.26836C12.2448 8.26836 12.7307 7.78242 12.7307 7.18297C12.7307 6.58352 12.2448 6.09766 11.6454 6.09766C11.0461 6.09766 10.5601 6.58352 10.5601 7.18297Z" fill="#2D55A5"/>
<path d="M7.17102 24.0074H7.17438C7.42203 24.0074 7.64313 23.8516 7.72625 23.6182L9.17766 19.5454L10.5645 23.6108C10.6452 23.8471 10.8669 24.0064 11.1166 24.0075H11.1191C11.3679 24.0075 11.5896 23.8503 11.672 23.6153L13.6395 18.0023C13.7466 17.697 13.5858 17.3627 13.2803 17.2555C12.9752 17.1485 12.6406 17.3093 12.5335 17.6148L11.1265 21.6287L9.7443 17.5768C9.58758 17.0619 8.80118 17.0571 8.63782 17.5693L7.18438 21.6478L5.80188 17.6246C5.69672 17.3185 5.36344 17.1555 5.05735 17.2609C4.75133 17.3661 4.58844 17.6995 4.69368 18.0055L6.62024 23.6119C6.7011 23.8473 6.92203 24.0059 7.17102 24.0074Z" fill="#2D55A5"/>
<path d="M18.0125 24.0077H18.0159C18.2635 24.0077 18.4846 23.8519 18.5677 23.6185L20.0192 19.5457L21.406 23.6111C21.4867 23.8474 21.7084 24.0067 21.9581 24.0078H21.9606C22.2094 24.0078 22.4311 23.8506 22.5135 23.6156L24.481 18.0026C24.5881 17.6973 24.4273 17.3629 24.1218 17.2558C23.8167 17.1488 23.4821 17.3096 23.375 17.615L21.968 21.629L20.5858 17.5771C20.429 17.0621 19.6427 17.0574 19.4793 17.5696L18.0259 21.6481L16.6434 17.625C16.5382 17.3189 16.2048 17.1558 15.8988 17.2613C15.5928 17.3664 15.4299 17.6998 15.5352 18.0058L17.4617 23.6122C17.5427 23.8476 17.7636 24.0062 18.0125 24.0077Z" fill="#2D55A5"/>
<path d="M28.6786 24.0074H28.6819C28.9296 24.0074 29.1507 23.8516 29.2338 23.6182L30.6852 19.5454L32.0721 23.6108C32.1527 23.8471 32.3744 24.0064 32.6242 24.0075H32.6266C32.8754 24.0075 33.0971 23.8503 33.1796 23.6153L35.147 18.0023C35.254 17.697 35.0932 17.3627 34.7878 17.2555C34.4825 17.1485 34.1481 17.3093 34.041 17.6148L32.634 21.6287L31.2518 17.5768C31.0952 17.0619 30.3086 17.0571 30.1453 17.5693L28.6919 21.6478L27.3093 17.6247C27.2042 17.3187 26.8713 17.1557 26.5648 17.261C26.2588 17.3662 26.0959 17.6995 26.2011 18.0055L28.1278 23.612C28.2087 23.8473 28.4296 24.0059 28.6786 24.0074Z" fill="#2D55A5"/>
</g>
<defs>
<clipPath id="clip0_1_966">
<rect width="40" height="40" fill="white"/>
</clipPath>
</defs>
</svg>
