<svg width="33" height="40" viewBox="0 0 33 40" fill="none" xmlns="http://www.w3.org/2000/svg">
<path fill-rule="evenodd" clip-rule="evenodd" d="M23.1205 0.903181C26.1578 0.469286 28.8752 2.82607 28.8752 5.89418V8.41777C31.0558 9.57047 32.5418 11.8616 32.5418 14.4998V32.8331C32.5418 36.6301 29.4638 39.7081 25.6668 39.7081H7.3335C3.53654 39.7081 0.458496 36.6301 0.458496 32.8331V7.16647C0.458496 7.14943 0.458806 7.13246 0.459421 7.11556C0.458806 7.08918 0.458496 7.06272 0.458496 7.03618C0.458496 5.37472 1.68019 3.96608 3.32497 3.73111L23.1205 0.903181ZM3.2085 10.3748V32.8331C3.2085 35.1113 5.05532 36.9581 7.3335 36.9581H25.6668C27.945 36.9581 29.7918 35.1113 29.7918 32.8331V14.4998C29.7918 12.2216 27.945 10.3748 25.6668 10.3748H3.2085ZM3.79712 7.62481H26.1252V5.89418C26.1252 4.49958 24.89 3.42832 23.5094 3.62554L3.71387 6.45347C3.42389 6.4949 3.2085 6.74325 3.2085 7.03618C3.2085 7.36127 3.47203 7.62481 3.79712 7.62481ZM7.79183 19.9998C7.79183 19.2404 8.40744 18.6248 9.16683 18.6248H23.8335C24.5929 18.6248 25.2085 19.2404 25.2085 19.9998C25.2085 20.7592 24.5929 21.3748 23.8335 21.3748H9.16683C8.40744 21.3748 7.79183 20.7592 7.79183 19.9998ZM7.79183 26.4165C7.79183 25.6571 8.40744 25.0415 9.16683 25.0415H19.2502C20.0096 25.0415 20.6252 25.6571 20.6252 26.4165C20.6252 27.1759 20.0096 27.7915 19.2502 27.7915H9.16683C8.40744 27.7915 7.79183 27.1759 7.79183 26.4165Z" fill="#2D55A5"/>
</svg>
