<svg width="40" height="40" viewBox="0 0 40 40" fill="none" xmlns="http://www.w3.org/2000/svg">
<g clip-path="url(#clip0_4_848)">
<path d="M0.323566 25.5007C0.0271667 25.9665 -0.0701072 26.52 0.0504361 27.0586L2.40637 37.597C2.62152 38.5594 3.48134 39.2159 4.43195 39.2159C4.58034 39.2159 4.73102 39.1999 4.88246 39.1663L6.11574 38.8928C6.45296 39.5997 7.1705 40.0586 7.95632 40.0582C8.10242 40.0582 8.25119 40.0426 8.39996 40.0094L10.5503 39.5329C11.0847 39.4147 11.5398 39.0958 11.8328 38.635C12.1242 38.1764 12.22 37.6317 12.1013 37.1015L9.03968 23.4087C8.79516 22.3124 7.7015 21.6166 6.60173 21.863L5.94714 22.0084C5.83613 20.6424 5.77662 19.2107 5.77662 18.473C5.77662 10.8009 12.1685 4.55899 20.0255 4.55899C27.883 4.55899 34.2748 10.8009 34.2748 18.473C34.2748 19.2264 34.2157 20.6404 34.1031 22.0194L33.3986 21.863C32.2992 21.6181 31.2051 22.3128 30.9602 23.4084L27.899 37.1018C27.7803 37.6317 27.8761 38.1764 28.1675 38.635C28.4605 39.0958 28.9156 39.4147 29.4496 39.5329L31.6 40.0094C31.7491 40.0426 31.8975 40.0582 32.044 40.0582C32.8294 40.0582 33.547 39.5993 33.8842 38.8928L35.1175 39.1663C35.2689 39.1999 35.42 39.2159 35.5683 39.2159C36.519 39.2159 37.3788 38.5594 37.5935 37.597L39.9495 27.0586C40.07 26.52 39.9731 25.9665 39.6767 25.5007C39.4326 25.1166 39.0736 24.837 38.6544 24.6802C38.9008 22.4593 39.0164 19.7825 39.0164 18.6297C39.0164 8.38967 30.4971 0.0588379 20.0255 0.0588379C9.5539 0.0588379 1.035 8.38967 1.035 18.6297C1.035 19.7852 1.1502 22.4482 1.3951 24.6642C0.954892 24.8164 0.57724 25.1017 0.323566 25.5007ZM6.8184 22.8392C6.8947 22.8224 6.97099 22.8144 7.04614 22.8144C7.52412 22.8144 7.95632 23.1436 8.06427 23.6266L11.1255 37.3197C11.1858 37.589 11.137 37.8655 10.989 38.0982C10.8394 38.3336 10.6067 38.4965 10.3336 38.5568L8.18329 39.0336C7.62368 39.158 7.06254 38.8051 6.93704 38.2462L6.9275 38.2024C6.9275 38.202 6.9275 38.2016 6.9275 38.2009C6.9275 38.2005 6.92674 38.2001 6.92674 38.1993L3.88684 24.6012C3.88684 24.6008 3.88722 24.6004 3.88684 24.6001C3.88684 24.5997 3.88646 24.5993 3.88646 24.5989L3.87616 24.5531C3.81627 24.2838 3.8651 24.0073 4.0131 23.7742C4.16226 23.5388 4.39533 23.3763 4.66808 23.3157L6.8184 22.8392ZM31.817 39.0336L29.6663 38.5568C29.3936 38.4965 29.1605 38.3336 29.0113 38.0982C28.8633 37.8655 28.8145 37.589 28.8744 37.3197L31.936 23.6262C32.044 23.1436 32.4762 22.8144 32.9542 22.8144C33.0293 22.8144 33.1056 22.8224 33.1815 22.8392L35.3326 23.3161C35.605 23.3763 35.8377 23.5388 35.9872 23.7742C36.1352 24.0073 36.184 24.2838 36.1238 24.5528L36.1135 24.5989C36.1135 24.5993 36.1135 24.5997 36.1131 24.6001V24.6008L33.0732 38.1997C33.0732 38.2001 33.0728 38.2005 33.0728 38.2009V38.2024L33.0629 38.2459C32.9374 38.8051 32.377 39.1564 31.817 39.0336ZM38.8329 26.037C38.9859 26.2778 39.0359 26.5627 38.9741 26.84L36.6181 37.3788C36.4892 37.9552 35.9132 38.3176 35.3345 38.1902L34.1581 37.9292L36.9802 25.3043L38.1581 25.5652C38.4393 25.6277 38.6792 25.7952 38.8329 26.037ZM20.0255 1.05904C29.9459 1.05904 38.0166 8.94127 38.0166 18.6297C38.0166 19.7364 37.9079 22.2796 37.6756 24.4337L37.1446 24.3163C37.143 23.9371 37.0393 23.5651 36.831 23.2371C36.538 22.7767 36.0826 22.4578 35.5489 22.3399L35.0885 22.2376C35.2102 20.7888 35.275 19.2721 35.275 18.473C35.275 10.2493 28.4342 3.55879 20.0255 3.55879C11.6172 3.55879 4.77642 10.2493 4.77642 18.473C4.77642 19.2752 4.8405 20.7831 4.96181 22.2266L4.45179 22.3395C3.91774 22.4578 3.46227 22.7767 3.1693 23.2371C2.96102 23.5651 2.85726 23.9371 2.85574 24.3163L2.37433 24.4231C2.15231 22.3517 2.03482 19.781 2.03482 18.6297C2.03482 8.94127 10.1055 1.05904 20.0255 1.05904ZM1.16737 26.037C1.3211 25.7952 1.56066 25.6277 1.84218 25.5652L3.01977 25.3043L5.84185 37.9292L4.66579 38.1902C4.08902 38.3176 3.5111 37.9552 3.38216 37.3788L1.02623 26.84C0.964047 26.5627 1.0144 26.2778 1.16737 26.037Z" fill="white"/>
</g>
<defs>
<clipPath id="clip0_4_848">
<rect width="40" height="40" fill="white"/>
</clipPath>
</defs>
</svg>
