<svg xmlns="http://www.w3.org/2000/svg" width="30" height="30" viewBox="0 0 30 30" fill="none">
                    <g clip-path="url(#clip0_1_1462)">
                        <path d="M15 0.600098C6.88918 0.600098 0.599976 6.5437 0.599976 14.5681C0.599976 18.7657 2.32078 22.3945 5.12158 24.9001C5.35558 25.1089 5.49958 25.4041 5.50678 25.7209L5.58598 28.2841C5.59174 28.4727 5.64375 28.657 5.73742 28.8208C5.83108 28.9846 5.96355 29.1229 6.12318 29.2235C6.2828 29.3241 6.46469 29.3839 6.65287 29.3978C6.84104 29.4116 7.02974 29.3791 7.20237 29.3029L10.0608 28.0429C10.302 27.9349 10.5756 27.9169 10.8312 27.9853C12.1452 28.3453 13.542 28.5397 15 28.5397C23.1108 28.5397 29.4 22.5961 29.4 14.5717C29.4 6.5473 23.1108 0.600098 15 0.600098Z" fill="url(#paint0_radial_1_1462)"></path>
                        <path d="M6.35215 18.6538L10.5822 11.9434C10.7413 11.6908 10.9511 11.4739 11.1982 11.3064C11.4454 11.1389 11.7246 11.0245 12.0183 10.9704C12.3119 10.9162 12.6136 10.9236 12.9042 10.9919C13.1949 11.0603 13.4682 11.1881 13.707 11.3674L17.073 13.891C17.2232 14.0035 17.406 14.064 17.5938 14.0634C17.7815 14.0627 17.9639 14.001 18.1134 13.8874L22.6566 10.4386C23.2614 9.97782 24.0534 10.705 23.6502 11.3494L19.4166 18.0562C19.2574 18.3089 19.0476 18.5258 18.8005 18.6933C18.5533 18.8607 18.2741 18.9751 17.9804 19.0293C17.6868 19.0834 17.3851 19.0761 17.0945 19.0077C16.8038 18.9394 16.5305 18.8115 16.2918 18.6322L12.9258 16.1086C12.7755 15.9961 12.5927 15.9356 12.405 15.9363C12.2172 15.9369 12.0348 15.9987 11.8854 16.1122L7.34215 19.561C6.73735 20.0218 5.94535 19.2982 6.35215 18.6538Z" fill="white"></path>
                    </g>
                    <defs>
                        <radialGradient id="paint0_radial_1_1462" cx="0" cy="0" r="1" gradientUnits="userSpaceOnUse" gradientTransform="translate(5.42397 29.4001) scale(31.68 31.68)">
                            <stop stop-color="#0099FF"></stop>
                            <stop offset="0.6" stop-color="#A033FF"></stop>
                            <stop offset="0.9" stop-color="#FF5280"></stop>
                            <stop offset="1" stop-color="#FF7061"></stop>
                        </radialGradient>
                        <clipPath id="clip0_1_1462">
                            <rect width="28.8" height="28.8" fill="white" transform="translate(0.599976 0.600098)"></rect>
                        </clipPath>
                    </defs>
                </svg>