<svg width="44" height="44" viewBox="0 0 44 44" fill="none" xmlns="http://www.w3.org/2000/svg">
<g id="Outline / School / Book 2">
<path id="Vector" fill-rule="evenodd" clip-rule="evenodd" d="M18.2327 2.2915H25.7673C28.2745 2.29147 30.2955 2.29144 31.8849 2.50513C33.5351 2.72699 34.9245 3.20163 36.028 4.30515C37.1316 5.40866 37.6062 6.7981 37.8281 8.4483C38.0418 10.0377 38.0417 12.0587 38.0417 14.5659V29.4338C38.0417 31.941 38.0418 33.9619 37.8281 35.5514C37.6062 37.2016 37.1316 38.591 36.028 39.6945C34.9245 40.798 33.5351 41.2727 31.8849 41.4946C30.2954 41.7082 28.2745 41.7082 25.7673 41.7082H18.2328C15.7255 41.7082 13.7046 41.7082 12.1151 41.4946C10.4649 41.2727 9.0755 40.798 7.97199 39.6945C6.86848 38.591 6.39384 37.2016 6.17197 35.5514C6.10103 35.0237 6.05364 34.4485 6.02199 33.8237C5.95034 33.5975 5.93639 33.3504 5.99274 33.104C5.95831 32.0187 5.95833 30.7983 5.95835 29.4338V14.5659C5.95831 12.0587 5.95828 10.0377 6.17197 8.4483C6.39384 6.7981 6.86848 5.40866 7.97199 4.30515C9.0755 3.20163 10.4649 2.72699 12.1151 2.50513C13.7046 2.29144 15.7255 2.29147 18.2327 2.2915ZM8.7574 33.4565C8.78527 34.1051 8.82896 34.6755 8.89745 35.185C9.07832 36.5302 9.40913 37.2426 9.91653 37.75C10.4239 38.2574 11.1363 38.5882 12.4816 38.7691C13.8664 38.9553 15.7018 38.9582 18.3333 38.9582H25.6667C28.2983 38.9582 30.1337 38.9553 31.5185 38.7691C32.8637 38.5882 33.5761 38.2574 34.0835 37.75C34.4434 37.3901 34.7145 36.927 34.9062 36.2082H14.6667C13.9073 36.2082 13.2917 35.5926 13.2917 34.8332C13.2917 34.0738 13.9073 33.4582 14.6667 33.4582H35.2426C35.2766 32.668 35.287 31.7617 35.2903 30.7082H14.4793C12.6858 30.7082 12.0588 30.72 11.5783 30.8487C10.2596 31.2021 9.20826 32.1824 8.7574 33.4565ZM35.2917 27.9582H14.4793C14.4075 27.9582 14.3367 27.9582 14.267 27.9581C12.7674 27.9576 11.7441 27.9573 10.8666 28.1924C10.0819 28.4027 9.35411 28.7461 8.70835 29.1974V14.6665C8.70835 12.0349 8.71127 10.1995 8.89745 8.81473C9.07832 7.46947 9.40913 6.75709 9.91653 6.24969C10.4239 5.74229 11.1363 5.41147 12.4816 5.23061C13.8664 5.04443 15.7018 5.04151 18.3333 5.04151H25.6667C28.2983 5.04151 30.1337 5.04443 31.5185 5.23061C32.8637 5.41147 33.5761 5.74229 34.0835 6.24969C34.5909 6.75709 34.9217 7.46947 35.1026 8.81473C35.2888 10.1995 35.2917 12.0349 35.2917 14.6665V27.9582ZM13.2917 12.8332C13.2917 12.0738 13.9073 11.4582 14.6667 11.4582H29.3333C30.0927 11.4582 30.7083 12.0738 30.7083 12.8332C30.7083 13.5926 30.0927 14.2082 29.3333 14.2082H14.6667C13.9073 14.2082 13.2917 13.5926 13.2917 12.8332ZM13.2917 19.2498C13.2917 18.4904 13.9073 17.8748 14.6667 17.8748H23.8333C24.5927 17.8748 25.2083 18.4904 25.2083 19.2498C25.2083 20.0092 24.5927 20.6248 23.8333 20.6248H14.6667C13.9073 20.6248 13.2917 20.0092 13.2917 19.2498Z" fill="#2D55A5"/>
</g>
</svg>
