<svg width="56" height="56" viewBox="0 0 56 56" fill="none" xmlns="http://www.w3.org/2000/svg">
<path d="M1.60611 5.88127C1.40227 5.99943 1.09147 6.26711 0.908914 6.48159L0.586914 6.88927V24.5623V42.2353L0.908914 42.643C1.09147 42.8575 1.40227 43.1257 1.60611 43.2433C1.97067 43.4365 2.76419 43.4365 27.0329 43.4147L52.0733 43.3828L52.8775 42.9857C53.8748 42.4924 54.572 41.7845 55.0435 40.7765L55.3868 40.0581V24.5617V9.06655L55.0435 8.34807C54.572 7.34007 53.8748 6.63223 52.8775 6.13887L52.0733 5.74183L27.0329 5.70991C2.76419 5.68806 1.97067 5.68807 1.60611 5.88127ZM12.5446 24.5623V41.7207H7.39707H2.24955V24.5623V7.40391H7.39707H12.5446V24.5623ZM52.0627 7.52207C52.6311 7.68279 53.4459 8.49815 53.6071 9.06655C53.7679 9.67807 53.7679 39.4477 53.6071 40.0586C53.4464 40.627 52.6311 41.4418 52.0627 41.6031C51.7519 41.6888 46.2823 41.7213 32.9527 41.7213H14.2604V24.5629V7.40447H32.9521C46.2824 7.40391 51.7513 7.43639 52.0627 7.52207Z" fill="#2D55A5"/>
<path d="M4.82324 14.6961V19.4147H7.397H9.97076V14.6961V9.97755H7.397H4.82324V14.6961ZM8.25492 14.6961V17.6988H7.397H6.53908V14.6961V11.6934H7.397H8.25492V14.6961Z" fill="#2D55A5"/>
<path d="M6.68923 21.2269C6.15331 21.3664 5.26291 21.9029 4.91963 22.2781C4.29803 22.9859 4.02979 23.6831 4.02979 24.5623C4.02979 25.2701 4.07291 25.4415 4.38371 26.0424C4.80203 26.804 5.23099 27.2217 6.03515 27.6401C6.83931 28.0584 7.96547 28.0477 8.76963 27.6401C9.48811 27.2649 10.0996 26.6533 10.4748 25.9349C10.8825 25.1307 10.8931 24.0045 10.4748 23.2004C10.0671 22.4069 9.63819 21.9673 8.90907 21.5809C8.23371 21.2163 7.30075 21.0662 6.68923 21.2269ZM8.44819 23.1253C8.92027 23.4793 9.13475 23.9939 9.08099 24.7017C9.01659 25.7741 8.37315 26.3213 7.25763 26.2462C6.18523 26.1818 5.63811 25.5384 5.71315 24.4234C5.75627 23.7156 5.99203 23.3185 6.54979 23.029C7.03251 22.7714 8.02987 22.8252 8.44819 23.1253Z" fill="#2D55A5"/>
<path d="M4.82324 34.4283V39.1469H7.397H9.97076V34.4283V29.7097H7.397H4.82324V34.4283ZM8.25492 34.4283V37.431H7.397H6.53908V34.4283V31.4256H7.397H8.25492V34.4283Z" fill="#2D55A5"/>
<path d="M16.8345 24.5622V39.1469H33.2744C49.0709 39.1469 49.725 39.1362 50.0789 38.943C50.2827 38.8355 50.5935 38.5678 50.7761 38.3533L51.0981 37.9457V24.5622V11.1788L50.7761 10.7711C50.5935 10.5566 50.2827 10.2884 50.0789 10.1814C49.725 9.98821 49.0709 9.97757 33.2744 9.97757H16.8345V24.5622ZM49.4354 24.5622V37.431H33.9929H18.5503V24.5622V11.6934H33.9929H49.4354V24.5622Z" fill="#2D55A5"/>
<path d="M20.2661 14.2672V15.1251H21.124H21.982V14.2672V13.4093H21.124H20.2661V14.2672Z" fill="#2D55A5"/>
<path d="M46.0034 14.2672V15.1251H46.8613H47.7193V14.2672V13.4093H46.8613H46.0034V14.2672Z" fill="#2D55A5"/>
<path d="M33.1348 17.6988V18.5568H33.9927H34.8506V17.6988V16.8409H33.9927H33.1348V17.6988Z" fill="#2D55A5"/>
<path d="M33.1348 21.1306V21.9885H33.9927H34.8506V21.1306V20.2727H33.9927H33.1348V21.1306Z" fill="#2D55A5"/>
<path d="M26.2715 24.5622V25.4202H27.1294H27.9873V24.5622V23.7043H27.1294H26.2715V24.5622Z" fill="#2D55A5"/>
<path d="M29.7031 24.5622V25.4202H30.561H31.419V24.5622V23.7043H30.561H29.7031V24.5622Z" fill="#2D55A5"/>
<path d="M33.1348 24.5622V25.4202H33.9927H34.8506V24.5622V23.7043H33.9927H33.1348V24.5622Z" fill="#2D55A5"/>
<path d="M36.5664 24.5622V25.4202H37.4243H38.2822V24.5622V23.7043H37.4243H36.5664V24.5622Z" fill="#2D55A5"/>
<path d="M39.998 24.5622V25.4202H40.856H41.7139V24.5622V23.7043H40.856H39.998V24.5622Z" fill="#2D55A5"/>
<path d="M33.1348 27.9939V28.8518H33.9927H34.8506V27.9939V27.136H33.9927H33.1348V27.9939Z" fill="#2D55A5"/>
<path d="M33.1348 31.4256V32.2836H33.9927H34.8506V31.4256V30.5677H33.9927H33.1348V31.4256Z" fill="#2D55A5"/>
<path d="M20.2661 34.8573V35.7152H21.124H21.982V34.8573V33.9994H21.124H20.2661V34.8573Z" fill="#2D55A5"/>
<path d="M46.0034 34.8573V35.7152H46.8613H47.7193V34.8573V33.9994H46.8613H46.0034V34.8573Z" fill="#2D55A5"/>
<path d="M2.69989 46.1178C1.05909 46.9326 0.758927 47.1258 0.640767 47.4047C0.533807 47.6617 0.533807 47.7905 0.640767 48.0481C0.758927 48.327 1.05909 48.5202 2.69989 49.335L4.61957 50.3004H28.7914C46.2824 50.3004 53.0383 50.2685 53.2208 50.1823C53.5641 50.0322 53.7248 49.657 53.7248 49.0667V48.584H54.5828H55.4407V47.7261V46.8682H54.5828H53.7248V46.3855C53.7248 45.7958 53.5641 45.42 53.2208 45.2699C53.0383 45.1843 46.2824 45.1518 28.7914 45.1518H4.61957L2.69989 46.1178ZM10.8288 47.7261V48.584H7.93365H5.03789L4.23373 48.187C3.79413 47.9619 3.42957 47.758 3.42957 47.7261C3.42957 47.6942 3.78349 47.4903 4.21245 47.2759L4.98469 46.8788H7.91237L10.8294 46.8682V47.7261H10.8288ZM14.2605 47.7261V48.584H13.4026H12.5447V47.7261V46.8682H13.4026H14.2605V47.7261ZM17.6922 47.7261V48.584H16.8343H15.9764V47.7261V46.8682H16.8343H17.6922V47.7261ZM52.009 47.7261V48.584H35.7085H19.408V47.7261V46.8682H35.7085H52.009V47.7261Z" fill="#2D55A5"/>
</svg>
