<svg width="40" height="40" viewBox="0 0 40 40" fill="none" xmlns="http://www.w3.org/2000/svg">
<g clip-path="url(#clip0_1_1078)">
<path fill-rule="evenodd" clip-rule="evenodd" d="M33.4369 31.799L38.2494 36.6115C38.639 37.0011 38.639 37.6323 38.2494 38.0219L38.1911 38.0802C37.8019 38.4694 37.1703 38.4694 36.7811 38.0802L32.8019 34.1011C32.5582 33.8569 32.1619 33.8569 31.9182 34.1011C31.674 34.3448 31.674 34.7411 31.9182 34.9848C31.9182 34.9848 33.3478 36.4148 35.8974 38.964C36.7749 39.8415 38.1974 39.8415 39.0753 38.964L39.1332 38.9057C40.0111 38.0282 40.0111 36.6052 39.1332 35.7277L34.1557 30.7502C34.9653 29.3748 35.4294 27.7732 35.4294 26.064C35.4294 20.9552 31.2819 16.8077 26.1736 16.8077C21.0653 16.8077 16.9178 20.9552 16.9178 26.064C16.9178 31.1723 21.0653 35.3198 26.1736 35.3198C29.1165 35.3198 31.7407 33.9436 33.4369 31.799ZM26.1736 18.0577C30.5924 18.0577 34.1794 21.6452 34.1794 26.064C34.1794 30.4823 30.5924 34.0698 26.1736 34.0698C21.7549 34.0698 18.1678 30.4823 18.1678 26.064C18.1678 21.6452 21.7549 18.0577 26.1736 18.0577ZM5.59402 20.834C5.59402 20.4473 5.44027 20.0765 5.16652 19.8027C4.89319 19.5294 4.52236 19.3757 4.13569 19.3757C3.41694 19.3757 2.38486 19.3757 1.66652 19.3757C1.27986 19.3757 0.909024 19.5294 0.635274 19.8027C0.361941 20.0765 0.208191 20.4473 0.208191 20.834V32.3148C0.208191 32.6602 0.488191 32.9398 0.833191 32.9398H4.96902C5.31402 32.9398 5.59402 32.6602 5.59402 32.3148V20.834ZM12.7507 18.7561C12.7507 17.9507 12.0978 17.2977 11.2924 17.2977C10.574 17.2977 9.54194 17.2977 8.82319 17.2977C8.01778 17.2977 7.36486 17.9507 7.36486 18.7561V32.3148C7.36486 32.6602 7.64486 32.9398 7.98986 32.9398H12.1257C12.4707 32.9398 12.7507 32.6602 12.7507 32.3148V18.7561ZM17.6157 31.6898H15.7719V15.8536C15.7719 15.7982 15.7936 15.7452 15.8328 15.7061C15.8719 15.6673 15.9249 15.6452 15.9803 15.6452H18.449C18.5044 15.6452 18.5574 15.6673 18.5965 15.7061C18.6357 15.7452 18.6574 15.7982 18.6574 15.8536V18.184C18.6574 18.529 18.9374 18.809 19.2824 18.809C19.6274 18.809 19.9074 18.529 19.9074 18.184V15.8536C19.9074 15.4669 19.754 15.0957 19.4803 14.8223C19.2069 14.549 18.8361 14.3952 18.449 14.3952C17.7307 14.3952 16.6986 14.3952 15.9803 14.3952C15.5936 14.3952 15.2224 14.549 14.949 14.8223C14.6757 15.0957 14.5219 15.4669 14.5219 15.8536V32.3148C14.5219 32.6602 14.8015 32.9398 15.1469 32.9398H17.6157C17.9607 32.9398 18.2407 32.6598 18.2407 32.3148C18.2407 31.9702 17.9607 31.6898 17.6157 31.6898ZM22.7174 22.4661C23.6144 21.604 24.8324 21.0736 26.1736 21.0736C28.9278 21.0736 31.1636 23.3098 31.1636 26.064C31.1636 28.8182 28.9278 31.054 26.1736 31.054C23.4194 31.054 21.1836 28.8182 21.1836 26.064C21.1836 25.3907 21.3169 24.7486 21.559 24.1627C21.6907 23.8436 21.5386 23.4782 21.2199 23.3465C20.9011 23.2144 20.5353 23.3665 20.4036 23.6852C20.1007 24.4186 19.9336 25.2219 19.9336 26.064C19.9336 29.5082 22.7294 32.304 26.1736 32.304C29.6178 32.304 32.4136 29.5082 32.4136 26.064C32.4136 22.6198 29.6178 19.8236 26.1736 19.8236C24.4965 19.8236 22.9728 20.4865 21.8511 21.5648C21.6024 21.8036 21.5944 22.1998 21.8336 22.4486C22.0728 22.6973 22.4686 22.7052 22.7174 22.4661ZM11.5007 18.7561V31.6898H8.61486V18.7561C8.61486 18.6411 8.70819 18.5477 8.82319 18.5477H11.2924C11.4074 18.5477 11.5007 18.6411 11.5007 18.7561ZM4.34402 20.834V31.6898H1.45819V20.834C1.45819 20.779 1.48027 20.7261 1.51902 20.6869C1.55819 20.6477 1.61111 20.6257 1.66652 20.6257H4.13569C4.19069 20.6257 4.24361 20.6477 4.28277 20.6869C4.32194 20.7261 4.34402 20.779 4.34402 20.834ZM22.9286 16.1694V10.1307C22.9286 10.0757 22.9507 10.0227 22.9899 9.98357C23.0286 9.9444 23.0819 9.92232 23.1369 9.92232H25.6061C25.6611 9.92232 25.7144 9.9444 25.7532 9.98357C25.7924 10.0227 25.8144 10.0757 25.8144 10.1307V15.3361C25.8144 15.6811 26.0944 15.9611 26.4394 15.9611C26.7844 15.9611 27.0644 15.6811 27.0644 15.3361C27.0644 15.3361 27.0644 11.7873 27.0644 10.1307C27.0644 9.74399 26.9107 9.37315 26.6374 9.09982C26.3636 8.82607 25.9928 8.67232 25.6061 8.67232C24.8874 8.67232 23.8553 8.67232 23.1369 8.67232C22.7503 8.67232 22.3794 8.82607 22.1057 9.09982C21.8324 9.37315 21.6786 9.74399 21.6786 10.1307V16.1694C21.6786 16.5144 21.9586 16.7944 22.3036 16.7944C22.6486 16.7944 22.9286 16.5144 22.9286 16.1694ZM20.5699 4.29607L15.4932 7.86065C14.989 7.40315 14.3203 7.12399 13.5865 7.12399C12.0269 7.12399 10.7594 8.38482 10.7478 9.94149L5.61944 11.059C5.16694 10.0915 4.18486 9.42065 3.04694 9.42065C1.48027 9.42065 0.208191 10.6923 0.208191 12.2594C0.208191 13.8261 1.48027 15.0977 3.04694 15.0977C4.60652 15.0977 5.87402 13.8373 5.88527 12.2802L11.0136 11.1632C11.4661 12.1302 12.4486 12.8015 13.5865 12.8015C15.1532 12.8015 16.4253 11.5294 16.4253 9.96274C16.4253 9.58065 16.3494 9.21565 16.2124 8.88274L21.289 5.31857C21.7932 5.77565 22.4619 6.05482 23.1957 6.05482C24.7624 6.05482 26.0344 4.78274 26.0344 3.21607C26.0344 1.6494 24.7624 0.377319 23.1957 0.377319C21.629 0.377319 20.3569 1.6494 20.3569 3.21607C20.3569 3.59857 20.4328 3.96315 20.5699 4.29607ZM3.04694 13.8477C2.16986 13.8477 1.45819 13.1361 1.45819 12.2594C1.45819 11.3823 2.16986 10.6707 3.04694 10.6707C3.92361 10.6707 4.63527 11.3823 4.63527 12.2594C4.63527 13.1361 3.92361 13.8477 3.04694 13.8477ZM14.884 9.04649L14.8894 9.05399C15.0694 9.31149 15.1753 9.62482 15.1753 9.96274C15.1753 10.8394 14.4632 11.5515 13.5865 11.5515C12.7099 11.5515 11.9978 10.8394 11.9978 9.96274C11.9978 9.08607 12.7099 8.37399 13.5865 8.37399C14.1219 8.37399 14.5961 8.63982 14.884 9.04649ZM21.8982 4.13274L21.8928 4.12482C21.7128 3.86732 21.6069 3.55399 21.6069 3.21607C21.6069 2.3394 22.319 1.62732 23.1957 1.62732C24.0724 1.62732 24.7844 2.3394 24.7844 3.21607C24.7844 4.09274 24.0724 4.80482 23.1957 4.80482C22.6603 4.80482 22.1861 4.53899 21.8982 4.13274Z" fill="#2D55A5"/>
</g>
<defs>
<clipPath id="clip0_1_1078">
<rect width="40" height="40" fill="white"/>
</clipPath>
</defs>
</svg>
