<svg width="32" height="32" viewBox="0 0 32 32" fill="none" xmlns="http://www.w3.org/2000/svg">
<g clip-path="url(#clip0_1_799)">
<path d="M22.2594 15.1706C19.6012 14.8919 17.2125 16.8262 16.9338 19.4837C16.7987 20.7712 17.1725 22.0338 17.9875 23.04C18.8025 24.0456 19.96 24.6744 21.2469 24.8094C21.4194 24.8275 21.5913 24.8363 21.7625 24.8363C22.8681 24.8363 23.9319 24.4613 24.8031 23.7556C25.8088 22.9406 26.4375 21.7831 26.5725 20.4963C26.8512 17.8388 24.9169 15.45 22.2594 15.1706ZM25.8263 20.4181C25.7119 21.5063 25.1806 22.485 24.3306 23.1731C23.4806 23.8619 22.4125 24.1781 21.325 24.0637C20.2369 23.9494 19.2581 23.4181 18.57 22.5681C17.8813 21.7181 17.565 20.6506 17.6794 19.5625C17.9 17.4613 19.6819 15.8944 21.75 15.8944C21.8925 15.8944 22.0362 15.9019 22.1812 15.9169C24.4269 16.1525 26.0625 18.1719 25.8263 20.4181ZM30.5781 27.7825L26.7881 23.8031C27.4631 22.915 27.9125 21.8388 28.0369 20.6506C28.1581 19.4937 27.9575 18.3756 27.5075 17.3862C27.7294 16.4087 27.8438 15.4025 27.8438 14.3912C27.8438 10.7975 26.4444 7.41937 23.9037 4.87875C21.3631 2.33812 17.9837 0.9375 14.3906 0.9375C10.7969 0.9375 7.41875 2.33687 4.87813 4.8775C2.33688 7.41875 0.9375 10.7969 0.9375 14.3906C0.9375 17.9844 2.33687 21.3625 4.8775 23.9031C7.41813 26.4444 10.7969 27.8431 14.39 27.8431C16.6206 27.8431 18.825 27.2856 20.7756 26.2325C20.88 26.2488 20.9856 26.2625 21.0925 26.2738C21.3156 26.2975 21.5375 26.3088 21.7575 26.3088C22.6806 26.3088 23.5669 26.105 24.3681 25.7388L27.4837 30.2881C27.765 30.6987 28.2031 30.9662 28.7181 31.0413C28.8162 31.0556 28.9144 31.0625 29.0125 31.0625C29.4794 31.0625 29.9375 30.9025 30.3037 30.6063C30.7469 30.2475 31.0219 29.715 31.0588 29.1456C31.0919 28.6275 30.9212 28.1431 30.5781 27.7825ZM25.3044 14.7656H27.0881C27.0725 15.3088 27.0206 15.8488 26.9369 16.3831C26.4975 15.7519 25.9444 15.2025 25.3044 14.7656ZM14.7656 1.71063C16.7669 1.94563 18.5413 4.04625 19.64 7.14313C18.12 7.49563 16.4662 7.695 14.7656 7.72062V1.71063ZM14.0156 1.71V7.72C12.3138 7.69437 10.6587 7.49437 9.1375 7.14187C9.36812 6.49375 9.63062 5.8825 9.925 5.31563C11.0475 3.1525 12.4881 1.88875 14.0156 1.71ZM14.0156 8.47062V14.0156H7.9825C8.015 11.8125 8.3325 9.70625 8.90063 7.85625C10.4975 8.23187 12.2338 8.44438 14.0156 8.47062ZM7.2325 14.0156H1.69375C1.77938 11.0725 2.87125 8.37813 4.63562 6.26312C5.66687 6.8375 6.86562 7.31063 8.17437 7.67063C7.59062 9.58438 7.265 11.7531 7.2325 14.0156ZM7.2325 14.7656C7.265 17.0281 7.59062 19.1962 8.17437 21.1106C6.86562 21.47 5.66687 21.9438 4.63562 22.5181C2.87062 20.4038 1.77938 17.7087 1.69375 14.7656H7.2325ZM7.9825 14.7656H14.0156V20.3106C12.2338 20.3369 10.4975 20.5494 8.90125 20.925C8.3325 19.0744 8.015 16.9688 7.9825 14.7656ZM14.0156 21.0606V27.0706C12.4881 26.8925 11.0475 25.6287 9.925 23.465C9.63062 22.8981 9.36812 22.2862 9.1375 21.6388C10.6587 21.2862 12.3138 21.0863 14.0156 21.0606ZM14.7656 21.0606C15.0206 21.0644 15.2756 21.0725 15.5294 21.0837C15.805 22.65 16.6656 24.0413 17.8975 24.9931C16.9525 26.2306 15.8806 26.9413 14.7656 27.0713V21.0606ZM15.4688 19.33C15.4331 19.6675 15.4256 20.0012 15.4431 20.3294C15.2181 20.32 14.9919 20.3137 14.7656 20.3106V14.7656H18.1994C18.055 14.8644 17.9138 14.9688 17.7763 15.08C16.4644 16.1425 15.645 17.6519 15.4688 19.33ZM19.6869 14.0156H14.7656V8.47062C16.5456 8.44438 18.2806 8.2325 19.875 7.8575C20.4081 9.59625 20.7375 11.6025 20.7925 13.7431C20.4163 13.8 20.0462 13.8912 19.6869 14.0156ZM21.5413 13.6744C21.4825 11.535 21.1606 9.48688 20.6069 7.67063C21.9156 7.31125 23.1144 6.8375 24.1456 6.26312C25.9106 8.3775 27.0019 11.0725 27.0875 14.0156H23.8113C23.3675 13.8625 22.8994 13.7575 22.4131 13.7063C22.1206 13.6756 21.83 13.6656 21.5413 13.6744ZM23.635 5.6875C22.6788 6.20312 21.5756 6.63063 20.3731 6.95813C20.1112 6.21063 19.8081 5.50875 19.4656 4.86375C18.8113 3.63063 18.0481 2.66812 17.2144 2.00437C19.7137 2.57375 21.935 3.8825 23.635 5.6875ZM11.5638 2.005C10.7075 2.6875 9.92562 3.68625 9.25937 4.97062C8.93937 5.58687 8.655 6.2525 8.4075 6.95813C7.20563 6.63063 6.1025 6.20312 5.14625 5.6875C6.84562 3.88312 9.06563 2.575 11.5638 2.005ZM5.14625 23.0938C6.1025 22.5781 7.20563 22.1513 8.4075 21.8231C8.655 22.5288 8.93937 23.1944 9.25937 23.8113C9.92562 25.0956 10.7075 26.0938 11.5638 26.7769C9.06563 26.2062 6.84562 24.8975 5.14625 23.0938ZM17.2188 26.775C17.6731 26.4119 18.1081 25.9575 18.5175 25.4169C18.875 25.6306 19.2562 25.8106 19.6575 25.9519C18.875 26.3075 18.0575 26.5837 17.2188 26.775ZM21.1712 25.5281C18.1175 25.2075 15.8944 22.4619 16.215 19.4081C16.3706 17.9287 17.0925 16.5988 18.2481 15.6625C19.2494 14.8519 20.4719 14.4206 21.7425 14.4206C21.9388 14.4206 22.1369 14.4312 22.335 14.4519C25.3887 14.7725 27.6119 17.5181 27.2913 20.5719C26.97 23.6256 24.225 25.8494 21.1712 25.5281ZM26.2969 24.3744L26.7625 24.8631L25.4212 25.9494L25.035 25.3856C25.4969 25.1038 25.9206 24.7638 26.2969 24.3744ZM30.31 29.0975C30.2869 29.4531 30.1081 29.7994 29.8312 30.0238C29.5544 30.2475 29.1788 30.3506 28.8263 30.2994C28.5212 30.255 28.2644 30.1006 28.1025 29.8644L25.8463 26.5706L27.2812 25.4088L30.0344 28.3C30.2319 28.5069 30.33 28.79 30.31 29.0975Z" fill="#2D55A5"/>
</g>
<defs>
<clipPath id="clip0_1_799">
<rect width="32" height="32" fill="white"/>
</clipPath>
</defs>
</svg>
