<svg width="41" height="40" viewBox="0 0 41 40" fill="none" xmlns="http://www.w3.org/2000/svg">
<path d="M4.40162 18.7084C4.6356 18.8416 4.89612 18.9214 5.16453 18.9421C5.43294 18.9628 5.70261 18.9239 5.95425 18.8282C5.97169 19.3092 6.17473 19.7647 6.52076 20.0991C6.86678 20.4336 7.3289 20.6211 7.81015 20.6222C8.99147 20.5118 10.007 19.4932 11.1427 19.2747C11.2981 19.2232 11.4272 19.1129 11.5021 18.9673C11.577 18.8217 11.5918 18.6526 11.5434 18.4962C11.4949 18.3398 11.387 18.2087 11.2429 18.131C11.0988 18.0533 10.93 18.0352 10.7727 18.0807C9.85215 18.37 8.97039 18.7707 8.14702 19.2739C8.05066 19.3339 7.93994 19.3669 7.82645 19.3695C7.71296 19.3721 7.60086 19.3441 7.50187 19.2885C7.40755 19.2363 7.32919 19.1594 7.27517 19.0661C7.22115 18.9728 7.1935 18.8666 7.19517 18.7588V18.1901C8.3994 17.5461 9.70136 17.1046 11.0489 16.8832C11.212 16.8579 11.3585 16.7693 11.4564 16.6364C11.5543 16.5036 11.5958 16.3375 11.5717 16.1743C11.5476 16.011 11.4599 15.8639 11.3278 15.7651C11.1957 15.6662 11.0298 15.6236 10.8664 15.6466C9.2667 15.9056 7.72473 16.4429 6.31045 17.2341C5.93035 17.4248 5.36212 17.8911 5.01987 17.6222C4.92408 17.569 4.84448 17.4908 4.78952 17.396C4.73456 17.3011 4.70628 17.1932 4.70767 17.0836V5.7589C4.70741 5.66076 4.73059 5.56398 4.77529 5.47661C4.81998 5.38924 4.8849 5.3138 4.96463 5.25658C6.45816 4.16131 10.3492 1.72143 14.2072 2.71233C16.7038 3.35382 18.7644 5.35882 20.3327 8.67303V20.3964C19.0101 18.2734 17.0243 16.5328 14.8926 15.9118C14.8142 15.8874 14.7317 15.8787 14.6499 15.8862C14.5681 15.8937 14.4886 15.9172 14.4159 15.9554C14.3432 15.9937 14.2788 16.0459 14.2263 16.109C14.1737 16.1722 14.1342 16.2451 14.1099 16.3235C14.0856 16.402 14.077 16.4845 14.0846 16.5663C14.0922 16.6481 14.1158 16.7275 14.1542 16.8002C14.1925 16.8728 14.2448 16.9372 14.308 16.9896C14.3713 17.042 14.4442 17.0815 14.5227 17.1056C15.1323 17.2957 15.7138 17.5663 16.2518 17.9102C15.5718 17.8186 14.2859 17.2013 14.0857 18.2045C14.0777 18.2862 14.0859 18.3687 14.1098 18.4472C14.1337 18.5257 14.1729 18.5987 14.225 18.6621C14.2772 18.7255 14.3413 18.778 14.4138 18.8166C14.4862 18.8551 14.5656 18.8791 14.6472 18.887C16.3763 19.1394 18.7034 19.6728 19.5761 21.552C19.6314 21.6455 19.71 21.7229 19.8043 21.7767C19.8986 21.8305 20.0053 21.8588 20.1139 21.8588H21.8015C21.91 21.8588 22.0167 21.8305 22.111 21.7767C22.2053 21.723 22.284 21.6455 22.3392 21.5521C23.2117 19.6738 25.5386 19.1389 27.2681 18.8869C27.3498 18.879 27.4291 18.8551 27.5016 18.8165C27.574 18.778 27.6382 18.7255 27.6903 18.6622C27.7425 18.5988 27.7816 18.5258 27.8055 18.4472C27.8294 18.3687 27.8376 18.2863 27.8296 18.2046C27.6272 17.2006 26.3407 17.8201 25.6633 17.9103C26.2014 17.5663 26.783 17.2957 27.3926 17.1056C27.4712 17.0815 27.5442 17.0421 27.6075 16.9897C27.6708 16.9373 27.7232 16.8729 27.7616 16.8003C27.8 16.7276 27.8237 16.6481 27.8313 16.5662C27.8389 16.4844 27.8303 16.4019 27.806 16.3234C27.7817 16.2448 27.7421 16.1719 27.6895 16.1087C27.637 16.0455 27.5725 15.9933 27.4997 15.9551C27.427 15.9169 27.3474 15.8934 27.2655 15.8859C27.1837 15.8785 27.1012 15.8873 27.0227 15.9118C24.8902 16.5321 22.9031 18.2764 21.5827 20.3964V8.673C23.151 5.35882 25.2116 3.35382 27.7082 2.71233C31.5684 1.72175 35.4572 4.16131 36.9517 5.2572C37.0312 5.31443 37.0959 5.38981 37.1404 5.47706C37.1849 5.56432 37.208 5.66094 37.2077 5.7589V17.0837C37.2103 17.1931 37.1834 17.3011 37.1298 17.3965C37.0761 17.4919 36.9978 17.5711 36.903 17.6258C36.8082 17.6804 36.7004 17.7085 36.591 17.7071C36.4816 17.7057 36.3746 17.6748 36.2812 17.6178C36.0667 17.4877 35.8457 17.3641 35.6055 17.2341C34.191 16.443 32.6488 15.9057 31.049 15.6466C30.8856 15.6237 30.7197 15.6663 30.5876 15.7651C30.4555 15.864 30.3678 16.0111 30.3437 16.1743C30.3196 16.3375 30.3611 16.5037 30.459 16.6365C30.5569 16.7693 30.7034 16.858 30.8665 16.8832C32.214 17.1046 33.5159 17.5461 34.7202 18.1899V18.7588C34.7219 18.8666 34.6942 18.9729 34.6402 19.0662C34.5862 19.1595 34.5078 19.2364 34.4135 19.2886C34.3146 19.3441 34.2026 19.372 34.0893 19.3695C33.9759 19.367 33.8653 19.3341 33.769 19.2742C32.9454 18.7709 32.0634 18.3701 31.1426 18.0807C30.9854 18.0353 30.8166 18.0534 30.6725 18.1311C30.5285 18.2088 30.4206 18.3399 30.3722 18.4963C30.3238 18.6526 30.3386 18.8217 30.4135 18.9672C30.4884 19.1128 30.6174 19.2231 30.7728 19.2746C31.9081 19.4931 32.9237 20.5116 34.1052 20.6224C34.5864 20.6212 35.0484 20.4337 35.3944 20.0994C35.7404 19.765 35.9435 19.3096 35.9611 18.8288C36.2419 18.9305 36.543 18.9632 36.8391 18.9241C37.1352 18.885 37.4175 18.7752 37.6623 18.6041C37.9071 18.433 38.1071 18.2056 38.2456 17.941C38.384 17.6763 38.4567 17.3823 38.4577 17.0836L38.4577 5.7589C38.459 5.46419 38.3901 5.17342 38.2565 4.91071C38.123 4.64799 37.9288 4.4209 37.6899 4.24827C32.7034 0.498184 25.1505 -0.888247 20.9577 7.15001C16.7598 -0.893109 9.21049 0.502828 4.22643 4.24782C3.98734 4.42039 3.79288 4.64751 3.65918 4.91032C3.52549 5.17313 3.45642 5.46404 3.45772 5.7589V17.0837C3.4554 17.4142 3.54175 17.7392 3.70777 18.025C3.87378 18.3107 4.11339 18.5467 4.40162 18.7084Z" fill="#2D55A5"/>
<path d="M29.3216 25.5605C29.3837 25.652 31.9384 22.9742 32.0247 22.9256C32.138 22.8076 32.2006 22.6499 32.1989 22.4863C32.1972 22.3228 32.1315 22.1663 32.0158 22.0507C31.9001 21.935 31.7437 21.8693 31.5801 21.8677C31.4165 21.866 31.2588 21.9286 31.1408 22.0419L29.7078 23.475V11.7436C30.1237 11.5962 30.4742 11.3066 30.6972 10.9258C30.9203 10.5451 31.0017 10.0978 30.9269 9.66287C30.8521 9.22797 30.6261 8.83349 30.2886 8.54912C29.9512 8.26475 29.5242 8.10878 29.0829 8.10876C28.6416 8.10875 28.2145 8.2647 27.8771 8.54905C27.5396 8.8334 27.3136 9.22786 27.2388 9.66275C27.164 10.0976 27.2453 10.545 27.4683 10.9257C27.6914 11.3065 28.0418 11.5961 28.4578 11.7435V23.475L27.0246 22.0418C26.9067 21.9284 26.7489 21.8658 26.5853 21.8675C26.4217 21.8691 26.2652 21.9348 26.1495 22.0505C26.0338 22.1662 25.9681 22.3227 25.9665 22.4863C25.9649 22.6499 26.0275 22.8077 26.1409 22.9256L28.6407 25.4254C28.7283 25.5125 28.8396 25.5717 28.9607 25.5958C29.0819 25.6198 29.2074 25.6075 29.3216 25.5605ZM29.0828 9.35875C29.2464 9.36194 29.4023 9.4292 29.5169 9.54606C29.6315 9.66293 29.6957 9.82008 29.6957 9.98376C29.6957 10.1474 29.6315 10.3046 29.5169 10.4215C29.4022 10.5383 29.2464 10.6056 29.0827 10.6087C28.9191 10.6056 28.7632 10.5383 28.6486 10.4214C28.534 10.3046 28.4698 10.1474 28.4698 9.98373C28.4698 9.82005 28.534 9.6629 28.6486 9.54604C28.7632 9.42918 28.9191 9.36193 29.0828 9.35875Z" fill="#2D55A5"/>
<path d="M13.2748 25.4254L15.7746 22.9256C15.888 22.8077 15.9506 22.6499 15.949 22.4863C15.9473 22.3227 15.8816 22.1662 15.7659 22.0505C15.6502 21.9348 15.4937 21.8691 15.3301 21.8675C15.1665 21.8659 15.0088 21.9285 14.8908 22.0419L13.4577 23.475V11.7436C13.8736 11.5962 14.2241 11.3066 14.4472 10.9258C14.6703 10.5451 14.7516 10.0978 14.6768 9.66287C14.6021 9.22797 14.376 8.83349 14.0386 8.54912C13.7012 8.26475 13.2741 8.10878 12.8328 8.10876C12.3915 8.10875 11.9645 8.2647 11.627 8.54905C11.2896 8.8334 11.0635 9.22786 10.9887 9.66275C10.9139 10.0976 10.9952 10.545 11.2183 10.9257C11.4413 11.3065 11.7918 11.5961 12.2077 11.7435V23.475L10.7746 22.0418C10.6566 21.9284 10.4989 21.8658 10.3352 21.8675C10.1716 21.8691 10.0152 21.9348 9.89946 22.0505C9.78376 22.1662 9.71804 22.3227 9.71643 22.4863C9.71482 22.6499 9.77743 22.8077 9.89083 22.9256L12.3906 25.4254C12.5085 25.5415 12.6673 25.6066 12.8327 25.6066C12.9981 25.6066 13.1569 25.5415 13.2748 25.4254ZM12.8327 9.35875C12.9964 9.36194 13.1522 9.4292 13.2668 9.54606C13.3814 9.66293 13.4456 9.82008 13.4456 9.98376C13.4456 10.1474 13.3814 10.3046 13.2668 10.4215C13.1522 10.5383 12.9963 10.6056 12.8327 10.6087C12.669 10.6055 12.5132 10.5383 12.3986 10.4214C12.2839 10.3046 12.2198 10.1474 12.2198 9.98372C12.2198 9.82004 12.284 9.66289 12.3986 9.54603C12.5132 9.42917 12.6691 9.36193 12.8327 9.35875Z" fill="#2D55A5"/>
<path d="M4.1395 38.4554C4.19656 38.5411 4.27388 38.6113 4.36459 38.6598C4.45531 38.7084 4.55661 38.7338 4.6595 38.7338C5.20373 38.7624 5.74943 38.7421 6.29002 38.6731C6.40786 38.7116 6.53081 38.732 6.65474 38.7338H19.1069C19.4383 38.7334 19.756 38.6016 19.9904 38.3673C20.2247 38.1329 20.3565 37.8152 20.3568 37.4838V26.8588C20.3565 26.5273 20.2247 26.2096 19.9904 25.9752C19.756 25.7409 19.4383 25.6091 19.1069 25.6088H6.65476C6.32334 25.6091 6.00559 25.7409 5.77125 25.9752C5.5369 26.2096 5.40509 26.5273 5.40476 26.8588V34.7433H2.83274C2.7202 34.7447 2.6101 34.7763 2.51392 34.8348C2.41773 34.8932 2.33899 34.9764 2.28588 35.0756C2.23278 35.1749 2.20726 35.2865 2.21198 35.399C2.2167 35.5114 2.2515 35.6205 2.31274 35.715L4.1395 38.4554ZM6.65476 26.8588H19.1069L19.1078 37.4838H6.65476V26.8588ZM5.40476 35.9933V37.4838H4.99399L4.00034 35.9933H5.40476Z" fill="#2D55A5"/>
<path d="M12.8327 34.9838C13.4955 34.983 14.131 34.7194 14.5997 34.2507C15.0683 33.782 15.332 33.1466 15.3327 32.4838C15.3663 31.9757 15.1174 31.2729 14.4742 31.4581C14.4 31.4812 14.3215 31.4864 14.2449 31.4735C14.1683 31.4605 14.0958 31.4297 14.0333 31.3835C13.9709 31.3373 13.9201 31.2771 13.8853 31.2076C13.8505 31.1382 13.8325 31.0615 13.8328 30.9838C14.0701 30.2466 13.4712 29.9565 12.8327 29.9838C12.1737 29.99 11.5438 30.2561 11.08 30.7243C10.6162 31.1924 10.356 31.8248 10.356 32.4838C10.356 33.1428 10.6162 33.7752 11.08 34.2433C11.5439 34.7115 12.1737 34.9776 12.8327 34.9838ZM12.6039 31.2548C12.6617 31.6206 12.834 31.9587 13.0959 32.2206C13.3578 32.4825 13.6959 32.6547 14.0617 32.7126C14.02 32.9364 13.918 33.1446 13.7666 33.3147C13.6153 33.4848 13.4204 33.6103 13.2029 33.6777C12.9855 33.7451 12.7537 33.7518 12.5327 33.6972C12.3117 33.6426 12.1098 33.5286 11.9489 33.3676C11.7879 33.2066 11.6739 33.0048 11.6193 32.7838C11.5646 32.5627 11.5714 32.331 11.6388 32.1136C11.7062 31.8961 11.8317 31.7012 12.0018 31.5499C12.1719 31.3985 12.38 31.2965 12.6039 31.2548Z" fill="#2D55A5"/>
<path d="M24.7078 26.8588V37.4838C24.7081 37.8152 24.8399 38.1329 25.0742 38.3673C25.3086 38.6016 25.6263 38.7334 25.9578 38.7338H32.2078C32.5392 38.7334 32.8569 38.6016 33.0913 38.3673C33.3256 38.1329 33.4574 37.8152 33.4578 37.4838V26.8588C33.4574 26.5273 33.3256 26.2096 33.0913 25.9752C32.8569 25.7409 32.5392 25.6091 32.2078 25.6088H25.9578C25.6263 25.6091 25.3086 25.7409 25.0742 25.9752C24.8399 26.2096 24.7081 26.5273 24.7078 26.8588ZM32.2078 26.8588L32.2087 37.4838H25.9578V26.8588H32.2078Z" fill="#2D55A5"/>
<path d="M28.4578 36.8588H29.7078C29.8714 36.8556 30.0273 36.7883 30.1419 36.6714C30.2565 36.5546 30.3207 36.3974 30.3207 36.2337C30.3207 36.0701 30.2565 35.9129 30.1418 35.7961C30.0272 35.6792 29.8714 35.612 29.7077 35.6088H28.4578C28.2941 35.612 28.1382 35.6792 28.0236 35.7961C27.909 35.9129 27.8448 36.0701 27.8448 36.2338C27.8448 36.3974 27.909 36.5546 28.0236 36.6715C28.1382 36.7883 28.2941 36.8556 28.4578 36.8588Z" fill="#2D55A5"/>
</svg>
