<svg width="48" height="37" viewBox="0 0 48 37" fill="none" xmlns="http://www.w3.org/2000/svg">
<path d="M4.26134 33.8105C1.48864 30.8509 0 27.5315 0 22.1508C0 13.2744 5.81283 5.261 14.4643 0.836596C15.4685 0.323059 16.6814 0.696218 17.2926 1.64409C18.0179 2.76883 17.6244 4.26597 16.5044 4.9985C9.36859 9.66547 7.84418 15.2798 7.20363 18.9342C8.64921 18.1821 10.5416 17.9197 12.3964 18.0929C17.2527 18.5446 21.0806 22.5511 21.0806 27.5315C21.0806 30.0427 20.0879 32.4511 18.321 34.2268C16.5541 36.0024 14.1576 37 11.6588 37C10.2769 36.9879 8.91123 36.6996 7.64124 36.152C6.37125 35.6045 5.22233 34.8085 4.26134 33.8105ZM31.1808 33.8105C28.4081 30.8509 26.9194 27.5315 26.9194 22.1508C26.9194 13.2744 32.7322 5.261 41.3837 0.836596C42.3879 0.323059 43.6008 0.696219 44.212 1.64409C44.9373 2.76883 44.5438 4.26597 43.4238 4.9985C36.288 9.66547 34.7636 15.2798 34.123 18.9342C35.5686 18.1821 37.4611 17.9197 39.3158 18.0929C44.1721 18.5446 48 22.5511 48 27.5315C48 30.0427 47.0074 32.4511 45.2404 34.2268C43.4735 36.0024 41.077 37 38.5782 37C37.1963 36.9879 35.8306 36.6996 34.5606 36.152C33.2907 35.6045 32.1417 34.8085 31.1808 33.8105Z" fill="url(#paint0_linear_1_1287)"/>
<defs>
<linearGradient id="paint0_linear_1_1287" x1="35.5608" y1="18.5" x2="25.4643" y2="18.3618" gradientUnits="userSpaceOnUse">
<stop stop-color="#2B54A5"/>
<stop offset="1" stop-color="#22AAE1"/>
</linearGradient>
</defs>
</svg>
