<svg width="64" height="64" viewBox="0 0 64 64" fill="none" xmlns="http://www.w3.org/2000/svg">
<g clip-path="url(#clip0_1_818)">
<path d="M57.2084 36.375V26.8159" stroke="#2D55A5" stroke-width="1.875" stroke-miterlimit="10" stroke-linecap="round" stroke-linejoin="round"/>
<path d="M6.79163 26.8159V36.2105" stroke="#2D55A5" stroke-width="1.875" stroke-miterlimit="10" stroke-linecap="round" stroke-linejoin="round"/>
<path d="M46.5834 15.3563V9.75031L33.3245 1.32281C32.5162 0.809062 31.4839 0.809062 30.6756 1.32281L17.4167 9.75031V15.3563" stroke="#2D55A5" stroke-width="1.875" stroke-miterlimit="10" stroke-linecap="round" stroke-linejoin="round"/>
<path d="M25.1666 15.3562H7.97163C7.15713 15.3562 6.45188 15.9217 6.27475 16.7167L4.54913 24.4625C4.30725 25.5485 5.1335 26.579 6.246 26.579H17.4168" stroke="#2D55A5" stroke-width="1.875" stroke-miterlimit="10" stroke-linecap="round" stroke-linejoin="round"/>
<path d="M46.5834 26.579H57.754C58.8666 26.579 59.6929 25.5483 59.4509 24.4625L57.7253 16.7167C57.5481 15.9217 56.8429 15.3562 56.0284 15.3562H38.802" stroke="#2D55A5" stroke-width="1.875" stroke-miterlimit="10" stroke-linecap="round" stroke-linejoin="round"/>
<path d="M14.9714 11.3045L17.4166 9.75024" stroke="#2D55A5" stroke-width="1.875" stroke-miterlimit="10" stroke-linecap="round" stroke-linejoin="round"/>
<path d="M49.0286 11.3045L46.5834 9.75024" stroke="#2D55A5" stroke-width="1.875" stroke-miterlimit="10" stroke-linecap="round" stroke-linejoin="round"/>
<path d="M17.4166 36.375V32.6917" stroke="#2D55A5" stroke-width="1.875" stroke-miterlimit="10" stroke-linecap="round" stroke-linejoin="round"/>
<path d="M17.4166 28.3163V21.9412C17.4166 20.9729 17.9115 20.0719 18.7286 19.5525L30.6755 11.959C31.4838 11.4453 32.5161 11.4453 33.3244 11.959L45.2713 19.5525C46.0884 20.0719 46.5833 20.9729 46.5833 21.9412V36.3752" stroke="#2D55A5" stroke-width="1.875" stroke-miterlimit="10" stroke-linecap="round" stroke-linejoin="round"/>
<path d="M40.1666 36.5V27.3159H23.8334V36.5" stroke="#2D55A5" stroke-width="1.875" stroke-miterlimit="10" stroke-linecap="round" stroke-linejoin="round"/>
<path d="M32 27.3159V36.4605" stroke="#2D55A5" stroke-width="1.875" stroke-miterlimit="10" stroke-linecap="round" stroke-linejoin="round"/>
<path d="M47.0423 63.0626H58.7988C59.7746 63.0626 60.5659 62.2715 60.5659 61.2955V58.698H3.43427V61.2955C3.43427 62.2714 4.22539 63.0626 5.20139 63.0626H42.6669" stroke="#2D55A5" stroke-width="1.875" stroke-miterlimit="10" stroke-linecap="round" stroke-linejoin="round"/>
<path d="M55.5811 53.3335H8.41889C5.66589 53.3335 3.43414 55.5652 3.43414 58.3182V58.6981H60.5658V58.3182C60.5658 55.5651 58.3341 53.3335 55.5811 53.3335Z" stroke="#2D55A5" stroke-width="1.875" stroke-miterlimit="10" stroke-linecap="round" stroke-linejoin="round"/>
<path d="M0.9375 50.8334V39.0857C0.9375 37.7049 2.05675 36.5857 3.4375 36.5857H60.5625C61.9432 36.5857 63.0625 37.7049 63.0625 39.0857V50.8334C63.0625 52.2142 61.9432 53.3334 60.5625 53.3334H3.4375C2.05675 53.3334 0.9375 52.2141 0.9375 50.8334Z" stroke="#2D55A5" stroke-width="1.875" stroke-miterlimit="10" stroke-linecap="round" stroke-linejoin="round"/>
<path d="M54.1255 41.5881V48.3251C54.2 48.3379 56.4866 48.3251 56.4866 48.3251" stroke="#2D55A5" stroke-width="1.875" stroke-miterlimit="10" stroke-linecap="round" stroke-linejoin="round"/>
<path d="M24.6409 41.5881V48.3308" stroke="#2D55A5" stroke-width="1.875" stroke-miterlimit="10" stroke-linecap="round" stroke-linejoin="round"/>
<path d="M29.3069 41.5881V48.3308" stroke="#2D55A5" stroke-width="1.875" stroke-miterlimit="10" stroke-linecap="round" stroke-linejoin="round"/>
<path d="M24.6409 44.844H29.3069" stroke="#2D55A5" stroke-width="1.875" stroke-miterlimit="10" stroke-linecap="round" stroke-linejoin="round"/>
<path d="M20.7782 42.1639C20.2401 41.8004 19.5915 41.5881 18.8932 41.5881C17.0312 41.5881 15.5219 43.0975 15.5219 44.9595C15.5219 46.8215 17.0312 48.3309 18.8932 48.3309C19.6495 48.3309 20.2715 48.0819 20.7435 47.6615C20.8411 47.5745 20.9323 47.4801 21.0171 47.3793" stroke="#2D55A5" stroke-width="1.875" stroke-miterlimit="10" stroke-linecap="round" stroke-linejoin="round"/>
<path d="M11.6692 42.2813C11.6692 42.2813 10.4594 41.2643 9.03261 41.694C7.72249 42.0887 7.53936 43.5993 8.48711 44.2172C8.48711 44.2172 9.41711 44.632 10.4487 45.0125C12.9319 45.9284 11.8622 48.3308 9.86324 48.3308C8.86224 48.3308 8.02211 47.8924 7.51361 47.3313" stroke="#2D55A5" stroke-width="1.875" stroke-miterlimit="10" stroke-linecap="round" stroke-linejoin="round"/>
<path d="M36.4376 48.3309C38.2996 48.3309 39.809 46.8215 39.809 44.9595C39.809 43.0976 38.2996 41.5881 36.4376 41.5881C34.5756 41.5881 33.0662 43.0976 33.0662 44.9595C33.0662 46.8215 34.5756 48.3309 36.4376 48.3309Z" stroke="#2D55A5" stroke-width="1.875" stroke-miterlimit="10" stroke-linecap="round" stroke-linejoin="round"/>
<path d="M46.898 48.3309C48.7599 48.3309 50.2694 46.8215 50.2694 44.9595C50.2694 43.0976 48.7599 41.5881 46.898 41.5881C45.036 41.5881 43.5266 43.0976 43.5266 44.9595C43.5266 46.8215 45.036 48.3309 46.898 48.3309Z" stroke="#2D55A5" stroke-width="1.875" stroke-miterlimit="10" stroke-linecap="round" stroke-linejoin="round"/>
</g>
<defs>
<clipPath id="clip0_1_818">
<rect width="64" height="64" fill="white"/>
</clipPath>
</defs>
</svg>
