<svg width="25" height="24" viewBox="0 0 25 24" fill="none" xmlns="http://www.w3.org/2000/svg">
<g id="Outline / Essentional, UI / Magic Stick">
<path id="Vector" fill-rule="evenodd" clip-rule="evenodd" d="M13.3557 4.40984C14.4631 3.70282 15.2239 3.2193 15.8105 2.95382C16.3965 2.68862 16.5995 2.73954 16.7039 2.79329C16.8022 2.84385 16.9552 2.96748 17.0624 3.58298C17.1703 4.20282 17.1939 5.08676 17.2254 6.38125L17.2414 7.03779L17.2442 7.15733V7.15734C17.258 7.75902 17.2698 8.27579 17.4892 8.73565C17.7102 9.1986 18.1046 9.52725 18.5584 9.90535L18.6485 9.9805L19.143 10.3938C20.1189 11.2094 20.7808 11.7654 21.189 12.2292C21.5883 12.683 21.6004 12.8878 21.5752 13.0207C21.5479 13.165 21.4456 13.3695 20.8894 13.6846C20.3279 14.0027 19.4931 14.3303 18.2751 14.8054L17.6567 15.0466L17.5493 15.0883L17.5493 15.0883C16.9761 15.3111 16.498 15.4969 16.1313 15.8555C15.7649 16.2137 15.5676 16.6878 15.3306 17.2573L15.2861 17.364L15.0295 17.9784C14.5242 19.1883 14.1756 20.0181 13.8437 20.5737C13.5142 21.1253 13.3081 21.2208 13.1671 21.2439C13.0386 21.2648 12.8373 21.2498 12.3957 20.8362C11.9449 20.414 11.4091 19.7346 10.6233 18.7332L10.2251 18.2257L10.1524 18.1329C9.78855 17.6676 9.47181 17.2626 9.01621 17.0282C8.56282 16.7948 8.04684 16.769 7.44883 16.7392L7.32947 16.7332L6.67638 16.6996C5.38838 16.6333 4.50999 16.5861 3.89672 16.4613C3.2893 16.3377 3.17077 16.1819 3.12249 16.0808C3.07012 15.971 3.02638 15.7624 3.30618 15.1809C3.58631 14.5986 4.08817 13.8474 4.82141 12.7547L5.19373 12.1999L5.25947 12.1021C5.60383 11.5903 5.892 11.1621 5.98687 10.661C6.08252 10.1557 5.96652 9.65771 5.82997 9.07144L5.80393 8.95945L5.65689 8.3243C5.36699 7.0721 5.17109 6.21691 5.12138 5.58751C5.07262 4.97008 5.18351 4.77465 5.29328 4.66731C5.40205 4.56096 5.59696 4.45528 6.20843 4.52053C6.83275 4.58715 7.67799 4.80643 8.91699 5.13099L9.54528 5.29557L9.65672 5.32487C10.2359 5.47744 10.7304 5.60771 11.2379 5.52484C11.7408 5.44273 12.1759 5.16416 12.6938 4.83257L12.7935 4.7688L13.3557 4.40984ZM17.3904 1.45957C16.6594 1.08338 15.9015 1.2662 15.1921 1.58725C14.495 1.90273 13.6429 2.44676 12.6012 3.11191L11.9863 3.50451C11.3138 3.93386 11.1544 4.01862 10.9962 4.04444C10.8429 4.06947 10.6778 4.04164 9.92539 3.84453L9.23516 3.66372L9.23515 3.66372C8.07361 3.35942 7.11807 3.10908 6.36759 3.029C5.59096 2.94613 4.8311 3.02133 4.24459 3.59481C3.65909 4.16731 3.56443 4.92556 3.62604 5.70561C3.68565 6.46046 3.90919 7.42589 4.1812 8.60068L4.34258 9.29777C4.51849 10.0576 4.5425 10.2263 4.51304 10.3819C4.48274 10.542 4.39308 10.7011 3.94818 11.364L3.54122 11.9705C2.85109 12.9989 2.28696 13.8395 1.95449 14.5305C1.61613 15.2338 1.41544 15.9864 1.76872 16.7267C2.12608 17.4757 2.84147 17.7774 3.59766 17.9312C4.33489 18.0812 5.32753 18.1322 6.53471 18.1943L7.25243 18.2312C8.03808 18.2716 8.20104 18.2956 8.32977 18.3619C8.45613 18.4269 8.56564 18.5407 9.045 19.1516L9.48366 19.7107L9.4837 19.7107C10.2188 20.6476 10.8251 21.4204 11.3703 21.931C11.9347 22.4596 12.5912 22.8577 13.4088 22.7243C14.2137 22.5928 14.7285 22.0175 15.1314 21.343C15.5253 20.6836 15.9142 19.7524 16.3898 18.6135L16.3898 18.6135L16.6702 17.942C16.9762 17.2095 17.0596 17.0457 17.18 16.928C17.3 16.8106 17.4643 16.7317 18.2017 16.444L18.8201 16.2029L18.8779 16.1803L18.8779 16.1803C20.024 15.7334 20.9616 15.3677 21.6289 14.9897C22.3126 14.6023 22.8974 14.1009 23.0491 13.2997C23.2029 12.487 22.8266 11.8196 22.315 11.2383C21.8213 10.6772 21.0682 10.0478 20.1552 9.28487L19.6105 8.82955C19.0155 8.33229 18.9048 8.21915 18.843 8.08967C18.7797 7.9569 18.7602 7.79041 18.741 7.00127L18.7234 6.28037C18.6939 5.06626 18.6696 4.069 18.5401 3.32558C18.4076 2.56472 18.1275 1.83895 17.3904 1.45957ZM19.8638 18.4695C19.5709 18.1767 19.096 18.1767 18.8031 18.4695C18.5102 18.7624 18.5102 19.2373 18.8031 19.5302L20.8031 21.5302C21.096 21.8231 21.5709 21.8231 21.8638 21.5302C22.1567 21.2373 22.1567 20.7624 21.8638 20.4695L19.8638 18.4695Z" fill="white"/>
</g>
</svg>
