<svg xmlns="http://www.w3.org/2000/svg" width="56" height="56" viewBox="0 0 56 56" fill="none">
  <g clip-path="url(#clip0_502_2684)">
    <mask id="mask0_502_2684" style="mask-type:luminance" maskUnits="userSpaceOnUse" x="0" y="-1" width="57" height="57">
      <path d="M0.00195312 -0.000972748H56.0019V55.999H0.00195312V-0.000972748Z" fill="white"/>
    </mask>
    <g mask="url(#mask0_502_2684)">
      <path d="M29.097 22.3713C30.2522 21.6905 31.0274 20.4334 31.0274 18.9955C31.0274 16.8328 29.2742 15.0796 27.1115 15.0796C24.949 15.0796 23.1958 16.8328 23.1958 18.9955C23.1958 20.2795 23.8139 21.4192 24.7687 22.1333" stroke="#3F3D48" stroke-width="1.5625" stroke-miterlimit="10" stroke-linecap="round" stroke-linejoin="round"/>
      <path d="M29.8802 28.6797C34.0954 27.4771 37.1814 23.5968 37.1814 18.9956C37.1814 13.4346 32.6733 8.92645 27.1122 8.92645C21.5511 8.92645 17.043 13.4346 17.043 18.9956C17.043 23.514 20.0191 27.3373 24.1179 28.6122" stroke="#3F3D48" stroke-width="1.5625" stroke-miterlimit="10" stroke-linecap="round" stroke-linejoin="round"/>
      <path d="M41.25 7.81832C40.054 9.01434 38.115 9.01434 36.919 7.81832C35.723 6.6223 35.723 4.68331 36.919 3.48729C38.115 2.29127 40.054 2.29127 41.25 3.48729C42.446 4.68331 42.446 6.6223 41.25 7.81832Z" stroke="#3F3D48" stroke-width="1.5625" stroke-miterlimit="10" stroke-linecap="round" stroke-linejoin="round"/>
      <path d="M17.3052 34.5044C16.1092 35.7004 14.1702 35.7004 12.9742 34.5044C11.7781 33.3083 11.7781 31.3693 12.9742 30.1733C14.1702 28.9773 16.1092 28.9773 17.3052 30.1733C18.5012 31.3693 18.5012 33.3083 17.3052 34.5044Z" stroke="#3F3D48" stroke-width="1.5625" stroke-miterlimit="10" stroke-linecap="round" stroke-linejoin="round"/>
      <path d="M29.8804 36.6841C38.4524 35.3535 45.0133 27.9409 45.0133 18.996C45.0133 14.9403 43.6644 11.2 41.3911 8.19846" stroke="#3F3D48" stroke-width="1.5625" stroke-miterlimit="10" stroke-linecap="round" stroke-linejoin="round"/>
      <path d="M26.0631 1.12534C16.6648 1.66827 9.21094 9.46168 9.21094 18.996C9.21094 23.0826 10.5805 26.8492 12.8855 29.8623" stroke="#3F3D48" stroke-width="1.5625" stroke-miterlimit="10" stroke-linecap="round" stroke-linejoin="round"/>
      <path d="M46.7956 54.9043V41.8389C46.7956 40.282 45.5334 39.0198 43.9764 39.0198C42.4195 39.0198 41.1574 40.282 41.1574 41.8389V39.5966C41.1574 38.0397 39.8952 36.7776 38.3382 36.7776C36.7813 36.7776 35.5191 38.0397 35.5191 39.5966C35.5191 38.0397 34.257 36.7776 32.7001 36.7776C31.1431 36.7776 29.8809 38.0397 29.8809 39.5966V24.3212C29.8809 22.7642 28.6189 21.502 27.0619 21.502C25.5049 21.502 24.2428 22.7642 24.2428 24.3212V37.7765V49.4164L20.8412 43.8352C20.0049 42.4631 18.2266 42.0091 16.835 42.8126C15.4929 43.5874 14.976 45.2665 15.6499 46.6619L19.7299 54.9043" stroke="#3F3D48" stroke-width="1.5625" stroke-miterlimit="10" stroke-linecap="round" stroke-linejoin="round"/>
      <path d="M29.8799 39.5963V45.0935" stroke="#3F3D48" stroke-width="1.5625" stroke-miterlimit="10" stroke-linecap="round" stroke-linejoin="round"/>
      <path d="M35.5181 39.5966V45.4919" stroke="#3F3D48" stroke-width="1.5625" stroke-miterlimit="10" stroke-linecap="round" stroke-linejoin="round"/>
      <path d="M41.1572 41.8392V45.5662" stroke="#3F3D48" stroke-width="1.5625" stroke-miterlimit="10" stroke-linecap="round" stroke-linejoin="round"/>
    </g>
  </g>
  <defs>
    <clipPath id="clip0_502_2684">
      <rect width="56" height="56" fill="white"/>
    </clipPath>
  </defs>
</svg>