<svg xmlns="http://www.w3.org/2000/svg" width="56" height="56" viewBox="0 0 56 56" fill="none">
  <path d="M5.69556 26.1917C6.02313 26.3781 6.38785 26.4898 6.76362 26.5188C7.1394 26.5478 7.51694 26.4934 7.86923 26.3594C7.89365 27.0328 8.1779 27.6704 8.66234 28.1387C9.14678 28.607 9.79375 28.8694 10.4675 28.8709C12.1213 28.7164 13.5431 27.2904 15.1331 26.9844C15.3507 26.9124 15.5313 26.7579 15.6362 26.5541C15.7411 26.3503 15.7619 26.1135 15.694 25.8946C15.6262 25.6756 15.4752 25.492 15.2734 25.3833C15.0716 25.2745 14.8353 25.2492 14.6151 25.3129C13.3263 25.7179 12.0918 26.2789 10.9391 26.9834C10.8042 27.0674 10.6492 27.1136 10.4903 27.1172C10.3314 27.1208 10.1745 27.0817 10.0359 27.0039C9.90385 26.9307 9.79415 26.8231 9.71852 26.6925C9.6429 26.5618 9.60418 26.4131 9.60653 26.2622V25.4661C11.2924 24.5645 13.1152 23.9463 15.0018 23.6363C15.2301 23.601 15.4351 23.4769 15.5722 23.2909C15.7093 23.105 15.7673 22.8724 15.7336 22.6439C15.6999 22.4153 15.5772 22.2094 15.3922 22.071C15.2072 21.9326 14.975 21.873 14.7463 21.9051C12.5067 22.2677 10.3479 23.02 8.36792 24.1276C7.83578 24.3946 7.04026 25.0475 6.5611 24.671C6.42699 24.5965 6.31556 24.487 6.23861 24.3543C6.16167 24.2215 6.12207 24.0704 6.12403 23.917V8.06237C6.12366 7.92497 6.15611 7.78947 6.21868 7.66715C6.28126 7.54483 6.37214 7.43923 6.48376 7.35912C8.57471 5.82574 14.0221 2.4099 19.4233 3.79717C22.9186 4.69524 25.8034 7.50225 27.999 12.1421V28.5548C26.1475 25.5827 23.3673 23.1458 20.3829 22.2765C20.2731 22.2423 20.1577 22.2301 20.0431 22.2405C19.9286 22.251 19.8173 22.284 19.7155 22.3375C19.6138 22.391 19.5235 22.4641 19.45 22.5525C19.3765 22.641 19.3212 22.743 19.2871 22.8529C19.2531 22.9627 19.2411 23.0782 19.2517 23.1927C19.2623 23.3072 19.2955 23.4185 19.3491 23.5202C19.4028 23.6219 19.476 23.712 19.5645 23.7853C19.6531 23.8587 19.7552 23.9139 19.8651 23.9478C20.7185 24.2139 21.5326 24.5927 22.2858 25.0742C21.3338 24.946 19.5335 24.0817 19.2532 25.4862C19.2421 25.6006 19.2535 25.716 19.287 25.826C19.3205 25.9359 19.3753 26.0382 19.4483 26.1269C19.5213 26.2156 19.6111 26.2891 19.7125 26.3431C19.814 26.3971 19.9251 26.4306 20.0394 26.4416C22.4602 26.795 25.7181 27.5418 26.9399 30.1727C27.0172 30.3036 27.1273 30.412 27.2593 30.4873C27.3913 30.5626 27.5407 30.6022 27.6927 30.6022H30.0554C30.2073 30.6022 30.3567 30.5626 30.4887 30.4873C30.6207 30.412 30.7308 30.3036 30.8082 30.1728C32.0297 27.5433 35.2873 26.7943 37.7086 26.4415C37.823 26.4305 37.9341 26.3971 38.0355 26.3431C38.1369 26.2891 38.2267 26.2156 38.2997 26.1269C38.3727 26.0382 38.4275 25.936 38.461 25.826C38.4945 25.7161 38.5059 25.6007 38.4948 25.4863C38.2114 24.0808 36.4102 24.948 35.4619 25.0743C36.2152 24.5928 37.0294 24.2139 37.8829 23.9478C37.9929 23.914 38.0952 23.8589 38.1838 23.7855C38.2724 23.7121 38.3457 23.622 38.3995 23.5203C38.4533 23.4185 38.4864 23.3072 38.4971 23.1926C38.5078 23.0781 38.4957 22.9625 38.4617 22.8526C38.4276 22.7427 38.3722 22.6406 38.2986 22.5521C38.2251 22.4636 38.1348 22.3906 38.0329 22.337C37.9311 22.2835 37.8196 22.2506 37.7051 22.2402C37.5905 22.2298 37.4749 22.2421 37.3651 22.2764C34.3796 23.1449 31.5977 25.5868 29.749 28.5548V12.1421C31.9447 7.50225 34.8295 4.69524 38.3248 3.79717C43.729 2.41036 49.1734 5.82574 51.2656 7.35998C51.3769 7.4401 51.4675 7.54563 51.5298 7.66779C51.5922 7.78995 51.6245 7.92522 51.6241 8.06237V23.917C51.6277 24.0702 51.59 24.2215 51.5149 24.3551C51.4399 24.4886 51.3302 24.5995 51.1975 24.676C51.0648 24.7525 50.9139 24.7918 50.7607 24.7899C50.6075 24.7879 50.4577 24.7447 50.327 24.6648C50.0266 24.4827 49.7173 24.3097 49.381 24.1277C47.4007 23.0201 45.2417 22.2679 43.0018 21.9052C42.7731 21.873 42.5409 21.9327 42.3559 22.0711C42.1709 22.2095 42.0482 22.4154 42.0145 22.6439C41.9808 22.8724 42.0388 23.105 42.1759 23.291C42.313 23.4769 42.518 23.6011 42.7463 23.6364C44.6328 23.9464 46.4556 24.5644 48.1416 25.4657V26.2622C48.1439 26.4132 48.1052 26.5619 48.0296 26.6925C47.9539 26.8232 47.8442 26.9308 47.7122 27.0039C47.5737 27.0816 47.417 27.1207 47.2583 27.1172C47.0996 27.1137 46.9447 27.0676 46.8098 26.9838C45.6568 26.2792 44.4221 25.7181 43.133 25.3129C42.9128 25.2493 42.6765 25.2747 42.4748 25.3834C42.2731 25.4922 42.1222 25.6758 42.0544 25.8947C41.9866 26.1136 42.0073 26.3503 42.1122 26.554C42.2171 26.7578 42.3977 26.9123 42.6152 26.9843C44.2046 27.2903 45.6265 28.7161 47.2806 28.8712C47.9542 28.8696 48.601 28.6071 49.0854 28.139C49.5698 27.6709 49.8542 27.0334 49.8788 26.3602C50.2719 26.5026 50.6935 26.5483 51.108 26.4936C51.5225 26.4389 51.9178 26.2852 52.2605 26.0457C52.6032 25.8062 52.8833 25.4877 53.0771 25.1172C53.2709 24.7467 53.3727 24.3351 53.374 23.917L53.3741 8.06236C53.3759 7.64977 53.2794 7.2427 53.0924 6.87489C52.9055 6.50709 52.6335 6.18916 52.2991 5.94748C45.3181 0.69736 34.744 -1.24364 28.8741 10.0099C22.997 -1.25045 12.428 0.703862 5.45028 5.94684C5.11556 6.18845 4.84331 6.50642 4.65614 6.87435C4.46897 7.24228 4.37227 7.64956 4.37409 8.06237V23.917C4.37085 24.3797 4.49173 24.8348 4.72415 25.2349C4.95657 25.6349 5.29202 25.9653 5.69556 26.1917Z" fill="#3F3D48"/>
  <path d="M40.5834 35.7847C40.6703 35.9129 44.2469 32.1639 44.3678 32.0959C44.5264 31.9307 44.614 31.7099 44.6116 31.4809C44.6093 31.2519 44.5173 31.0329 44.3553 30.871C44.1934 30.709 43.9744 30.617 43.7454 30.6147C43.5163 30.6124 43.2955 30.7 43.1304 30.8587L41.1241 32.865V16.441C41.7064 16.2347 42.197 15.8292 42.5093 15.2962C42.8216 14.7631 42.9355 14.1369 42.8308 13.528C42.7262 12.9192 42.4097 12.3669 41.9373 11.9688C41.4649 11.5707 40.867 11.3523 40.2492 11.3523C39.6314 11.3523 39.0335 11.5706 38.5611 11.9687C38.0887 12.3668 37.7722 12.919 37.6675 13.5279C37.5627 14.1367 37.6766 14.763 37.9889 15.296C38.3011 15.8291 38.7918 16.2346 39.3741 16.441V32.865L37.3677 30.8586C37.2025 30.6998 36.9817 30.6122 36.7526 30.6145C36.5235 30.6167 36.3045 30.7088 36.1425 30.8708C35.9805 31.0327 35.8885 31.2518 35.8863 31.4809C35.884 31.71 35.9717 31.9308 36.1304 32.0959L39.6301 35.5956C39.7527 35.7175 39.9086 35.8005 40.0782 35.8341C40.2478 35.8677 40.4236 35.8506 40.5834 35.7847ZM40.249 13.1023C40.4782 13.1067 40.6964 13.2009 40.8568 13.3645C41.0173 13.5281 41.1071 13.7481 41.1071 13.9773C41.1071 14.2064 41.0172 14.4265 40.8568 14.5901C40.6963 14.7537 40.4781 14.8478 40.249 14.8523C40.0199 14.8478 39.8017 14.7536 39.6412 14.59C39.4808 14.4264 39.3909 14.2064 39.3909 13.9772C39.3909 13.7481 39.4808 13.5281 39.6413 13.3645C39.8017 13.2009 40.0199 13.1067 40.249 13.1023Z" fill="#3F3D48"/>
  <path d="M18.118 35.5956L21.6177 32.0959C21.7765 31.9308 21.8641 31.7099 21.8618 31.4808C21.8596 31.2518 21.7675 31.0327 21.6055 30.8707C21.4436 30.7088 21.2245 30.6168 20.9954 30.6145C20.7664 30.6122 20.5455 30.6999 20.3804 30.8587L18.3741 32.865V16.441C18.9564 16.2347 19.447 15.8292 19.7593 15.2962C20.0716 14.7631 20.1855 14.1369 20.0808 13.528C19.9762 12.9192 19.6597 12.3669 19.1873 11.9688C18.7149 11.5707 18.117 11.3523 17.4992 11.3523C16.8814 11.3523 16.2835 11.5706 15.8111 11.9687C15.3387 12.3668 15.0222 12.919 14.9175 13.5279C14.8127 14.1367 14.9266 14.763 15.2389 15.296C15.5511 15.8291 16.0418 16.2346 16.6241 16.441V32.865L14.6177 30.8586C14.4525 30.6998 14.2317 30.6122 14.0026 30.6145C13.7735 30.6167 13.5545 30.7088 13.3925 30.8708C13.2305 31.0327 13.1385 31.2518 13.1363 31.4809C13.134 31.7099 13.2217 31.9308 13.3804 32.0959L16.8801 35.5956C17.0451 35.7582 17.2674 35.8493 17.499 35.8493C17.7307 35.8493 17.953 35.7582 18.118 35.5956ZM17.4991 13.1023C17.7282 13.1067 17.9464 13.2009 18.1068 13.3645C18.2673 13.5281 18.3572 13.7481 18.3571 13.9773C18.3571 14.2064 18.2673 14.4265 18.1068 14.5901C17.9463 14.7537 17.7281 14.8478 17.499 14.8523C17.2699 14.8478 17.0517 14.7536 16.8912 14.59C16.7308 14.4264 16.6409 14.2064 16.6409 13.9772C16.6409 13.7481 16.7308 13.5281 16.8913 13.3645C17.0518 13.2009 17.27 13.1067 17.4991 13.1023Z" fill="#3F3D48"/>
  <path d="M5.3287 53.8377C5.40858 53.9575 5.51682 54.0558 5.64383 54.1238C5.77083 54.1918 5.91265 54.2273 6.0567 54.2273C6.81861 54.2674 7.58259 54.239 8.33943 54.1424C8.5044 54.1962 8.67654 54.2248 8.85004 54.2273H26.283C26.747 54.2268 27.1918 54.0423 27.5199 53.7142C27.848 53.3861 28.0325 52.9413 28.033 52.4773V37.6023C28.0325 37.1383 27.848 36.6935 27.5199 36.3654C27.1918 36.0373 26.747 35.8528 26.283 35.8523H8.85007C8.38608 35.8528 7.94123 36.0373 7.61314 36.3654C7.28505 36.6935 7.10053 37.1383 7.10007 37.6023V48.6406H3.49923C3.34167 48.6426 3.18754 48.6868 3.05288 48.7687C2.91823 48.8505 2.80798 48.967 2.73363 49.1059C2.65929 49.2448 2.62356 49.4011 2.63017 49.5586C2.63678 49.716 2.6855 49.8688 2.77123 50.001L5.3287 53.8377ZM8.85007 37.6023H26.283L26.2843 52.4773H8.85007V37.6023ZM7.10007 50.3906V52.4773H6.52499L5.13387 50.3906H7.10007Z" fill="#3F3D48"/>
  <path d="M17.4991 48.9772C18.4271 48.9762 19.3167 48.6071 19.9728 47.9509C20.629 47.2948 20.9981 46.4052 20.9991 45.4772C21.0461 44.766 20.6977 43.782 19.7972 44.0413C19.6934 44.0736 19.5834 44.081 19.4761 44.0628C19.3689 44.0447 19.2674 44.0015 19.18 43.9369C19.0925 43.8722 19.0215 43.7879 18.9727 43.6906C18.924 43.5934 18.8988 43.4861 18.8992 43.3773C19.2314 42.3452 18.3929 41.939 17.4991 41.9773C16.5765 41.986 15.6947 42.3585 15.0453 43.0139C14.396 43.6694 14.0317 44.5547 14.0317 45.4773C14.0317 46.3999 14.396 47.2852 15.0454 47.9406C15.6947 48.5961 16.5766 48.9686 17.4991 48.9772ZM17.1787 43.7567C17.2597 44.2689 17.5009 44.7422 17.8675 45.1088C18.2342 45.4755 18.7075 45.7166 19.2197 45.7977C19.1613 46.111 19.0185 46.4024 18.8066 46.6405C18.5947 46.8786 18.3218 47.0544 18.0174 47.1487C17.713 47.2431 17.3885 47.2526 17.0791 47.1761C16.7697 47.0996 16.4871 46.94 16.2617 46.7146C16.0364 46.4893 15.8768 46.2066 15.8003 45.8972C15.7238 45.5878 15.7333 45.2634 15.8276 44.959C15.922 44.6545 16.0977 44.3817 16.3358 44.1698C16.5739 43.9579 16.8654 43.8151 17.1787 43.7567Z" fill="#3F3D48"/>
  <path d="M34.124 37.6023V52.4773C34.1245 52.9413 34.309 53.3861 34.6371 53.7142C34.9652 54.0423 35.41 54.2268 35.874 54.2273H44.624C45.088 54.2268 45.5329 54.0423 45.8609 53.7142C46.189 53.3861 46.3736 52.9413 46.374 52.4773V37.6023C46.3736 37.1383 46.189 36.6935 45.8609 36.3654C45.5329 36.0373 45.088 35.8528 44.624 35.8523H35.874C35.41 35.8528 34.9652 36.0373 34.6371 36.3654C34.309 36.6935 34.1245 37.1383 34.124 37.6023ZM44.624 37.6023L44.6253 52.4773H35.874V37.6023H44.624Z" fill="#3F3D48"/>
  <path d="M39.3742 51.6023H41.1242C41.3533 51.5978 41.5715 51.5037 41.732 51.3401C41.8924 51.1764 41.9823 50.9564 41.9823 50.7273C41.9823 50.4981 41.8924 50.2781 41.732 50.1145C41.5715 49.9509 41.3533 49.8568 41.1242 49.8523H39.3742C39.1451 49.8568 38.9269 49.9509 38.7664 50.1145C38.606 50.2781 38.5161 50.4981 38.5161 50.7273C38.5161 50.9564 38.606 51.1765 38.7664 51.3401C38.9269 51.5037 39.1451 51.5978 39.3742 51.6023Z" fill="#3F3D48"/>
</svg>