<svg xmlns="http://www.w3.org/2000/svg" width="56" height="56" viewBox="0 0 56 56" fill="none">
  <g clip-path="url(#clip0_502_2722)">
    <path d="M40.6832 45.6424H30.1376L29.0342 44.539L31.803 41.7702C32.1072 41.4659 32.2342 41.0332 32.1425 40.6128C32.0508 40.1924 31.7554 39.8519 31.3524 39.702L16.8997 34.3231C16.3924 34.1343 15.8391 34.2547 15.4561 34.6378C15.0732 35.0207 14.9527 35.574 15.1416 36.0814L18.6999 45.6424H4.20966C2.79435 45.6424 1.64307 44.4911 1.64307 43.0759V25.3799C1.64307 24.9267 1.27589 24.5596 0.822754 24.5596C0.369613 24.5596 0.00244141 24.9267 0.00244141 25.3799V43.0759C0.00244141 45.3957 1.88982 47.2831 4.20966 47.2831H19.3105L20.5203 50.5338C20.6703 50.9372 21.0109 51.2326 21.4313 51.3243C21.8516 51.4161 22.2845 51.289 22.5885 50.9848L25.3573 48.2161L28.1759 51.0347C28.4425 51.3011 28.7925 51.4341 29.1425 51.4341C29.4926 51.4341 29.8427 51.3009 30.1092 51.0346L31.8528 49.2911C32.3856 48.758 32.3855 47.8907 31.8527 47.3577C31.8527 47.3577 31.8527 47.3577 31.8526 47.3577L31.7782 47.2833H40.6831C41.1362 47.2833 41.5034 46.9161 41.5034 46.463C41.5034 46.0099 41.1362 45.6424 40.6832 45.6424ZM29.1426 49.6807L25.9374 46.4756C25.7772 46.3155 25.5673 46.2354 25.3573 46.2354C25.1474 46.2354 24.9374 46.3155 24.7772 46.4756L21.8499 49.4029L16.8875 36.0692L30.2211 41.0317L27.2938 43.959C26.9734 44.2794 26.9734 44.7988 27.2939 45.1191L30.499 48.3241L29.1426 49.6807Z" fill="#3F3D48"/>
    <path d="M51.7952 4.56274H48.9272C48.4741 4.56274 48.1069 4.92992 48.1069 5.38306C48.1069 5.8362 48.4741 6.20337 48.9272 6.20337H51.7952C53.2104 6.20337 54.3618 7.35465 54.3618 8.76996V13.9096H1.64307V8.76996C1.64307 7.35476 2.79435 6.20337 4.20966 6.20337H45.1333C45.5864 6.20337 45.9536 5.8362 45.9536 5.38306C45.9536 4.92992 45.5864 4.56274 45.1333 4.56274H4.20966C1.88982 4.56274 0.00244141 6.45012 0.00244141 8.76996V21.6885C0.00244141 22.1416 0.369613 22.5088 0.822754 22.5088C1.27589 22.5088 1.64307 22.1416 1.64307 21.6885V15.5503H54.3618V43.0759C54.3618 44.4911 53.2105 45.6425 51.7952 45.6425H44.6138C44.1606 45.6425 43.7935 46.0096 43.7935 46.4628C43.7935 46.9159 44.1606 47.2831 44.6138 47.2831H51.7952C54.1151 47.2831 56.0024 45.3957 56.0024 43.0759V8.76996C56.0024 6.45012 54.1151 4.56274 51.7952 4.56274Z" fill="#3F3D48"/>
    <path d="M5.43506 10.0561C5.43506 10.8953 6.11537 11.5756 6.9545 11.5756C7.79362 11.5756 8.47393 10.8953 8.47393 10.0561C8.47393 9.21682 7.79362 8.53662 6.9545 8.53662C6.11537 8.53662 5.43506 9.21682 5.43506 10.0561Z" fill="#3F3D48"/>
    <path d="M10.1099 10.0561C10.1099 10.8953 10.7902 11.5756 11.6293 11.5756C12.4684 11.5756 13.1487 10.8953 13.1487 10.0561C13.1487 9.21682 12.4684 8.53662 11.6293 8.53662C10.7902 8.53662 10.1099 9.21682 10.1099 10.0561Z" fill="#3F3D48"/>
    <path d="M14.7842 10.0561C14.7842 10.8953 15.4645 11.5756 16.3036 11.5756C17.1427 11.5756 17.8231 10.8953 17.8231 10.0561C17.8231 9.21682 17.1427 8.53662 16.3036 8.53662C15.4645 8.53662 14.7842 9.21682 14.7842 10.0561Z" fill="#3F3D48"/>
    <path d="M10.0394 33.6104H10.0441C10.3909 33.6104 10.7004 33.3923 10.8168 33.0655L12.8487 27.3635L14.7904 33.0551C14.9032 33.3859 15.2136 33.6089 15.5633 33.6105H15.5667C15.9151 33.6105 16.2255 33.3904 16.3409 33.0614L19.0954 25.2033C19.2452 24.7758 19.0201 24.3077 18.5925 24.1577C18.1652 24.0079 17.6969 24.233 17.5469 24.6606L15.5771 30.2802L13.642 24.6075C13.4226 23.8866 12.3217 23.8799 12.093 24.597L10.0581 30.3069L8.12264 24.6744C7.97542 24.2459 7.50883 24.0176 7.0803 24.1653C6.65188 24.3125 6.42383 24.7792 6.57116 25.2076L9.26835 33.0566C9.38155 33.3863 9.69086 33.6083 10.0394 33.6104Z" fill="#3F3D48"/>
    <path d="M25.2177 33.6107H25.2224C25.5691 33.6107 25.8786 33.3926 25.995 33.0657L28.027 27.3638L29.9686 33.0554C30.0815 33.3862 30.3919 33.6092 30.7415 33.6108H30.7449C31.0933 33.6108 31.4037 33.3907 31.5191 33.0617L34.2736 25.2035C34.4234 24.7761 34.1983 24.308 33.7707 24.158C33.3435 24.0082 32.8751 24.2333 32.7252 24.6609L30.7553 30.2805L28.8203 24.6078C28.6007 23.8868 27.4999 23.8802 27.2712 24.5973L25.2364 30.3072L23.3009 24.6748C23.1536 24.2463 22.6868 24.018 22.2585 24.1657C21.8301 24.3129 21.6021 24.7796 21.7494 25.208L24.4466 33.057C24.5599 33.3865 24.8692 33.6086 25.2177 33.6107Z" fill="#3F3D48"/>
    <path d="M40.15 33.6104H40.1546C40.5013 33.6104 40.8109 33.3923 40.9272 33.0655L42.9592 27.3635L44.9008 33.0551C45.0137 33.3859 45.3241 33.6089 45.6738 33.6105H45.6772C46.0255 33.6105 46.3359 33.3904 46.4513 33.0614L49.2057 25.2033C49.3556 24.7758 49.1305 24.3077 48.7028 24.1577C48.2755 24.0079 47.8072 24.233 47.6573 24.6606L45.6876 30.2802L43.7525 24.6075C43.5332 23.8866 42.432 23.8799 42.2034 24.597L40.1686 30.3069L38.233 24.6745C38.0858 24.2461 37.6197 24.018 37.1906 24.1654C36.7622 24.3126 36.5342 24.7793 36.6815 25.2077L39.3788 33.0567C39.4921 33.3863 39.8013 33.6083 40.15 33.6104Z" fill="#3F3D48"/>
  </g>
  <defs>
    <clipPath id="clip0_502_2722">
      <rect width="56" height="56" fill="white"/>
    </clipPath>
  </defs>
</svg>